<?xml version="1.0" encoding="UTF-8" standalone="no"?>
<!DOCTYPE svg PUBLIC "-//W3C//DTD SVG 1.1//EN"
 "http://www.w3.org/Graphics/SVG/1.1/DTD/svg11.dtd">
<!-- Generated by graphviz version 12.2.0 (20241103.1931)
 -->
<!-- Title: bl_invalidate_metadata Pages: 1 -->
<!--zoomable 658 -->

<svg id="main" version="1.1" xmlns="http://www.w3.org/2000/svg" xmlns:xlink="http://www.w3.org/1999/xlink" xml:space="preserve" onload="init(evt)">

<style type="text/css"><![CDATA[
.node, .edge {opacity: 0.7;}
.node.selected, .edge.selected {opacity: 1;}
.edge:hover path { stroke: red; }
.edge:hover polygon { stroke: red; fill: red; }
]]></style>

<defs>
  <circle id="rim" cx="0" cy="0" r="7"/>
  <circle id="rim2" cx="0" cy="0" r="3.5"/>
  <g id="zoomPlus">
    <use xlink:href="#rim" fill="#404040"><set attributeName="fill" to="#808080" begin="zoomplus.mouseover" end="zoomplus.mouseout"/></use>
    <path d="M-4,0h8M0,-4v8" fill="none" stroke="white" stroke-width="1.5" pointer-events="none"/>
  </g>
  <g id="zoomMin">
    <use xlink:href="#rim" fill="#404040"><set attributeName="fill" to="#808080" begin="zoomminus.mouseover" end="zoomminus.mouseout"/></use>
    <path d="M-4,0h8" fill="none" stroke="white" stroke-width="1.5" pointer-events="none"/>
  </g>
  <g id="arrowUp" transform="translate(30 24)">
    <use xlink:href="#rim"/>
    <path pointer-events="none" fill="none" stroke="white" stroke-width="1.5" d="M0,-3.0v7 M-2.5,-0.5L0,-3.0L2.5,-0.5"/>
  </g>
  <g id="arrowRight" transform="rotate(90) translate(36 -43)">
    <use xlink:href="#rim"/>
    <path pointer-events="none" fill="none" stroke="white" stroke-width="1.5" d="M0,-3.0v7 M-2.5,-0.5L0,-3.0L2.5,-0.5"/>
  </g>
  <g id="arrowDown" transform="rotate(180) translate(-30 -48)">
    <use xlink:href="#rim"/>
    <path pointer-events="none" fill="none" stroke="white" stroke-width="1.5" d="M0,-3.0v7 M-2.5,-0.5L0,-3.0L2.5,-0.5"/>
  </g>
  <g id="arrowLeft" transform="rotate(270) translate(-36 17)">
    <use xlink:href="#rim"/>
    <path pointer-events="none" fill="none" stroke="white" stroke-width="1.5" d="M0,-3.0v7 M-2.5,-0.5L0,-3.0L2.5,-0.5"/>
  </g>
  <g id="resetDef">
    <use xlink:href="#rim2" fill="#404040"><set attributeName="fill" to="#808080" begin="reset.mouseover" end="reset.mouseout"/></use>
  </g>
</defs>
<script type="application/ecmascript">
var viewWidth = 889;
var viewHeight = 658;
var sectionId = 'dynsection-14';
</script>
<script type="application/ecmascript" xlink:href="svg.min.js"/>
<svg id="graph" class="graph">
<g id="viewport">
<title>bl_invalidate_metadata</title>
<!-- Node1 -->
<g id="Node000001" class="node">
<title>Node1</title>
<g id="a_Node000001"><a xlink:title=" ">
<polygon fill="#999999" stroke="#666666" points="115.75,-254.88 0,-254.88 0,-235.62 115.75,-235.62 115.75,-254.88"/>
<text text-anchor="middle" x="57.88" y="-241.38" font-family="Helvetica,sans-Serif" font-size="10.00">bl_invalidate_metadata</text>
</a>
</g>
</g>
<!-- Node2 -->
<g id="Node000002" class="node">
<title>Node2</title>
<g id="a_Node000002"><a xlink:href="phal__G4_2flash_2flash_8c.html#ae5452e7ac6c1fd154de448cc8403653d" target="_top" xlink:title="Erase every internal flash page touched by a range.">
<polygon fill="white" stroke="#666666" points="262.25,-254.88 151.75,-254.88 151.75,-235.62 262.25,-235.62 262.25,-254.88"/>
<text text-anchor="middle" x="207" y="-241.38" font-family="Helvetica,sans-Serif" font-size="10.00">PHAL_FLASH_erase</text>
</a>
</g>
</g>
<!-- Node1&#45;&gt;Node2 -->
<g id="edge1_Node000001_Node000002" class="edge">
<title>Node1&#45;&gt;Node2</title>
<g id="a_edge1_Node000001_Node000002"><a xlink:title=" ">
<path fill="none" stroke="#63b8ff" d="M116.18,-245.25C123.98,-245.25 132.05,-245.25 139.99,-245.25"/>
<polygon fill="#63b8ff" stroke="#63b8ff" points="139.99,-248.75 149.99,-245.25 139.99,-241.75 139.99,-248.75"/>
</a>
</g>
</g>
<!-- Node3 -->
<g id="Node000003" class="node">
<title>Node3</title>
<g id="a_Node000003"><a xlink:href="phal__G4_2flash_2flash_8c.html#a36a1e9148b20635a7eae090ddc91594f" target="_top" xlink:title=" ">
<polygon fill="white" stroke="#666666" points="428.62,-495.88 318.88,-495.88 318.88,-476.62 428.62,-476.62 428.62,-495.88"/>
<text text-anchor="middle" x="373.75" y="-482.38" font-family="Helvetica,sans-Serif" font-size="10.00">flash_page_is_erased</text>
</a>
</g>
</g>
<!-- Node2&#45;&gt;Node3 -->
<g id="edge2_Node000002_Node000003" class="edge">
<title>Node2&#45;&gt;Node3</title>
<g id="a_edge2_Node000002_Node000003"><a xlink:title=" ">
<path fill="none" stroke="#63b8ff" d="M208.87,-255.08C212.49,-289.99 229.62,-409.06 298.25,-468.25 301.26,-470.85 304.59,-473.09 308.11,-475.01"/>
<polygon fill="#63b8ff" stroke="#63b8ff" points="306.54,-478.14 317.1,-479.03 309.4,-471.75 306.54,-478.14"/>
</a>
</g>
</g>
<!-- Node4 -->
<g id="Node000004" class="node">
<title>Node4</title>
<g id="a_Node000004"><a xlink:href="flash__priv_8c.html#a7cfacba7a408a420e261fcdceef04b8b" target="_top" xlink:title="Prepare the controller for programming or page erase.">
<polygon fill="white" stroke="#666666" points="449.25,-458.88 298.25,-458.88 298.25,-439.62 449.25,-439.62 449.25,-458.88"/>
<text text-anchor="middle" x="373.75" y="-445.38" font-family="Helvetica,sans-Serif" font-size="10.00">FLASH_PRIV_begin_operation</text>
</a>
</g>
</g>
<!-- Node2&#45;&gt;Node4 -->
<g id="edge3_Node000002_Node000004" class="edge">
<title>Node2&#45;&gt;Node4</title>
<g id="a_edge3_Node000002_Node000004"><a xlink:title=" ">
<path fill="none" stroke="#63b8ff" d="M216.17,-255.37C242.26,-287.67 323.83,-388.67 357.73,-430.66"/>
<polygon fill="#63b8ff" stroke="#63b8ff" points="354.96,-432.79 363.97,-438.37 360.41,-428.39 354.96,-432.79"/>
</a>
</g>
</g>
<!-- Node14 -->
<g id="Node000014" class="node">
<title>Node14</title>
<g id="a_Node000014"><a xlink:href="flash__priv_8c.html#a3bedf041eabbe2090e0bfb147c6b87de" target="_top" xlink:title="Finalize a completed operation, restore cache state, lock the controller, and release the operation l...">
<polygon fill="white" stroke="#666666" points="445.5,-337.88 302,-337.88 302,-318.62 445.5,-318.62 445.5,-337.88"/>
<text text-anchor="middle" x="373.75" y="-324.38" font-family="Helvetica,sans-Serif" font-size="10.00">FLASH_PRIV_end_operation</text>
</a>
</g>
</g>
<!-- Node2&#45;&gt;Node14 -->
<g id="edge13_Node000002_Node000014" class="edge">
<title>Node2&#45;&gt;Node14</title>
<g id="a_edge13_Node000002_Node000014"><a xlink:title=" ">
<path fill="none" stroke="#63b8ff" d="M227.87,-255.26C256.45,-269.66 309.36,-296.31 342.72,-313.12"/>
<polygon fill="#63b8ff" stroke="#63b8ff" points="340.95,-316.15 351.46,-317.52 344.1,-309.9 340.95,-316.15"/>
</a>
</g>
</g>
<!-- Node16 -->
<g id="Node000016" class="node">
<title>Node16</title>
<g id="a_Node000016"><a xlink:href="flash__priv_8c.html#a423e49b8e633590b99f63b00c9381645" target="_top" xlink:title="Erase one complete flash page.">
<polygon fill="white" stroke="#666666" points="440.25,-173.88 307.25,-173.88 307.25,-154.62 440.25,-154.62 440.25,-173.88"/>
<text text-anchor="middle" x="373.75" y="-160.38" font-family="Helvetica,sans-Serif" font-size="10.00">FLASH_PRIV_erase_page</text>
</a>
</g>
</g>
<!-- Node2&#45;&gt;Node16 -->
<g id="edge19_Node000002_Node000016" class="edge">
<title>Node2&#45;&gt;Node16</title>
<g id="a_edge19_Node000002_Node000016"><a xlink:title=" ">
<path fill="none" stroke="#63b8ff" d="M228.53,-235.16C257.1,-221.11 309.04,-195.57 342.18,-179.28"/>
<polygon fill="#63b8ff" stroke="#63b8ff" points="343.43,-182.57 350.86,-175.01 340.34,-176.28 343.43,-182.57"/>
</a>
</g>
</g>
<!-- Node19 -->
<g id="Node000019" class="node">
<title>Node19</title>
<g id="a_Node000019"><a xlink:href="flash__priv_8c.html#a070e33cfa30b8f6f011c83d3816f0162" target="_top" xlink:title="Determine the active page size from the dual&#45;bank option bit.">
<polygon fill="white" stroke="#666666" points="607.75,-79.5 485.25,-79.5 485.25,-49 607.75,-49 607.75,-79.5"/>
<text text-anchor="start" x="493.25" y="-66" font-family="Helvetica,sans-Serif" font-size="10.00">FLASH_PRIV_get_page</text>
<text text-anchor="middle" x="546.5" y="-54.75" font-family="Helvetica,sans-Serif" font-size="10.00">_size_bytes</text>
</a>
</g>
</g>
<!-- Node2&#45;&gt;Node19 -->
<g id="edge29_Node000002_Node000019" class="edge">
<title>Node2&#45;&gt;Node19</title>
<g id="a_edge29_Node000002_Node000019"><a xlink:title=" ">
<path fill="none" stroke="#63b8ff" d="M214.42,-235.16C227.67,-215.12 260.02,-170.11 298.25,-145.25 351.96,-110.32 422.06,-89.23 473.89,-77.37"/>
<polygon fill="#63b8ff" stroke="#63b8ff" points="474.51,-80.82 483.52,-75.23 473,-73.98 474.51,-80.82"/>
</a>
</g>
</g>
<!-- Node22 -->
<g id="Node000022" class="node">
<title>Node22</title>
<g id="a_Node000022"><a xlink:href="phal__G4_2flash_2flash_8c.html#a56beaa2bee86f3862b7da4503a7983e7" target="_top" xlink:title=" ">
<polygon fill="white" stroke="#666666" points="425.62,-57.88 321.88,-57.88 321.88,-38.62 425.62,-38.62 425.62,-57.88"/>
<text text-anchor="middle" x="373.75" y="-44.38" font-family="Helvetica,sans-Serif" font-size="10.00">flash_range_is_valid</text>
</a>
</g>
</g>
<!-- Node2&#45;&gt;Node22 -->
<g id="edge30_Node000002_Node000022" class="edge">
<title>Node2&#45;&gt;Node22</title>
<g id="a_edge30_Node000002_Node000022"><a xlink:title=" ">
<path fill="none" stroke="#63b8ff" d="M212.3,-235.44C223.57,-210.48 256.07,-143.44 298.25,-99.25 311.53,-85.34 329.19,-73.05 343.98,-64.02"/>
<polygon fill="#63b8ff" stroke="#63b8ff" points="345.53,-67.17 352.37,-59.08 341.98,-61.14 345.53,-67.17"/>
</a>
</g>
</g>
<!-- Node5 -->
<g id="Node000005" class="node">
<title>Node5</title>
<g id="a_Node000005"><a xlink:href="flash__priv_8c.html#a047660148edba340f7b41398a518fa2c" target="_top" xlink:title=" ">
<polygon fill="white" stroke="#666666" points="583,-649.88 510,-649.88 510,-630.62 583,-630.62 583,-649.88"/>
<text text-anchor="middle" x="546.5" y="-636.38" font-family="Helvetica,sans-Serif" font-size="10.00">flash_acquire</text>
</a>
</g>
</g>
<!-- Node4&#45;&gt;Node5 -->
<g id="edge4_Node000004_Node000005" class="edge">
<title>Node4&#45;&gt;Node5</title>
<g id="a_edge4_Node000004_Node000005"><a xlink:title=" ">
<path fill="none" stroke="#63b8ff" d="M438.81,-459.34C442.62,-461.52 446.16,-464.13 449.25,-467.25 498.77,-517.14 437.47,-569.7 485.25,-621.25 489.16,-625.47 493.99,-628.75 499.2,-631.31"/>
<polygon fill="#63b8ff" stroke="#63b8ff" points="497.57,-634.43 508.15,-634.84 500.13,-627.92 497.57,-634.43"/>
</a>
</g>
</g>
<!-- Node6 -->
<g id="Node000006" class="node">
<title>Node6</title>
<g id="a_Node000006"><a xlink:href="flash__priv_8c.html#a6645ffedbc8c651dd49b77830da9d1eb" target="_top" xlink:title=" ">
<polygon fill="white" stroke="#666666" points="593.88,-365.5 499.12,-365.5 499.12,-335 593.88,-335 593.88,-365.5"/>
<text text-anchor="start" x="507.12" y="-352" font-family="Helvetica,sans-Serif" font-size="10.00">flash_clear_status</text>
<text text-anchor="middle" x="546.5" y="-340.75" font-family="Helvetica,sans-Serif" font-size="10.00">_flags</text>
</a>
</g>
</g>
<!-- Node4&#45;&gt;Node6 -->
<g id="edge5_Node000004_Node000006" class="edge">
<title>Node4&#45;&gt;Node6</title>
<g id="a_edge5_Node000004_Node000006"><a xlink:title=" ">
<path fill="none" stroke="#63b8ff" d="M387.44,-439.28C407.41,-423.91 447.77,-394.13 485.25,-374.25 487.6,-373 490.03,-371.78 492.5,-370.59"/>
<polygon fill="#63b8ff" stroke="#63b8ff" points="493.8,-373.85 501.46,-366.52 490.91,-367.47 493.8,-373.85"/>
</a>
</g>
</g>
<!-- Node7 -->
<g id="Node000007" class="node">
<title>Node7</title>
<g id="a_Node000007"><a xlink:href="flash__priv_8c.html#a67e56fb167efeabdadef86b9718776b4" target="_top" xlink:title=" ">
<polygon fill="white" stroke="#666666" points="594.62,-612.5 498.38,-612.5 498.38,-582 594.62,-582 594.62,-612.5"/>
<text text-anchor="start" x="506.38" y="-599" font-family="Helvetica,sans-Serif" font-size="10.00">flash_disable_data</text>
<text text-anchor="middle" x="546.5" y="-587.75" font-family="Helvetica,sans-Serif" font-size="10.00">_cache</text>
</a>
</g>
</g>
<!-- Node4&#45;&gt;Node7 -->
<g id="edge6_Node000004_Node000007" class="edge">
<title>Node4&#45;&gt;Node7</title>
<g id="a_edge6_Node000004_Node000007"><a xlink:title=" ">
<path fill="none" stroke="#63b8ff" d="M437.77,-459.31C441.92,-461.49 445.81,-464.11 449.25,-467.25 485.98,-500.81 450.99,-537.17 485.25,-573.25 486.39,-574.45 487.6,-575.59 488.86,-576.67"/>
<polygon fill="#63b8ff" stroke="#63b8ff" points="486.46,-579.27 496.65,-582.18 490.5,-573.55 486.46,-579.27"/>
</a>
</g>
</g>
<!-- Node8 -->
<g id="Node000008" class="node">
<title>Node8</title>
<g id="a_Node000008"><a xlink:href="flash__priv_8c.html#af3494fc55f0caf8044453f4d4cfba50a" target="_top" xlink:title=" ">
<polygon fill="white" stroke="#666666" points="583,-402.88 510,-402.88 510,-383.62 583,-383.62 583,-402.88"/>
<text text-anchor="middle" x="546.5" y="-389.38" font-family="Helvetica,sans-Serif" font-size="10.00">flash_release</text>
</a>
</g>
</g>
<!-- Node4&#45;&gt;Node8 -->
<g id="edge7_Node000004_Node000008" class="edge">
<title>Node4&#45;&gt;Node8</title>
<g id="a_edge7_Node000004_Node000008"><a xlink:title=" ">
<path fill="none" stroke="#63b8ff" d="M402.8,-439.25C425.07,-431.39 457.05,-420.31 485.25,-411.25 490.06,-409.71 495.09,-408.13 500.12,-406.59"/>
<polygon fill="#63b8ff" stroke="#63b8ff" points="501.01,-409.98 509.57,-403.73 498.98,-403.28 501.01,-409.98"/>
</a>
</g>
</g>
<!-- Node9 -->
<g id="Node000009" class="node">
<title>Node9</title>
<g id="a_Node000009"><a xlink:href="flash__priv_8c.html#a9ab7b48d3d52c21196f8f6291ede324f" target="_top" xlink:title=" ">
<polygon fill="white" stroke="#666666" points="600.62,-439.88 492.38,-439.88 492.38,-420.62 600.62,-420.62 600.62,-439.88"/>
<text text-anchor="middle" x="546.5" y="-426.38" font-family="Helvetica,sans-Serif" font-size="10.00">flash_restore_caches</text>
</a>
</g>
</g>
<!-- Node4&#45;&gt;Node9 -->
<g id="edge8_Node000004_Node000009" class="edge">
<title>Node4&#45;&gt;Node9</title>
<g id="a_edge8_Node000004_Node000009"><a xlink:title=" ">
<path fill="none" stroke="#63b8ff" d="M449.64,-440.92C460,-439.76 470.56,-438.59 480.7,-437.46"/>
<polygon fill="#63b8ff" stroke="#63b8ff" points="480.9,-440.96 490.45,-436.38 480.12,-434 480.9,-440.96"/>
</a>
</g>
</g>
<!-- Node10 -->
<g id="Node000010" class="node">
<title>Node10</title>
<g id="a_Node000010"><a xlink:href="flash__priv_8c.html#aa6b97186b7b1399b9ec2a65492b95621" target="_top" xlink:title=" ">
<polygon fill="white" stroke="#666666" points="581.5,-563.88 511.5,-563.88 511.5,-544.62 581.5,-544.62 581.5,-563.88"/>
<text text-anchor="middle" x="546.5" y="-550.38" font-family="Helvetica,sans-Serif" font-size="10.00">flash_unlock</text>
</a>
</g>
</g>
<!-- Node4&#45;&gt;Node10 -->
<g id="edge9_Node000004_Node000010" class="edge">
<title>Node4&#45;&gt;Node10</title>
<g id="a_edge9_Node000004_Node000010"><a xlink:title=" ">
<path fill="none" stroke="#63b8ff" d="M435.76,-459.26C440.57,-461.43 445.15,-464.07 449.25,-467.25 476.25,-488.23 458.98,-513.36 485.25,-535.25 489.77,-539.02 495.04,-542.04 500.54,-544.46"/>
<polygon fill="#63b8ff" stroke="#63b8ff" points="499.28,-547.72 509.87,-547.9 501.7,-541.16 499.28,-547.72"/>
</a>
</g>
</g>
<!-- Node11 -->
<g id="Node000011" class="node">
<title>Node11</title>
<g id="a_Node000011"><a xlink:href="flash__priv_8c.html#a726d056d5a9093c86e6024c615a2faa1" target="_top" xlink:title=" ">
<polygon fill="white" stroke="#666666" points="599.5,-526.5 493.5,-526.5 493.5,-496 599.5,-496 599.5,-526.5"/>
<text text-anchor="start" x="501.5" y="-513" font-family="Helvetica,sans-Serif" font-size="10.00">flash_voltage_allows</text>
<text text-anchor="middle" x="546.5" y="-501.75" font-family="Helvetica,sans-Serif" font-size="10.00">_programming</text>
</a>
</g>
</g>
<!-- Node4&#45;&gt;Node11 -->
<g id="edge10_Node000004_Node000011" class="edge">
<title>Node4&#45;&gt;Node11</title>
<g id="a_edge10_Node000004_Node000011"><a xlink:title=" ">
<path fill="none" stroke="#63b8ff" d="M422.44,-459.33C431.43,-461.64 440.7,-464.29 449.25,-467.25 459.87,-470.92 482.32,-481.13 502.87,-490.79"/>
<polygon fill="#63b8ff" stroke="#63b8ff" points="501.15,-493.85 511.68,-494.96 504.14,-487.52 501.15,-493.85"/>
</a>
</g>
</g>
<!-- Node12 -->
<g id="Node000012" class="node">
<title>Node12</title>
<g id="a_Node000012"><a xlink:href="flash__priv_8c.html#af874d066cd00494e0fb8aaddd5c9a803" target="_top" xlink:title=" ">
<polygon fill="white" stroke="#666666" points="770.75,-256.88 643.75,-256.88 643.75,-237.62 770.75,-237.62 770.75,-256.88"/>
<text text-anchor="middle" x="707.25" y="-243.38" font-family="Helvetica,sans-Serif" font-size="10.00">flash_wait_until_not_busy</text>
</a>
</g>
</g>
<!-- Node4&#45;&gt;Node12 -->
<g id="edge11_Node000004_Node000012" class="edge">
<title>Node4&#45;&gt;Node12</title>
<g id="a_edge11_Node000004_Node000012"><a xlink:title=" ">
<path fill="none" stroke="#63b8ff" d="M449.74,-457.65C507.71,-462.61 582.24,-465.19 607.75,-449.25 672.66,-408.69 695.93,-311.67 703.26,-268.55"/>
<polygon fill="#63b8ff" stroke="#63b8ff" points="706.71,-269.15 704.79,-258.73 699.79,-268.07 706.71,-269.15"/>
</a>
</g>
</g>
<!-- Node13 -->
<g id="Node000013" class="node">
<title>Node13</title>
<g id="a_Node000013"><a xlink:href="flash__priv_8c.html#addc1891c1d459ba255e26f37ca4ba285" target="_top" xlink:title=" ">
<polygon fill="white" stroke="#666666" points="881.25,-256.88 806.75,-256.88 806.75,-237.62 881.25,-237.62 881.25,-256.88"/>
<text text-anchor="middle" x="844" y="-243.38" font-family="Helvetica,sans-Serif" font-size="10.00">flash_is_busy</text>
</a>
</g>
</g>
<!-- Node12&#45;&gt;Node13 -->
<g id="edge12_Node000012_Node000013" class="edge">
<title>Node12&#45;&gt;Node13</title>
<g id="a_edge12_Node000012_Node000013"><a xlink:title=" ">
<path fill="none" stroke="#63b8ff" d="M770.89,-247.25C779.11,-247.25 787.42,-247.25 795.34,-247.25"/>
<polygon fill="#63b8ff" stroke="#63b8ff" points="795.08,-250.75 805.08,-247.25 795.08,-243.75 795.08,-250.75"/>
</a>
</g>
</g>
<!-- Node14&#45;&gt;Node6 -->
<g id="edge14_Node000014_Node000006" class="edge">
<title>Node14&#45;&gt;Node6</title>
<g id="a_edge14_Node000014_Node000006"><a xlink:title=" ">
<path fill="none" stroke="#63b8ff" d="M445.68,-337.39C459.64,-339.19 474.13,-341.05 487.6,-342.79"/>
<polygon fill="#63b8ff" stroke="#63b8ff" points="486.77,-346.21 497.14,-344.02 487.66,-339.27 486.77,-346.21"/>
</a>
</g>
</g>
<!-- Node14&#45;&gt;Node8 -->
<g id="edge17_Node000014_Node000008" class="edge">
<title>Node14&#45;&gt;Node8</title>
<g id="a_edge17_Node000014_Node000008"><a xlink:title=" ">
<path fill="none" stroke="#63b8ff" d="M397.37,-338.36C419.54,-348.11 454.41,-362.99 485.25,-374.25 490.33,-376.1 495.68,-377.95 501.02,-379.72"/>
<polygon fill="#63b8ff" stroke="#63b8ff" points="499.83,-383.01 510.42,-382.76 501.98,-376.35 499.83,-383.01"/>
</a>
</g>
</g>
<!-- Node14&#45;&gt;Node9 -->
<g id="edge18_Node000014_Node000009" class="edge">
<title>Node14&#45;&gt;Node9</title>
<g id="a_edge18_Node000014_Node000009"><a xlink:title=" ">
<path fill="none" stroke="#63b8ff" d="M385.15,-338.26C403.77,-355.67 444.65,-391.62 485.25,-412.25 487.98,-413.64 490.84,-414.94 493.77,-416.16"/>
<polygon fill="#63b8ff" stroke="#63b8ff" points="492.53,-419.43 503.12,-419.66 494.98,-412.87 492.53,-419.43"/>
</a>
</g>
</g>
<!-- Node14&#45;&gt;Node13 -->
<g id="edge15_Node000014_Node000013" class="edge">
<title>Node14&#45;&gt;Node13</title>
<g id="a_edge15_Node000014_Node000013"><a xlink:title=" ">
<path fill="none" stroke="#63b8ff" d="M445.96,-319.32C525.54,-308.84 658.02,-289.83 770.75,-266.25 779.14,-264.5 788,-262.38 796.55,-260.21"/>
<polygon fill="#63b8ff" stroke="#63b8ff" points="797.27,-263.64 806.06,-257.73 795.5,-256.87 797.27,-263.64"/>
</a>
</g>
</g>
<!-- Node15 -->
<g id="Node000015" class="node">
<title>Node15</title>
<g id="a_Node000015"><a xlink:href="flash__priv_8c.html#a45b95cf0e5efd068ee3d00099eca2b84" target="_top" xlink:title=" ">
<polygon fill="white" stroke="#666666" points="576.25,-278.88 516.75,-278.88 516.75,-259.62 576.25,-259.62 576.25,-278.88"/>
<text text-anchor="middle" x="546.5" y="-265.38" font-family="Helvetica,sans-Serif" font-size="10.00">flash_lock</text>
</a>
</g>
</g>
<!-- Node14&#45;&gt;Node15 -->
<g id="edge16_Node000014_Node000015" class="edge">
<title>Node14&#45;&gt;Node15</title>
<g id="a_edge16_Node000014_Node000015"><a xlink:title=" ">
<path fill="none" stroke="#63b8ff" d="M403.72,-318.24C431.8,-308.54 474.63,-293.74 505.87,-282.94"/>
<polygon fill="#63b8ff" stroke="#63b8ff" points="506.65,-286.38 514.96,-279.8 504.37,-279.76 506.65,-286.38"/>
</a>
</g>
</g>
<!-- Node16&#45;&gt;Node6 -->
<g id="edge21_Node000016_Node000006" class="edge">
<title>Node16&#45;&gt;Node6</title>
<g id="a_edge21_Node000016_Node000006"><a xlink:title=" ">
<path fill="none" stroke="#63b8ff" d="M383.49,-174.35C401.98,-195.65 446.55,-246.67 485.25,-288.25 497.15,-301.03 510.67,-315 521.89,-326.44"/>
<polygon fill="#63b8ff" stroke="#63b8ff" points="519.39,-328.88 528.89,-333.55 524.37,-323.97 519.39,-328.88"/>
</a>
</g>
</g>
<!-- Node16&#45;&gt;Node13 -->
<g id="edge23_Node000016_Node000013" class="edge">
<title>Node16&#45;&gt;Node13</title>
<g id="a_edge23_Node000016_Node000013"><a xlink:title=" ">
<path fill="none" stroke="#63b8ff" d="M440.63,-172.9C519.51,-183.73 655.44,-203.83 770.75,-228.25 779.13,-230.02 788,-232.15 796.54,-234.32"/>
<polygon fill="#63b8ff" stroke="#63b8ff" points="795.49,-237.67 806.05,-236.8 797.26,-230.89 795.49,-237.67"/>
</a>
</g>
</g>
<!-- Node17 -->
<g id="Node000017" class="node">
<title>Node17</title>
<g id="a_Node000017"><a xlink:href="flash__priv_8c.html#a9cee4cff22669c0a2913f0f490d5628c" target="_top" xlink:title=" ">
<polygon fill="white" stroke="#666666" points="602.5,-154.88 490.5,-154.88 490.5,-135.62 602.5,-135.62 602.5,-154.88"/>
<text text-anchor="middle" x="546.5" y="-141.38" font-family="Helvetica,sans-Serif" font-size="10.00">flash_banks_swapped</text>
</a>
</g>
</g>
<!-- Node16&#45;&gt;Node17 -->
<g id="edge20_Node000016_Node000017" class="edge">
<title>Node16&#45;&gt;Node17</title>
<g id="a_edge20_Node000016_Node000017"><a xlink:title=" ">
<path fill="none" stroke="#63b8ff" d="M440.28,-156.96C452.88,-155.56 466.09,-154.09 478.73,-152.68"/>
<polygon fill="#63b8ff" stroke="#63b8ff" points="479.09,-156.16 488.64,-151.58 478.31,-149.2 479.09,-156.16"/>
</a>
</g>
</g>
<!-- Node18 -->
<g id="Node000018" class="node">
<title>Node18</title>
<g id="a_Node000018"><a xlink:href="flash__priv_8c.html#a8d13aaf00ddc306902761486dc0291ec" target="_top" xlink:title=" ">
<polygon fill="white" stroke="#666666" points="769.62,-95.88 644.88,-95.88 644.88,-76.62 769.62,-76.62 769.62,-95.88"/>
<text text-anchor="middle" x="707.25" y="-82.38" font-family="Helvetica,sans-Serif" font-size="10.00">flash_dual_bank_enabled</text>
</a>
</g>
</g>
<!-- Node16&#45;&gt;Node18 -->
<g id="edge22_Node000016_Node000018" class="edge">
<title>Node16&#45;&gt;Node18</title>
<g id="a_edge22_Node000016_Node000018"><a xlink:title=" ">
<path fill="none" stroke="#63b8ff" d="M400.31,-154.22C422.49,-145.81 455.61,-133.98 485.25,-126.25 534.08,-113.51 590.03,-103.43 633.42,-96.57"/>
<polygon fill="#63b8ff" stroke="#63b8ff" points="633.89,-100.04 643.24,-95.05 632.82,-93.13 633.89,-100.04"/>
</a>
</g>
</g>
<!-- Node16&#45;&gt;Node19 -->
<g id="edge24_Node000016_Node000019" class="edge">
<title>Node16&#45;&gt;Node19</title>
<g id="a_edge24_Node000016_Node000019"><a xlink:title=" ">
<path fill="none" stroke="#63b8ff" d="M399.59,-154.14C414.59,-147.51 433.73,-138.07 449.25,-127.25 467.3,-114.66 467.12,-105.73 485.25,-93.25 489.34,-90.43 493.75,-87.75 498.25,-85.23"/>
<polygon fill="#63b8ff" stroke="#63b8ff" points="499.62,-88.47 506.83,-80.7 496.36,-82.27 499.62,-88.47"/>
</a>
</g>
</g>
<!-- Node20 -->
<g id="Node000020" class="node">
<title>Node20</title>
<g id="a_Node000020"><a xlink:href="flash__priv_8c.html#af211a09d69bec5e86a7f4f46e2e49fbf" target="_top" xlink:title="Read the device&#45;reported internal flash capacity.">
<polygon fill="white" stroke="#666666" points="605.88,-30.5 487.12,-30.5 487.12,0 605.88,0 605.88,-30.5"/>
<text text-anchor="start" x="495.12" y="-17" font-family="Helvetica,sans-Serif" font-size="10.00">FLASH_PRIV_get_size</text>
<text text-anchor="middle" x="546.5" y="-5.75" font-family="Helvetica,sans-Serif" font-size="10.00">_bytes</text>
</a>
</g>
</g>
<!-- Node16&#45;&gt;Node20 -->
<g id="edge26_Node000016_Node000020" class="edge">
<title>Node16&#45;&gt;Node20</title>
<g id="a_edge26_Node000016_Node000020"><a xlink:title=" ">
<path fill="none" stroke="#63b8ff" d="M381.32,-154.19C396.83,-131.12 438.01,-73.84 485.25,-40.25 487.24,-38.84 489.32,-37.48 491.46,-36.19"/>
<polygon fill="#63b8ff" stroke="#63b8ff" points="492.71,-39.49 499.83,-31.64 489.37,-33.35 492.71,-39.49"/>
</a>
</g>
</g>
<!-- Node21 -->
<g id="Node000021" class="node">
<title>Node21</title>
<g id="a_Node000021"><a xlink:href="flash__priv_8c.html#a5d839db8c7942bcb1b129a9e4fadb5c3" target="_top" xlink:title=" ">
<polygon fill="white" stroke="#666666" points="595,-241.5 498,-241.5 498,-211 595,-211 595,-241.5"/>
<text text-anchor="start" x="506" y="-228" font-family="Helvetica,sans-Serif" font-size="10.00">flash_wait_for_last</text>
<text text-anchor="middle" x="546.5" y="-216.75" font-family="Helvetica,sans-Serif" font-size="10.00">_operation</text>
</a>
</g>
</g>
<!-- Node16&#45;&gt;Node21 -->
<g id="edge27_Node000016_Node000021" class="edge">
<title>Node16&#45;&gt;Node21</title>
<g id="a_edge27_Node000016_Node000021"><a xlink:title=" ">
<path fill="none" stroke="#63b8ff" d="M402.56,-174.35C426.63,-183.09 462.13,-195.98 491.73,-206.73"/>
<polygon fill="#63b8ff" stroke="#63b8ff" points="490.32,-209.94 500.91,-210.06 492.71,-203.36 490.32,-209.94"/>
</a>
</g>
</g>
<!-- Node19&#45;&gt;Node18 -->
<g id="edge25_Node000019_Node000018" class="edge">
<title>Node19&#45;&gt;Node18</title>
<g id="a_edge25_Node000019_Node000018"><a xlink:title=" ">
<path fill="none" stroke="#63b8ff" d="M607.97,-72.63C616.32,-73.79 624.96,-74.98 633.5,-76.17"/>
<polygon fill="#63b8ff" stroke="#63b8ff" points="632.75,-79.6 643.13,-77.5 633.71,-72.66 632.75,-79.6"/>
</a>
</g>
</g>
<!-- Node21&#45;&gt;Node12 -->
<g id="edge28_Node000021_Node000012" class="edge">
<title>Node21&#45;&gt;Node12</title>
<g id="a_edge28_Node000021_Node000012"><a xlink:title=" ">
<path fill="none" stroke="#63b8ff" d="M595.13,-232.55C606.86,-234.1 619.69,-235.8 632.34,-237.47"/>
<polygon fill="#63b8ff" stroke="#63b8ff" points="631.5,-240.89 641.87,-238.73 632.41,-233.95 631.5,-240.89"/>
</a>
</g>
</g>
<!-- Node22&#45;&gt;Node20 -->
<g id="edge31_Node000022_Node000020" class="edge">
<title>Node22&#45;&gt;Node20</title>
<g id="a_edge31_Node000022_Node000020"><a xlink:title=" ">
<path fill="none" stroke="#63b8ff" d="M425.98,-38.35C441.69,-35.31 459.26,-31.92 475.98,-28.69"/>
<polygon fill="#63b8ff" stroke="#63b8ff" points="476.17,-32.21 485.33,-26.88 474.85,-25.34 476.17,-32.21"/>
</a>
</g>
</g>
</g>
</svg>

<g id="navigator" transform="translate(0 0)" fill="#404254">
  <rect fill="#f2f5e9" fill-opacity="0.5" stroke="#606060" stroke-width=".5" x="0" y="0" width="60" height="60"/>
  <use id="zoomplus" xlink:href="#zoomPlus" x="17" y="9" onmousedown="handleZoom(evt,'in')"/>
  <use id="zoomminus" xlink:href="#zoomMin" x="42" y="9" onmousedown="handleZoom(evt,'out')"/>
  <use id="reset" xlink:href="#resetDef" x="30" y="36" onmousedown="handleReset()"/>
   <use id="arrowup" xlink:href="#arrowUp" x="0" y="0" onmousedown="handlePan(0,-1)"/>
  <use id="arrowright" xlink:href="#arrowRight" x="0" y="0" onmousedown="handlePan(1,0)"/>
  <use id="arrowdown" xlink:href="#arrowDown" x="0" y="0" onmousedown="handlePan(0,1)"/>
  <use id="arrowleft" xlink:href="#arrowLeft" x="0" y="0" onmousedown="handlePan(-1,0)"/>
</g>
<svg viewBox="0 0 15 15" width="100%" height="30px" preserveAspectRatio="xMaxYMin meet">
 <g id="arrow_out" transform="scale(0.3 0.3)">
  <a xlink:href="bootloader_8c_a3c02683280523e18e3a1093eb4dac971_cgraph_org.svg" target="_base">
   <rect id="button" ry="5" rx="5" y="6" x="6" height="38" width="38"
        fill="#f2f5e9" fill-opacity="0.5" stroke="#606060" stroke-width="1.0"/>
   <path id="arrow"
     d="M 11.500037,31.436501 C 11.940474,20.09759 22.043105,11.32322 32.158766,21.979434 L 37.068811,17.246167 C 37.068811,17.246167 37.088388,32 37.088388,32 L 22.160133,31.978069 C 22.160133,31.978069 26.997745,27.140456 26.997745,27.140456 C 18.528582,18.264221 13.291696,25.230495 11.500037,31.436501 z"
     style="fill:#404040;"/>
  </a>
 </g>
</svg>

<style type='text/css'>
<![CDATA[
[data-mouse-over-selected='false'] { opacity: 0.7; }
[data-mouse-over-selected='true']  { opacity: 1.0; }
]]>
</style>
<script type="application/ecmascript"><![CDATA[
document.addEventListener('DOMContentLoaded', (event) => {
  highlightEdges();
  highlightAdjacentNodes();
});
]]></script>
</svg>
