<?xml version="1.0" encoding="UTF-8" standalone="no"?>
<!DOCTYPE svg PUBLIC "-//W3C//DTD SVG 1.1//EN"
 "http://www.w3.org/Graphics/SVG/1.1/DTD/svg11.dtd">
<!-- Generated by graphviz version 12.2.0 (20241103.1931)
 -->
<!-- Title: PHAL_DMA_priv_disableChannel Pages: 1 -->
<!--zoomable 532 -->

<svg id="main" version="1.1" xmlns="http://www.w3.org/2000/svg" xmlns:xlink="http://www.w3.org/1999/xlink" xml:space="preserve" onload="init(evt)">

<style type="text/css"><![CDATA[
.node, .edge {opacity: 0.7;}
.node.selected, .edge.selected {opacity: 1;}
.edge:hover path { stroke: red; }
.edge:hover polygon { stroke: red; fill: red; }
]]></style>

<defs>
  <circle id="rim" cx="0" cy="0" r="7"/>
  <circle id="rim2" cx="0" cy="0" r="3.5"/>
  <g id="zoomPlus">
    <use xlink:href="#rim" fill="#404040"><set attributeName="fill" to="#808080" begin="zoomplus.mouseover" end="zoomplus.mouseout"/></use>
    <path d="M-4,0h8M0,-4v8" fill="none" stroke="white" stroke-width="1.5" pointer-events="none"/>
  </g>
  <g id="zoomMin">
    <use xlink:href="#rim" fill="#404040"><set attributeName="fill" to="#808080" begin="zoomminus.mouseover" end="zoomminus.mouseout"/></use>
    <path d="M-4,0h8" fill="none" stroke="white" stroke-width="1.5" pointer-events="none"/>
  </g>
  <g id="arrowUp" transform="translate(30 24)">
    <use xlink:href="#rim"/>
    <path pointer-events="none" fill="none" stroke="white" stroke-width="1.5" d="M0,-3.0v7 M-2.5,-0.5L0,-3.0L2.5,-0.5"/>
  </g>
  <g id="arrowRight" transform="rotate(90) translate(36 -43)">
    <use xlink:href="#rim"/>
    <path pointer-events="none" fill="none" stroke="white" stroke-width="1.5" d="M0,-3.0v7 M-2.5,-0.5L0,-3.0L2.5,-0.5"/>
  </g>
  <g id="arrowDown" transform="rotate(180) translate(-30 -48)">
    <use xlink:href="#rim"/>
    <path pointer-events="none" fill="none" stroke="white" stroke-width="1.5" d="M0,-3.0v7 M-2.5,-0.5L0,-3.0L2.5,-0.5"/>
  </g>
  <g id="arrowLeft" transform="rotate(270) translate(-36 17)">
    <use xlink:href="#rim"/>
    <path pointer-events="none" fill="none" stroke="white" stroke-width="1.5" d="M0,-3.0v7 M-2.5,-0.5L0,-3.0L2.5,-0.5"/>
  </g>
  <g id="resetDef">
    <use xlink:href="#rim2" fill="#404040"><set attributeName="fill" to="#808080" begin="reset.mouseover" end="reset.mouseout"/></use>
  </g>
</defs>
<script type="application/ecmascript">
var viewWidth = 1051;
var viewHeight = 532;
var sectionId = 'dynsection-6';
</script>
<script type="application/ecmascript" xlink:href="svg.min.js"/>
<svg id="graph" class="graph">
<g id="viewport">
<title>PHAL_DMA_priv_disableChannel</title>
<!-- Node1 -->
<g id="Node000001" class="node">
<title>Node1</title>
<g id="a_Node000001"><a xlink:title="Disable a channel and block until hardware confirms it is off.">
<polygon fill="#999999" stroke="#666666" points="1042.75,-299.9 880.5,-299.9 880.5,-280.65 1042.75,-280.65 1042.75,-299.9"/>
<text text-anchor="middle" x="961.62" y="-286.4" font-family="Helvetica,sans-Serif" font-size="10.00">PHAL_DMA_priv_disableChannel</text>
</a>
</g>
</g>
<!-- Node2 -->
<g id="Node000002" class="node">
<title>Node2</title>
<g id="a_Node000002"><a xlink:href="phal__G4_2dma_2dma_8c.html#a6f4a9683baae2eb24b6b4a9ccc05da2b" target="_top" xlink:title="Disable the channel and release its claim/handle so another handle can use the periph/channel_idx aft...">
<polygon fill="white" stroke="#666666" points="842.25,-356.9 743.75,-356.9 743.75,-337.65 842.25,-337.65 842.25,-356.9"/>
<text text-anchor="middle" x="793" y="-343.4" font-family="Helvetica,sans-Serif" font-size="10.00">PHAL_DMA_deinit</text>
</a>
</g>
</g>
<!-- Node1&#45;&gt;Node2 -->
<g id="edge1_Node000001_Node000002" class="edge">
<title>Node1&#45;&gt;Node2</title>
<g id="a_edge1_Node000001_Node000002"><a xlink:title=" ">
<path fill="none" stroke="#63b8ff" d="M920.7,-303.93C890.75,-314.18 850.43,-327.97 823.39,-337.22"/>
<polygon fill="#63b8ff" stroke="#63b8ff" points="921.46,-307.37 929.79,-300.83 919.19,-300.75 921.46,-307.37"/>
</a>
</g>
</g>
<!-- Node3 -->
<g id="Node000003" class="node">
<title>Node3</title>
<g id="a_Node000003"><a xlink:href="phal__G4_2dma_2dma_8c.html#a44be3f4d5e3f90d9fa73d1b808185d53" target="_top" xlink:title="Claim a DMA channel and configure it from handle&#45;&gt;wiring and handle&#45;&gt;params.">
<polygon fill="white" stroke="#666666" points="663.88,-485.9 575.88,-485.9 575.88,-466.65 663.88,-466.65 663.88,-485.9"/>
<text text-anchor="middle" x="619.88" y="-472.4" font-family="Helvetica,sans-Serif" font-size="10.00">PHAL_DMA_init</text>
</a>
</g>
</g>
<!-- Node1&#45;&gt;Node3 -->
<g id="edge2_Node000001_Node000003" class="edge">
<title>Node1&#45;&gt;Node3</title>
<g id="a_edge2_Node000001_Node000003"><a xlink:title=" ">
<path fill="none" stroke="#63b8ff" d="M868.9,-289.9C827.13,-293.63 778.81,-303.75 741.5,-328.28 717.09,-344.32 723.39,-360.18 705.5,-383.28 680.77,-415.21 647.59,-449.56 631.09,-466.15"/>
<polygon fill="#63b8ff" stroke="#63b8ff" points="869,-293.41 878.7,-289.15 868.46,-286.43 869,-293.41"/>
</a>
</g>
</g>
<!-- Node10 -->
<g id="Node000010" class="node">
<title>Node10</title>
<g id="a_Node000010"><a xlink:href="phal__G4_2dma_2dma_8c.html#a6f7660cdfc7790e503aedb99a5e2f126" target="_top" xlink:title="Reload the transfer count from handle&#45;&gt;params.tx_size and start again.">
<polygon fill="white" stroke="#666666" points="844.5,-280.9 741.5,-280.9 741.5,-261.65 844.5,-261.65 844.5,-280.9"/>
<text text-anchor="middle" x="793" y="-267.4" font-family="Helvetica,sans-Serif" font-size="10.00">PHAL_DMA_restart</text>
</a>
</g>
</g>
<!-- Node1&#45;&gt;Node10 -->
<g id="edge11_Node000001_Node000010" class="edge">
<title>Node1&#45;&gt;Node10</title>
<g id="a_edge11_Node000001_Node000010"><a xlink:title=" ">
<path fill="none" stroke="#63b8ff" d="M868.86,-279.81C860.54,-278.86 852.33,-277.93 844.58,-277.04"/>
<polygon fill="#63b8ff" stroke="#63b8ff" points="868.4,-283.28 878.74,-280.94 869.2,-276.33 868.4,-283.28"/>
</a>
</g>
</g>
<!-- Node25 -->
<g id="Node000025" class="node">
<title>Node25</title>
<g id="a_Node000025"><a xlink:href="phal__G4_2dma_2dma_8c.html#a9dd2eb889d9017f8a9512b08a21a15c8" target="_top" xlink:title="Disable the channel, stopping the transfer immediately.">
<polygon fill="white" stroke="#666666" points="840,-243.9 746,-243.9 746,-224.65 840,-224.65 840,-243.9"/>
<text text-anchor="middle" x="793" y="-230.4" font-family="Helvetica,sans-Serif" font-size="10.00">PHAL_DMA_stop</text>
</a>
</g>
</g>
<!-- Node1&#45;&gt;Node25 -->
<g id="edge28_Node000001_Node000025" class="edge">
<title>Node1&#45;&gt;Node25</title>
<g id="a_edge28_Node000001_Node000025"><a xlink:title=" ">
<path fill="none" stroke="#63b8ff" d="M920.02,-276.63C890.4,-266.67 850.92,-253.41 824.09,-244.39"/>
<polygon fill="#63b8ff" stroke="#63b8ff" points="918.81,-279.91 929.4,-279.78 921.04,-273.28 918.81,-279.91"/>
</a>
</g>
</g>
<!-- Node4 -->
<g id="Node000004" class="node">
<title>Node4</title>
<g id="a_Node000004"><a xlink:href="phal__G4_2dma_2dma_8c.html#a113bf99c3b1cc73c92d466d94ea88dad" target="_top" xlink:title="Setup DMA callback then call PHAL_DMA_init()">
<polygon fill="white" stroke="#666666" points="498.25,-504.9 353.25,-504.9 353.25,-485.65 498.25,-485.65 498.25,-504.9"/>
<text text-anchor="middle" x="425.75" y="-491.4" font-family="Helvetica,sans-Serif" font-size="10.00">PHAL_DMA_initWithCallback</text>
</a>
</g>
</g>
<!-- Node3&#45;&gt;Node4 -->
<g id="edge3_Node000003_Node000004" class="edge">
<title>Node3&#45;&gt;Node4</title>
<g id="a_edge3_Node000003_Node000004"><a xlink:title=" ">
<path fill="none" stroke="#63b8ff" d="M564.4,-481.66C543.88,-483.69 520.23,-486.03 498.38,-488.19"/>
<polygon fill="#63b8ff" stroke="#63b8ff" points="564.65,-485.16 574.25,-480.69 563.96,-478.19 564.65,-485.16"/>
</a>
</g>
</g>
<!-- Node7 -->
<g id="Node000007" class="node">
<title>Node7</title>
<g id="a_Node000007"><a xlink:href="phal__G4_2spi_2spi_8c.html#a0a4524eb6715f19d2d2128ad7f410269" target="_top" xlink:title="Initilize SPI peripheral with the configuired structure.">
<polygon fill="white" stroke="#666666" points="297.75,-523.9 215,-523.9 215,-504.65 297.75,-504.65 297.75,-523.9"/>
<text text-anchor="middle" x="256.38" y="-510.4" font-family="Helvetica,sans-Serif" font-size="10.00">PHAL_SPI_init</text>
</a>
</g>
</g>
<!-- Node3&#45;&gt;Node7 -->
<g id="edge9_Node000003_Node000007" class="edge">
<title>Node3&#45;&gt;Node7</title>
<g id="a_edge9_Node000003_Node000007"><a xlink:title=" ">
<path fill="none" stroke="#63b8ff" d="M583.87,-490.43C560.15,-499.24 527.85,-509.72 498.25,-514.28 428.6,-524.99 346.29,-521.6 298.15,-518.03"/>
<polygon fill="#63b8ff" stroke="#63b8ff" points="584.94,-493.77 593.04,-486.94 582.45,-487.23 584.94,-493.77"/>
</a>
</g>
</g>
<!-- Node8 -->
<g id="Node000008" class="node">
<title>Node8</title>
<g id="a_Node000008"><a xlink:href="phal__G4_2usart_2usart_8c.html#a6a2d7bc858fa90a11e983e615fde1f7c" target="_top" xlink:title="Initialize a USART peripheral for DMA&#45;driven communication.">
<polygon fill="white" stroke="#666666" points="306.38,-364.9 206.38,-364.9 206.38,-345.65 306.38,-345.65 306.38,-364.9"/>
<text text-anchor="middle" x="256.38" y="-351.4" font-family="Helvetica,sans-Serif" font-size="10.00">PHAL_USART_init</text>
</a>
</g>
</g>
<!-- Node3&#45;&gt;Node8 -->
<g id="edge10_Node000003_Node000008" class="edge">
<title>Node3&#45;&gt;Node8</title>
<g id="a_edge10_Node000003_Node000008"><a xlink:title=" ">
<path fill="none" stroke="#63b8ff" d="M564.04,-477.31C508.5,-476.36 421.31,-469.31 353.25,-438.28 314.99,-420.83 280.45,-383.21 265.38,-365.24"/>
<polygon fill="#63b8ff" stroke="#63b8ff" points="563.85,-480.81 573.88,-477.41 563.92,-473.81 563.85,-480.81"/>
</a>
</g>
</g>
<!-- Node5 -->
<g id="Node000005" class="node">
<title>Node5</title>
<g id="a_Node000005"><a xlink:href="phal__G4_2adc_2adc_8c.html#adf65563b732ce6a236058dc45a5c04a1" target="_top" xlink:title="Configure an ADC instance and its DMA channel.">
<polygon fill="white" stroke="#666666" points="159.5,-132.9 73,-132.9 73,-113.65 159.5,-113.65 159.5,-132.9"/>
<text text-anchor="middle" x="116.25" y="-119.4" font-family="Helvetica,sans-Serif" font-size="10.00">PHAL_ADC_init</text>
</a>
</g>
</g>
<!-- Node4&#45;&gt;Node5 -->
<g id="edge4_Node000004_Node000005" class="edge">
<title>Node4&#45;&gt;Node5</title>
<g id="a_edge4_Node000004_Node000005"><a xlink:title=" ">
<path fill="none" stroke="#63b8ff" d="M374.27,-481.93C321.72,-465.41 240.9,-432.11 195.5,-374.28 164.22,-334.42 128.35,-174.93 119.37,-133.27"/>
<polygon fill="#63b8ff" stroke="#63b8ff" points="372.99,-485.2 383.58,-484.77 375.03,-478.51 372.99,-485.2"/>
</a>
</g>
</g>
<!-- Node4&#45;&gt;Node7 -->
<g id="edge6_Node000004_Node000007" class="edge">
<title>Node4&#45;&gt;Node7</title>
<g id="a_edge6_Node000004_Node000007"><a xlink:title=" ">
<path fill="none" stroke="#63b8ff" d="M341.73,-504.7C326.48,-506.43 311.2,-508.17 297.92,-509.67"/>
<polygon fill="#63b8ff" stroke="#63b8ff" points="341.75,-508.22 351.29,-503.62 340.96,-501.27 341.75,-508.22"/>
</a>
</g>
</g>
<!-- Node4&#45;&gt;Node8 -->
<g id="edge7_Node000004_Node000008" class="edge">
<title>Node4&#45;&gt;Node8</title>
<g id="a_edge7_Node000004_Node000008"><a xlink:title=" ">
<path fill="none" stroke="#63b8ff" d="M371.78,-481.27C365.26,-478.47 358.92,-475.17 353.25,-471.28 331.07,-456.04 282.5,-390.21 264.38,-365.08"/>
<polygon fill="#63b8ff" stroke="#63b8ff" points="370.07,-484.36 380.66,-484.71 372.6,-477.84 370.07,-484.36"/>
</a>
</g>
</g>
<!-- Node6 -->
<g id="Node000006" class="node">
<title>Node6</title>
<g id="a_Node000006"><a xlink:href="a__box_2main_8c.html#a840291bc02cba5474a4cb46a9b9566fe" target="_top" xlink:title=" ">
<polygon fill="white" stroke="#666666" points="37,-76.9 0,-76.9 0,-57.65 37,-57.65 37,-76.9"/>
<text text-anchor="middle" x="18.5" y="-63.4" font-family="Helvetica,sans-Serif" font-size="10.00">main</text>
</a>
</g>
</g>
<!-- Node5&#45;&gt;Node6 -->
<g id="edge5_Node000005_Node000006" class="edge">
<title>Node5&#45;&gt;Node6</title>
<g id="a_edge5_Node000005_Node000006"><a xlink:title=" ">
<path fill="none" stroke="#63b8ff" d="M88.47,-107.61C71.93,-97.94 51.19,-85.81 36.79,-77.39"/>
<polygon fill="#63b8ff" stroke="#63b8ff" points="86.43,-110.47 96.83,-112.5 89.96,-104.43 86.43,-110.47"/>
</a>
</g>
</g>
<!-- Node9 -->
<g id="Node000009" class="node">
<title>Node9</title>
<g id="a_Node000009"><a xlink:href="dashboard_2main_8c.html#a840291bc02cba5474a4cb46a9b9566fe" target="_top" xlink:title=" ">
<polygon fill="white" stroke="#666666" points="134.75,-340.9 97.75,-340.9 97.75,-321.65 134.75,-321.65 134.75,-340.9"/>
<text text-anchor="middle" x="116.25" y="-327.4" font-family="Helvetica,sans-Serif" font-size="10.00">main</text>
</a>
</g>
</g>
<!-- Node8&#45;&gt;Node9 -->
<g id="edge8_Node000008_Node000009" class="edge">
<title>Node8&#45;&gt;Node9</title>
<g id="a_edge8_Node000008_Node000009"><a xlink:title=" ">
<path fill="none" stroke="#63b8ff" d="M194.74,-344.74C173.13,-340.99 150.4,-337.04 135.18,-334.39"/>
<polygon fill="#63b8ff" stroke="#63b8ff" points="193.96,-348.16 204.41,-346.42 195.15,-341.26 193.96,-348.16"/>
</a>
</g>
</g>
<!-- Node11 -->
<g id="Node000011" class="node">
<title>Node11</title>
<g id="a_Node000011"><a xlink:href="phal__G4_2adc_2adc_8c.html#a429677cda7cd755ee9c4148b73159e76" target="_top" xlink:title="Start an asynchronous circular&#45;DMA conversion into buffer">
<polygon fill="white" stroke="#666666" points="677,-95.9 562.75,-95.9 562.75,-76.65 677,-76.65 677,-95.9"/>
<text text-anchor="middle" x="619.88" y="-82.4" font-family="Helvetica,sans-Serif" font-size="10.00">PHAL_ADC_readDMA</text>
</a>
</g>
</g>
<!-- Node10&#45;&gt;Node11 -->
<g id="edge12_Node000010_Node000011" class="edge">
<title>Node10&#45;&gt;Node11</title>
<g id="a_edge12_Node000010_Node000011"><a xlink:title=" ">
<path fill="none" stroke="#63b8ff" d="M742.6,-254.44C742.23,-254.06 741.86,-253.67 741.5,-253.28 695.93,-202.63 754.33,-151.78 705.5,-104.28 697.75,-96.74 687.66,-92.01 677.17,-89.12"/>
<polygon fill="#63b8ff" stroke="#63b8ff" points="740.29,-257.09 750.38,-260.32 744.51,-251.5 740.29,-257.09"/>
</a>
</g>
</g>
<!-- Node13 -->
<g id="Node000013" class="node">
<title>Node13</title>
<g id="a_Node000013"><a xlink:href="phal__G4_2spi_2spi_8c.html#a9af893d97bde29796f60bc6df9b05fd0" target="_top" xlink:title="Start a DMA&#45;backed SPI transfer.">
<polygon fill="white" stroke="#666666" points="671.38,-317.9 568.38,-317.9 568.38,-298.65 671.38,-298.65 671.38,-317.9"/>
<text text-anchor="middle" x="619.88" y="-304.4" font-family="Helvetica,sans-Serif" font-size="10.00">PHAL_SPI_transfer</text>
</a>
</g>
</g>
<!-- Node10&#45;&gt;Node13 -->
<g id="edge15_Node000010_Node000013" class="edge">
<title>Node10&#45;&gt;Node13</title>
<g id="a_edge15_Node000010_Node000013"><a xlink:title=" ">
<path fill="none" stroke="#63b8ff" d="M735.22,-283.81C725.31,-285.97 715.11,-288.2 705.5,-290.28 693.46,-292.88 680.45,-295.66 668.33,-298.24"/>
<polygon fill="#63b8ff" stroke="#63b8ff" points="735.73,-287.28 744.74,-281.72 734.23,-280.44 735.73,-287.28"/>
</a>
</g>
</g>
<!-- Node14 -->
<g id="Node000014" class="node">
<title>Node14</title>
<g id="a_Node000014"><a xlink:href="phal__G4_2usart_2usart_8c.html#a0e754ee2f497cea8b6df31d13e5e1365" target="_top" xlink:title="Start a DMA&#45;based reception, completed on the IDLE line.">
<polygon fill="white" stroke="#666666" points="667.25,-373.9 572.5,-373.9 572.5,-354.65 667.25,-354.65 667.25,-373.9"/>
<text text-anchor="middle" x="619.88" y="-360.4" font-family="Helvetica,sans-Serif" font-size="10.00">PHAL_USART_rx</text>
</a>
</g>
</g>
<!-- Node10&#45;&gt;Node14 -->
<g id="edge16_Node000010_Node000014" class="edge">
<title>Node10&#45;&gt;Node14</title>
<g id="a_edge16_Node000010_Node000014"><a xlink:title=" ">
<path fill="none" stroke="#63b8ff" d="M757.15,-286.24C751.77,-289 746.38,-292.04 741.5,-295.28 723.65,-307.1 723.53,-315.74 705.5,-327.28 688.08,-338.43 666.73,-347.74 649.83,-354.23"/>
<polygon fill="#63b8ff" stroke="#63b8ff" points="758.52,-289.46 765.99,-281.96 755.47,-283.16 758.52,-289.46"/>
</a>
</g>
</g>
<!-- Node17 -->
<g id="Node000017" class="node">
<title>Node17</title>
<g id="a_Node000017"><a xlink:href="phal__G4_2usart_2usart_8c.html#a8ebdece2db12916cdbf6bc22f9ae52de" target="_top" xlink:title="Start a DMA&#45;based transmission.">
<polygon fill="white" stroke="#666666" points="667.25,-243.9 572.5,-243.9 572.5,-224.65 667.25,-224.65 667.25,-243.9"/>
<text text-anchor="middle" x="619.88" y="-230.4" font-family="Helvetica,sans-Serif" font-size="10.00">PHAL_USART_tx</text>
</a>
</g>
</g>
<!-- Node10&#45;&gt;Node17 -->
<g id="edge19_Node000010_Node000017" class="edge">
<title>Node10&#45;&gt;Node17</title>
<g id="a_edge19_Node000010_Node000017"><a xlink:title=" ">
<path fill="none" stroke="#63b8ff" d="M735.22,-258.75C725.31,-256.58 715.11,-254.35 705.5,-252.28 693.17,-249.61 679.82,-246.76 667.44,-244.12"/>
<polygon fill="#63b8ff" stroke="#63b8ff" points="734.23,-262.11 744.74,-260.84 735.73,-255.28 734.23,-262.11"/>
</a>
</g>
</g>
<!-- Node21 -->
<g id="Node000021" class="node">
<title>Node21</title>
<g id="a_Node000021"><a xlink:href="phal__G4_2usart_2usart_8c.html#a2d95d4283889fd97f020c1cbe8cb4b00" target="_top" xlink:title=" ">
<polygon fill="white" stroke="#666666" points="663.5,-280.9 576.25,-280.9 576.25,-261.65 663.5,-261.65 663.5,-280.9"/>
<text text-anchor="middle" x="619.88" y="-267.4" font-family="Helvetica,sans-Serif" font-size="10.00">usart_handle_irq</text>
</a>
</g>
</g>
<!-- Node10&#45;&gt;Node21 -->
<g id="edge24_Node000010_Node000021" class="edge">
<title>Node10&#45;&gt;Node21</title>
<g id="a_edge24_Node000010_Node000021"><a xlink:title=" ">
<path fill="none" stroke="#63b8ff" d="M729.88,-271.28C707.93,-271.28 683.76,-271.28 663.76,-271.28"/>
<polygon fill="#63b8ff" stroke="#63b8ff" points="729.61,-274.78 739.61,-271.28 729.61,-267.78 729.61,-274.78"/>
</a>
</g>
</g>
<!-- Node11&#45;&gt;Node6 -->
<g id="edge13_Node000011_Node000006" class="edge">
<title>Node11&#45;&gt;Node6</title>
<g id="a_edge13_Node000011_Node000006"><a xlink:title=" ">
<path fill="none" stroke="#63b8ff" d="M551.54,-75.92C545.51,-73.83 539.65,-71.31 534.25,-68.28 513.96,-56.9 519.62,-39.47 498.25,-30.28 331.69,41.37 102.57,-35.44 37.43,-60.16"/>
<polygon fill="#63b8ff" stroke="#63b8ff" points="550.48,-79.26 561.07,-78.82 552.52,-72.56 550.48,-79.26"/>
</a>
</g>
</g>
<!-- Node12 -->
<g id="Node000012" class="node">
<title>Node12</title>
<g id="a_Node000012"><a xlink:href="phal__G4_2adc_2adc_8c.html#a182c3e08bcff1970109448d9c24cb39c" target="_top" xlink:title="Synchronous one&#45;buffer conversion using the DMA engine.">
<polygon fill="white" stroke="#666666" points="490.75,-58.9 360.75,-58.9 360.75,-39.65 490.75,-39.65 490.75,-58.9"/>
<text text-anchor="middle" x="425.75" y="-45.4" font-family="Helvetica,sans-Serif" font-size="10.00">PHAL_ADC_readBlocking</text>
</a>
</g>
</g>
<!-- Node11&#45;&gt;Node12 -->
<g id="edge14_Node000011_Node000012" class="edge">
<title>Node11&#45;&gt;Node12</title>
<g id="a_edge14_Node000011_Node000012"><a xlink:title=" ">
<path fill="none" stroke="#63b8ff" d="M555.29,-74.03C530.61,-69.28 502.69,-63.9 479.19,-59.37"/>
<polygon fill="#63b8ff" stroke="#63b8ff" points="554.41,-77.43 564.89,-75.88 555.73,-70.55 554.41,-77.43"/>
</a>
</g>
</g>
<!-- Node15 -->
<g id="Node000015" class="node">
<title>Node15</title>
<g id="a_Node000015"><a xlink:href="torque__vector_2main_8c.html#a840291bc02cba5474a4cb46a9b9566fe" target="_top" xlink:title=" ">
<polygon fill="white" stroke="#666666" points="444.25,-428.9 407.25,-428.9 407.25,-409.65 444.25,-409.65 444.25,-428.9"/>
<text text-anchor="middle" x="425.75" y="-415.4" font-family="Helvetica,sans-Serif" font-size="10.00">main</text>
</a>
</g>
</g>
<!-- Node14&#45;&gt;Node15 -->
<g id="edge17_Node000014_Node000015" class="edge">
<title>Node14&#45;&gt;Node15</title>
<g id="a_edge17_Node000014_Node000015"><a xlink:title=" ">
<path fill="none" stroke="#63b8ff" d="M576.7,-377.79C553.62,-385.04 524.45,-393.97 498.25,-401.28 480.13,-406.33 459.24,-411.52 444.74,-415.02"/>
<polygon fill="#63b8ff" stroke="#63b8ff" points="577.58,-381.18 586.07,-374.83 575.48,-374.51 577.58,-381.18"/>
</a>
</g>
</g>
<!-- Node16 -->
<g id="Node000016" class="node">
<title>Node16</title>
<g id="a_Node000016"><a xlink:href="phal__G4_2usart_2usart_8c.html#ad68b1ee17b4dc08e9070bf93e9f20e00" target="_top" xlink:title="Receive data, blocking until a one&#45;shot reception completes.">
<polygon fill="white" stroke="#666666" points="491.88,-391.9 359.62,-391.9 359.62,-372.65 491.88,-372.65 491.88,-391.9"/>
<text text-anchor="middle" x="425.75" y="-378.4" font-family="Helvetica,sans-Serif" font-size="10.00">PHAL_USART_rxBlocking</text>
</a>
</g>
</g>
<!-- Node14&#45;&gt;Node16 -->
<g id="edge18_Node000014_Node000016" class="edge">
<title>Node14&#45;&gt;Node16</title>
<g id="a_edge18_Node000014_Node000016"><a xlink:title=" ">
<path fill="none" stroke="#63b8ff" d="M560.99,-369.7C539.26,-371.74 514.42,-374.06 492.07,-376.16"/>
<polygon fill="#63b8ff" stroke="#63b8ff" points="561.23,-373.19 570.86,-368.78 560.58,-366.22 561.23,-373.19"/>
</a>
</g>
</g>
<!-- Node18 -->
<g id="Node000018" class="node">
<title>Node18</title>
<g id="a_Node000018"><a xlink:href="lcd_8c.html#ab1da20573be93be73a9d5e72e133b7e9" target="_top" xlink:title="Called periodically to send commands to the Nextion LCD display via USART.">
<polygon fill="white" stroke="#666666" points="467.12,-206.9 384.38,-206.9 384.38,-187.65 467.12,-187.65 467.12,-206.9"/>
<text text-anchor="middle" x="425.75" y="-193.4" font-family="Helvetica,sans-Serif" font-size="10.00">LCD_tx_update</text>
</a>
</g>
</g>
<!-- Node17&#45;&gt;Node18 -->
<g id="edge20_Node000017_Node000018" class="edge">
<title>Node17&#45;&gt;Node18</title>
<g id="a_edge20_Node000017_Node000018"><a xlink:title=" ">
<path fill="none" stroke="#63b8ff" d="M561.14,-223.16C531,-217.35 494.83,-210.39 467.61,-205.15"/>
<polygon fill="#63b8ff" stroke="#63b8ff" points="560.4,-226.58 570.88,-225.03 561.72,-219.71 560.4,-226.58"/>
</a>
</g>
</g>
<!-- Node20 -->
<g id="Node000020" class="node">
<title>Node20</title>
<g id="a_Node000020"><a xlink:href="phal__G4_2usart_2usart_8c.html#a0cab3e67136e4026131605acf63593c8" target="_top" xlink:title="Transmit data, blocking until the transfer completes.">
<polygon fill="white" stroke="#666666" points="491.88,-243.9 359.62,-243.9 359.62,-224.65 491.88,-224.65 491.88,-243.9"/>
<text text-anchor="middle" x="425.75" y="-230.4" font-family="Helvetica,sans-Serif" font-size="10.00">PHAL_USART_txBlocking</text>
</a>
</g>
</g>
<!-- Node17&#45;&gt;Node20 -->
<g id="edge23_Node000017_Node000020" class="edge">
<title>Node17&#45;&gt;Node20</title>
<g id="a_edge23_Node000017_Node000020"><a xlink:title=" ">
<path fill="none" stroke="#63b8ff" d="M560.99,-234.28C539.26,-234.28 514.42,-234.28 492.07,-234.28"/>
<polygon fill="#63b8ff" stroke="#63b8ff" points="560.85,-237.78 570.85,-234.28 560.85,-230.78 560.85,-237.78"/>
</a>
</g>
</g>
<!-- Node19 -->
<g id="Node000019" class="node">
<title>Node19</title>
<g id="a_Node000019"><a xlink:href="driver__interface_8c.html#ac599c66976c348cb0287266b60aa49c5" target="_top" xlink:title=" ">
<polygon fill="white" stroke="#666666" points="317.25,-229.9 195.5,-229.9 195.5,-210.65 317.25,-210.65 317.25,-229.9"/>
<text text-anchor="middle" x="256.38" y="-216.4" font-family="Helvetica,sans-Serif" font-size="10.00">driver_interface_periodic</text>
</a>
</g>
</g>
<!-- Node18&#45;&gt;Node19 -->
<g id="edge21_Node000018_Node000019" class="edge">
<title>Node18&#45;&gt;Node19</title>
<g id="a_edge21_Node000018_Node000019"><a xlink:title=" ">
<path fill="none" stroke="#63b8ff" d="M373.04,-204.38C355.45,-206.8 335.65,-209.52 317.47,-212.02"/>
<polygon fill="#63b8ff" stroke="#63b8ff" points="373.3,-207.88 382.73,-203.05 372.35,-200.94 373.3,-207.88"/>
</a>
</g>
</g>
<!-- Node19&#45;&gt;Node9 -->
<g id="edge22_Node000019_Node000009" class="edge">
<title>Node19&#45;&gt;Node9</title>
<g id="a_edge22_Node000019_Node000009"><a xlink:title=" ">
<path fill="none" stroke="#63b8ff" d="M234.15,-237.34C204.94,-260.81 153.3,-302.3 129.68,-321.29"/>
<polygon fill="#63b8ff" stroke="#63b8ff" points="236.34,-240.07 241.94,-231.08 231.95,-234.61 236.34,-240.07"/>
</a>
</g>
</g>
<!-- Node22 -->
<g id="Node000022" class="node">
<title>Node22</title>
<g id="a_Node000022"><a xlink:href="phal__G4_2usart_2usart_8c.html#a7139cd4baabbbcbab0c1fe6d7d4ae1cc" target="_top" xlink:title=" ">
<polygon fill="white" stroke="#666666" points="481.38,-354.9 370.12,-354.9 370.12,-335.65 481.38,-335.65 481.38,-354.9"/>
<text text-anchor="middle" x="425.75" y="-341.4" font-family="Helvetica,sans-Serif" font-size="10.00">USART1_IRQHandler</text>
</a>
</g>
</g>
<!-- Node21&#45;&gt;Node22 -->
<g id="edge25_Node000021_Node000022" class="edge">
<title>Node21&#45;&gt;Node22</title>
<g id="a_edge25_Node000021_Node000022"><a xlink:title=" ">
<path fill="none" stroke="#63b8ff" d="M564.52,-277.78C554.05,-280.41 543.49,-284.1 534.25,-289.28 513.96,-300.65 518.33,-315.53 498.25,-327.28 492.84,-330.44 486.88,-333.06 480.78,-335.22"/>
<polygon fill="#63b8ff" stroke="#63b8ff" points="565.26,-281.2 574.29,-275.64 563.77,-274.36 565.26,-281.2"/>
</a>
</g>
</g>
<!-- Node23 -->
<g id="Node000023" class="node">
<title>Node23</title>
<g id="a_Node000023"><a xlink:href="phal__G4_2usart_2usart_8c.html#a0ca6fd0e6f77921dd1123539857ba0a8" target="_top" xlink:title=" ">
<polygon fill="white" stroke="#666666" points="481.38,-317.9 370.12,-317.9 370.12,-298.65 481.38,-298.65 481.38,-317.9"/>
<text text-anchor="middle" x="425.75" y="-304.4" font-family="Helvetica,sans-Serif" font-size="10.00">USART2_IRQHandler</text>
</a>
</g>
</g>
<!-- Node21&#45;&gt;Node23 -->
<g id="edge26_Node000021_Node000023" class="edge">
<title>Node21&#45;&gt;Node23</title>
<g id="a_edge26_Node000021_Node000023"><a xlink:title=" ">
<path fill="none" stroke="#63b8ff" d="M564.66,-281.72C537.93,-286.87 505.81,-293.05 479.31,-298.16"/>
<polygon fill="#63b8ff" stroke="#63b8ff" points="565.11,-285.19 574.27,-279.87 563.79,-278.32 565.11,-285.19"/>
</a>
</g>
</g>
<!-- Node24 -->
<g id="Node000024" class="node">
<title>Node24</title>
<g id="a_Node000024"><a xlink:href="phal__G4_2usart_2usart_8c.html#a0d108a3468b2051548183ee5ca2158a0" target="_top" xlink:title=" ">
<polygon fill="white" stroke="#666666" points="481.38,-280.9 370.12,-280.9 370.12,-261.65 481.38,-261.65 481.38,-280.9"/>
<text text-anchor="middle" x="425.75" y="-267.4" font-family="Helvetica,sans-Serif" font-size="10.00">USART3_IRQHandler</text>
</a>
</g>
</g>
<!-- Node21&#45;&gt;Node24 -->
<g id="edge27_Node000021_Node000024" class="edge">
<title>Node21&#45;&gt;Node24</title>
<g id="a_edge27_Node000021_Node000024"><a xlink:title=" ">
<path fill="none" stroke="#63b8ff" d="M564.28,-271.28C538.45,-271.28 507.67,-271.28 481.79,-271.28"/>
<polygon fill="#63b8ff" stroke="#63b8ff" points="564.24,-274.78 574.24,-271.28 564.24,-267.78 564.24,-274.78"/>
</a>
</g>
</g>
<!-- Node25&#45;&gt;Node11 -->
<g id="edge35_Node000025_Node000011" class="edge">
<title>Node25&#45;&gt;Node11</title>
<g id="a_edge35_Node000025_Node000011"><a xlink:title=" ">
<path fill="none" stroke="#63b8ff" d="M784.19,-213.61C772.03,-184.41 745.71,-131.59 705.5,-104.28 697.05,-98.54 687.12,-94.58 677.09,-91.86"/>
<polygon fill="#63b8ff" stroke="#63b8ff" points="780.89,-214.81 787.85,-222.8 787.4,-212.22 780.89,-214.81"/>
</a>
</g>
</g>
<!-- Node25&#45;&gt;Node13 -->
<g id="edge37_Node000025_Node000013" class="edge">
<title>Node25&#45;&gt;Node13</title>
<g id="a_edge37_Node000025_Node000013"><a xlink:title=" ">
<path fill="none" stroke="#63b8ff" d="M747.08,-248.98C745.15,-250.02 743.28,-251.11 741.5,-252.28 722.01,-264.98 725.79,-278.9 705.5,-290.28 695.15,-296.08 683.13,-300.02 671.45,-302.68"/>
<polygon fill="#63b8ff" stroke="#63b8ff" points="748.09,-252.37 755.65,-244.95 745.11,-246.04 748.09,-252.37"/>
</a>
</g>
</g>
<!-- Node25&#45;&gt;Node14 -->
<g id="edge38_Node000025_Node000014" class="edge">
<title>Node25&#45;&gt;Node14</title>
<g id="a_edge38_Node000025_Node000014"><a xlink:title=" ">
<path fill="none" stroke="#63b8ff" d="M743.9,-250.27C743.07,-250.91 742.27,-251.58 741.5,-252.28 714.02,-277.01 732.1,-301.6 705.5,-327.28 692.58,-339.75 674.77,-348.39 658.81,-354.17"/>
<polygon fill="#63b8ff" stroke="#63b8ff" points="745.57,-253.35 752.22,-245.11 741.87,-247.41 745.57,-253.35"/>
</a>
</g>
</g>
<!-- Node25&#45;&gt;Node17 -->
<g id="edge39_Node000025_Node000017" class="edge">
<title>Node25&#45;&gt;Node17</title>
<g id="a_edge39_Node000025_Node000017"><a xlink:title=" ">
<path fill="none" stroke="#63b8ff" d="M734.27,-234.28C712.54,-234.28 688.12,-234.28 667.52,-234.28"/>
<polygon fill="#63b8ff" stroke="#63b8ff" points="734.18,-237.78 744.18,-234.28 734.18,-230.78 734.18,-237.78"/>
</a>
</g>
</g>
<!-- Node25&#45;&gt;Node21 -->
<g id="edge43_Node000025_Node000021" class="edge">
<title>Node25&#45;&gt;Node21</title>
<g id="a_edge43_Node000025_Node000021"><a xlink:title=" ">
<path fill="none" stroke="#63b8ff" d="M735.22,-246.81C725.31,-248.97 715.11,-251.2 705.5,-253.28 691.99,-256.2 677.26,-259.34 663.94,-262.17"/>
<polygon fill="#63b8ff" stroke="#63b8ff" points="735.73,-250.28 744.74,-244.72 734.23,-243.44 735.73,-250.28"/>
</a>
</g>
</g>
<!-- Node26 -->
<g id="Node000026" class="node">
<title>Node26</title>
<g id="a_Node000026"><a xlink:href="phal__G4_2adc_2adc_8c.html#a125ced4dc8f5f9e7dee7cbbefcd125b7" target="_top" xlink:title="Stop the ADC and DMA channel, then clear the DMA status flags.">
<polygon fill="white" stroke="#666666" points="658.25,-132.9 581.5,-132.9 581.5,-113.65 658.25,-113.65 658.25,-132.9"/>
<text text-anchor="middle" x="619.88" y="-119.4" font-family="Helvetica,sans-Serif" font-size="10.00">adc_teardown</text>
</a>
</g>
</g>
<!-- Node25&#45;&gt;Node26 -->
<g id="edge29_Node000025_Node000026" class="edge">
<title>Node25&#45;&gt;Node26</title>
<g id="a_edge29_Node000025_Node000026"><a xlink:title=" ">
<path fill="none" stroke="#63b8ff" d="M774.7,-216.35C758.11,-199.91 731.77,-175.68 705.5,-159.28 688.3,-148.54 667.34,-139.59 650.58,-133.31"/>
<polygon fill="#63b8ff" stroke="#63b8ff" points="771.85,-218.44 781.37,-223.08 776.82,-213.52 771.85,-218.44"/>
</a>
</g>
</g>
<!-- Node30 -->
<g id="Node000030" class="node">
<title>Node30</title>
<g id="a_Node000030"><a xlink:href="spi__priv_8c.html#a3e96e7e3bd320ca9791c8d7b10ee9e7d" target="_top" xlink:title="Handle DMA transmit&#45;complete interrupts.">
<polygon fill="white" stroke="#666666" points="705.5,-58.9 534.25,-58.9 534.25,-39.65 705.5,-39.65 705.5,-58.9"/>
<text text-anchor="middle" x="619.88" y="-45.4" font-family="Helvetica,sans-Serif" font-size="10.00">PHAL_SPI_priv_handleTxComplete</text>
</a>
</g>
</g>
<!-- Node25&#45;&gt;Node30 -->
<g id="edge36_Node000025_Node000030" class="edge">
<title>Node25&#45;&gt;Node30</title>
<g id="a_edge36_Node000025_Node000030"><a xlink:title=" ">
<path fill="none" stroke="#63b8ff" d="M787.38,-213.49C778.27,-177.69 754.52,-104.63 705.5,-67.28 701.32,-64.09 696.7,-61.44 691.84,-59.23"/>
<polygon fill="#63b8ff" stroke="#63b8ff" points="783.92,-214.1 789.65,-223.01 790.73,-212.47 783.92,-214.1"/>
</a>
</g>
</g>
<!-- Node31 -->
<g id="Node000031" class="node">
<title>Node31</title>
<g id="a_Node000031"><a xlink:href="phal__G4_2usart_2usart_8c.html#a52698641ece10b0458377d015a3a07e7" target="_top" xlink:title=" ">
<polygon fill="white" stroke="#666666" points="667.62,-187.9 572.12,-187.9 572.12,-168.65 667.62,-168.65 667.62,-187.9"/>
<text text-anchor="middle" x="619.88" y="-174.4" font-family="Helvetica,sans-Serif" font-size="10.00">usart_handle_dma</text>
</a>
</g>
</g>
<!-- Node25&#45;&gt;Node31 -->
<g id="edge40_Node000025_Node000031" class="edge">
<title>Node25&#45;&gt;Node31</title>
<g id="a_edge40_Node000025_Node000031"><a xlink:title=" ">
<path fill="none" stroke="#63b8ff" d="M750.69,-220.76C720.24,-210.79 679.45,-197.45 651.78,-188.39"/>
<polygon fill="#63b8ff" stroke="#63b8ff" points="749.38,-224.01 759.97,-223.79 751.55,-217.36 749.38,-224.01"/>
</a>
</g>
</g>
<!-- Node26&#45;&gt;Node12 -->
<g id="edge33_Node000026_Node000012" class="edge">
<title>Node26&#45;&gt;Node12</title>
<g id="a_edge33_Node000026_Node000012"><a xlink:title=" ">
<path fill="none" stroke="#63b8ff" d="M570.27,-118.12C557.98,-115.45 545.18,-111.41 534.25,-105.28 513.96,-93.9 518.33,-79.03 498.25,-67.28 492.84,-64.11 486.88,-61.49 480.78,-59.34"/>
<polygon fill="#63b8ff" stroke="#63b8ff" points="569.37,-121.52 579.85,-119.93 570.67,-114.64 569.37,-121.52"/>
</a>
</g>
</g>
<!-- Node27 -->
<g id="Node000027" class="node">
<title>Node27</title>
<g id="a_Node000027"><a xlink:href="phal__G4_2adc_2adc_8c.html#a88783c4b103049de64fc356c016ccae2" target="_top" xlink:title="Process DMA completion or error status for an ADC handle.">
<polygon fill="white" stroke="#666666" points="479.88,-132.9 371.62,-132.9 371.62,-113.65 479.88,-113.65 479.88,-132.9"/>
<text text-anchor="middle" x="425.75" y="-119.4" font-family="Helvetica,sans-Serif" font-size="10.00">adc_dma_irq_handler</text>
</a>
</g>
</g>
<!-- Node26&#45;&gt;Node27 -->
<g id="edge30_Node000026_Node000027" class="edge">
<title>Node26&#45;&gt;Node27</title>
<g id="a_edge30_Node000026_Node000027"><a xlink:title=" ">
<path fill="none" stroke="#63b8ff" d="M570.07,-123.28C542.62,-123.28 508.31,-123.28 480.15,-123.28"/>
<polygon fill="#63b8ff" stroke="#63b8ff" points="569.86,-126.78 579.86,-123.28 569.86,-119.78 569.86,-126.78"/>
</a>
</g>
</g>
<!-- Node29 -->
<g id="Node000029" class="node">
<title>Node29</title>
<g id="a_Node000029"><a xlink:href="phal__G4_2adc_2adc_8c.html#a293b748ece5364814af3ba56e3572f06" target="_top" xlink:title="Abort any transfer in flight and leave the ADC idle.">
<polygon fill="white" stroke="#666666" points="472,-95.9 379.5,-95.9 379.5,-76.65 472,-76.65 472,-95.9"/>
<text text-anchor="middle" x="425.75" y="-82.4" font-family="Helvetica,sans-Serif" font-size="10.00">PHAL_ADC_stop</text>
</a>
</g>
</g>
<!-- Node26&#45;&gt;Node29 -->
<g id="edge34_Node000026_Node000029" class="edge">
<title>Node26&#45;&gt;Node29</title>
<g id="a_edge34_Node000026_Node000029"><a xlink:title=" ">
<path fill="none" stroke="#63b8ff" d="M570.28,-113.92C540.19,-108.12 501.79,-100.73 472.28,-95.04"/>
<polygon fill="#63b8ff" stroke="#63b8ff" points="569.41,-117.31 579.89,-115.77 570.73,-110.44 569.41,-117.31"/>
</a>
</g>
</g>
<!-- Node28 -->
<g id="Node000028" class="node">
<title>Node28</title>
<g id="a_Node000028"><a xlink:href="phal__G4_2adc_2adc_8c.html#ab1d3e1e78099bd0f30e345ce46dd626a" target="_top" xlink:title=" ">
<polygon fill="white" stroke="#666666" points="304.88,-132.9 207.88,-132.9 207.88,-113.65 304.88,-113.65 304.88,-132.9"/>
<text text-anchor="middle" x="256.38" y="-119.4" font-family="Helvetica,sans-Serif" font-size="10.00">adc_dma_callback</text>
</a>
</g>
</g>
<!-- Node27&#45;&gt;Node28 -->
<g id="edge31_Node000027_Node000028" class="edge">
<title>Node27&#45;&gt;Node28</title>
<g id="a_edge31_Node000027_Node000028"><a xlink:title=" ">
<path fill="none" stroke="#63b8ff" d="M359.89,-123.28C341.68,-123.28 322.22,-123.28 305.2,-123.28"/>
<polygon fill="#63b8ff" stroke="#63b8ff" points="359.82,-126.78 369.82,-123.28 359.82,-119.78 359.82,-126.78"/>
</a>
</g>
</g>
<!-- Node28&#45;&gt;Node5 -->
<g id="edge32_Node000028_Node000005" class="edge">
<title>Node28&#45;&gt;Node5</title>
<g id="a_edge32_Node000028_Node000005"><a xlink:title=" ">
<path fill="none" stroke="#63b8ff" d="M196.28,-123.28C183.93,-123.28 171.15,-123.28 159.55,-123.28"/>
<polygon fill="#63b8ff" stroke="#63b8ff" points="195.94,-126.78 205.94,-123.28 195.94,-119.78 195.94,-126.78"/>
</a>
</g>
</g>
<!-- Node32 -->
<g id="Node000032" class="node">
<title>Node32</title>
<g id="a_Node000032"><a xlink:href="phal__G4_2usart_2usart_8c.html#a43e252bd62d3d5e76f2e50ebc399abe5" target="_top" xlink:title=" ">
<polygon fill="white" stroke="#666666" points="483.62,-169.9 367.88,-169.9 367.88,-150.65 483.62,-150.65 483.62,-169.9"/>
<text text-anchor="middle" x="425.75" y="-156.4" font-family="Helvetica,sans-Serif" font-size="10.00">usart_tx_dma_callback</text>
</a>
</g>
</g>
<!-- Node31&#45;&gt;Node32 -->
<g id="edge41_Node000031_Node000032" class="edge">
<title>Node31&#45;&gt;Node32</title>
<g id="a_edge41_Node000031_Node000032"><a xlink:title=" ">
<path fill="none" stroke="#63b8ff" d="M560.63,-172.82C536.3,-170.54 508.1,-167.9 483.88,-165.63"/>
<polygon fill="#63b8ff" stroke="#63b8ff" points="560.09,-176.28 570.37,-173.73 560.74,-169.31 560.09,-176.28"/>
</a>
</g>
</g>
<!-- Node32&#45;&gt;Node8 -->
<g id="edge42_Node000032_Node000008" class="edge">
<title>Node32&#45;&gt;Node8</title>
<g id="a_edge42_Node000032_Node000008"><a xlink:title=" ">
<path fill="none" stroke="#63b8ff" d="M357.48,-175.29C356.02,-176.23 354.61,-177.22 353.25,-178.28 345.71,-184.13 281.2,-308.93 262.46,-345.37"/>
<polygon fill="#63b8ff" stroke="#63b8ff" points="359.11,-178.39 366.31,-170.62 355.84,-172.2 359.11,-178.39"/>
</a>
</g>
</g>
</g>
</svg>

<g id="navigator" transform="translate(0 0)" fill="#404254">
  <rect fill="#f2f5e9" fill-opacity="0.5" stroke="#606060" stroke-width=".5" x="0" y="0" width="60" height="60"/>
  <use id="zoomplus" xlink:href="#zoomPlus" x="17" y="9" onmousedown="handleZoom(evt,'in')"/>
  <use id="zoomminus" xlink:href="#zoomMin" x="42" y="9" onmousedown="handleZoom(evt,'out')"/>
  <use id="reset" xlink:href="#resetDef" x="30" y="36" onmousedown="handleReset()"/>
   <use id="arrowup" xlink:href="#arrowUp" x="0" y="0" onmousedown="handlePan(0,-1)"/>
  <use id="arrowright" xlink:href="#arrowRight" x="0" y="0" onmousedown="handlePan(1,0)"/>
  <use id="arrowdown" xlink:href="#arrowDown" x="0" y="0" onmousedown="handlePan(0,1)"/>
  <use id="arrowleft" xlink:href="#arrowLeft" x="0" y="0" onmousedown="handlePan(-1,0)"/>
</g>
<svg viewBox="0 0 15 15" width="100%" height="30px" preserveAspectRatio="xMaxYMin meet">
 <g id="arrow_out" transform="scale(0.3 0.3)">
  <a xlink:href="dma__priv_8h_a5120208650c6c1774fe79c46127ea4c2_icgraph_org.svg" target="_base">
   <rect id="button" ry="5" rx="5" y="6" x="6" height="38" width="38"
        fill="#f2f5e9" fill-opacity="0.5" stroke="#606060" stroke-width="1.0"/>
   <path id="arrow"
     d="M 11.500037,31.436501 C 11.940474,20.09759 22.043105,11.32322 32.158766,21.979434 L 37.068811,17.246167 C 37.068811,17.246167 37.088388,32 37.088388,32 L 22.160133,31.978069 C 22.160133,31.978069 26.997745,27.140456 26.997745,27.140456 C 18.528582,18.264221 13.291696,25.230495 11.500037,31.436501 z"
     style="fill:#404040;"/>
  </a>
 </g>
</svg>

<style type='text/css'>
<![CDATA[
[data-mouse-over-selected='false'] { opacity: 0.7; }
[data-mouse-over-selected='true']  { opacity: 1.0; }
]]>
</style>
<script type="application/ecmascript"><![CDATA[
document.addEventListener('DOMContentLoaded', (event) => {
  highlightEdges();
  highlightAdjacentNodes();
});
]]></script>
</svg>
