<?xml version="1.0" encoding="UTF-8" standalone="no"?>
<!DOCTYPE svg PUBLIC "-//W3C//DTD SVG 1.1//EN"
 "http://www.w3.org/Graphics/SVG/1.1/DTD/svg11.dtd">
<!-- Generated by graphviz version 12.2.0 (20241103.1931)
 -->
<!-- Title: action_dispatcher Pages: 1 -->
<svg width="862pt" height="437pt"
 viewBox="0.00 0.00 861.50 437.25" xmlns="http://www.w3.org/2000/svg" xmlns:xlink="http://www.w3.org/1999/xlink">
<g id="graph0" class="graph" transform="scale(1 1) rotate(0) translate(4 433.25)">
<title>action_dispatcher</title>
<!-- Node1 -->
<g id="Node000001" class="node">
<title>Node1</title>
<g id="a_Node000001"><a xlink:title=" ">
<polygon fill="#999999" stroke="#666666" points="92.5,-206.25 0,-206.25 0,-187 92.5,-187 92.5,-206.25"/>
<text text-anchor="middle" x="46.25" y="-192.75" font-family="Helvetica,sans-Serif" font-size="10.00">action_dispatcher</text>
</a>
</g>
</g>
<!-- Node2 -->
<g id="Node000002" class="node">
<title>Node2</title>
<g id="a_Node000002"><a xlink:href="lcd_8c.html#a685b031373d6540844434c69377f10d2" target="_top" xlink:title="Advances to the next selectable page.">
<polygon fill="white" stroke="#666666" points="213.88,-206.25 138.62,-206.25 138.62,-187 213.88,-187 213.88,-206.25"/>
<text text-anchor="middle" x="176.25" y="-192.75" font-family="Helvetica,sans-Serif" font-size="10.00">advancePage</text>
</a>
</g>
</g>
<!-- Node1&#45;&gt;Node2 -->
<g id="edge1_Node000001_Node000002" class="edge">
<title>Node1&#45;&gt;Node2</title>
<g id="a_edge1_Node000001_Node000002"><a xlink:title=" ">
<path fill="none" stroke="#63b8ff" d="M92.74,-196.62C103.83,-196.62 115.74,-196.62 126.95,-196.62"/>
<polygon fill="#63b8ff" stroke="#63b8ff" points="126.82,-200.13 136.82,-196.63 126.82,-193.13 126.82,-200.13"/>
</a>
</g>
</g>
<!-- Node3 -->
<g id="Node000003" class="node">
<title>Node3</title>
<g id="a_Node000003"><a xlink:href="lcd_8c.html#aa13fa254ddd44573fd2a83874763cae8" target="_top" xlink:title="Updates LCD display page.">
<polygon fill="white" stroke="#666666" points="356.25,-89.25 288.5,-89.25 288.5,-70 356.25,-70 356.25,-89.25"/>
<text text-anchor="middle" x="322.38" y="-75.75" font-family="Helvetica,sans-Serif" font-size="10.00">updatePage</text>
</a>
</g>
</g>
<!-- Node1&#45;&gt;Node3 -->
<g id="edge27_Node000001_Node000003" class="edge">
<title>Node1&#45;&gt;Node3</title>
<g id="a_edge27_Node000001_Node000003"><a xlink:title=" ">
<path fill="none" stroke="#63b8ff" d="M49.85,-186.73C57.16,-161.19 80.55,-93.2 128.5,-66.62 177.33,-39.56 244.15,-53.16 284.95,-66"/>
<polygon fill="#63b8ff" stroke="#63b8ff" points="283.71,-69.28 294.3,-69.1 285.9,-62.63 283.71,-69.28"/>
</a>
</g>
</g>
<!-- Node7 -->
<g id="Node000007" class="node">
<title>Node7</title>
<g id="a_Node000007"><a xlink:href="lcd_8c.html#ab328996325a24df855157cc23430de3d" target="_top" xlink:title="Moves to the previous selectable page.">
<polygon fill="white" stroke="#666666" points="206,-19.25 146.5,-19.25 146.5,0 206,0 206,-19.25"/>
<text text-anchor="middle" x="176.25" y="-5.75" font-family="Helvetica,sans-Serif" font-size="10.00">backPage</text>
</a>
</g>
</g>
<!-- Node1&#45;&gt;Node7 -->
<g id="edge6_Node000001_Node000007" class="edge">
<title>Node1&#45;&gt;Node7</title>
<g id="a_edge6_Node000001_Node000007"><a xlink:title=" ">
<path fill="none" stroke="#63b8ff" d="M49.87,-186.52C57.53,-158.77 82.27,-80.41 128.5,-33.62 131.5,-30.59 134.96,-27.87 138.62,-25.44"/>
<polygon fill="#63b8ff" stroke="#63b8ff" points="140.35,-28.48 147.26,-20.45 136.85,-22.42 140.35,-28.48"/>
</a>
</g>
</g>
<!-- Node8 -->
<g id="Node000008" class="node">
<title>Node8</title>
<g id="a_Node000008"><a xlink:href="DASHBOARD_8h.html#aaec438ab0bc6a8ec4867d966c7f39c4c" target="_top" xlink:title=" ">
<polygon fill="white" stroke="#666666" points="544,-429.25 423.75,-429.25 423.75,-410 544,-410 544,-429.25"/>
<text text-anchor="middle" x="483.88" y="-415.75" font-family="Helvetica,sans-Serif" font-size="10.00">CAN_SEND_mark_data</text>
</a>
</g>
</g>
<!-- Node1&#45;&gt;Node8 -->
<g id="edge8_Node000001_Node000008" class="edge">
<title>Node1&#45;&gt;Node8</title>
<g id="a_edge8_Node000001_Node000008"><a xlink:title=" ">
<path fill="none" stroke="#63b8ff" d="M49.15,-206.58C55.19,-235.32 76.64,-319.11 128.5,-361.62 208.69,-427.36 334.26,-432.16 412.4,-427.46"/>
<polygon fill="#63b8ff" stroke="#63b8ff" points="412.32,-430.97 422.06,-426.81 411.85,-423.99 412.32,-430.97"/>
</a>
</g>
</g>
<!-- Node13 -->
<g id="Node000013" class="node">
<title>Node13</title>
<g id="a_Node000013"><a xlink:href="DASHBOARD_8h.html#ac1d58582f79097a176b9b39fd464c7d4" target="_top" xlink:title=" ">
<polygon fill="white" stroke="#666666" points="547,-392.25 420.75,-392.25 420.75,-373 547,-373 547,-392.25"/>
<text text-anchor="middle" x="483.88" y="-378.75" font-family="Helvetica,sans-Serif" font-size="10.00">CAN_SEND_start_button</text>
</a>
</g>
</g>
<!-- Node1&#45;&gt;Node13 -->
<g id="edge13_Node000001_Node000013" class="edge">
<title>Node1&#45;&gt;Node13</title>
<g id="a_edge13_Node000001_Node000013"><a xlink:title=" ">
<path fill="none" stroke="#63b8ff" d="M50.22,-206.46C58.28,-231.25 83.02,-296.48 128.5,-326.62 212.7,-382.43 332.44,-390 408.89,-388.06"/>
<polygon fill="#63b8ff" stroke="#63b8ff" points="408.92,-391.56 418.8,-387.74 408.69,-384.56 408.92,-391.56"/>
</a>
</g>
</g>
<!-- Node14 -->
<g id="Node000014" class="node">
<title>Node14</title>
<g id="a_Node000014"><a xlink:href="lap__timer_8c.html#a7220f3edbfb4c8e5b3956ab663092676" target="_top" xlink:title=" ">
<polygon fill="white" stroke="#666666" points="224,-317.25 128.5,-317.25 128.5,-298 224,-298 224,-317.25"/>
<text text-anchor="middle" x="176.25" y="-303.75" font-family="Helvetica,sans-Serif" font-size="10.00">lap_timer_onpress</text>
</a>
</g>
</g>
<!-- Node1&#45;&gt;Node14 -->
<g id="edge17_Node000001_Node000014" class="edge">
<title>Node1&#45;&gt;Node14</title>
<g id="a_edge17_Node000001_Node000014"><a xlink:title=" ">
<path fill="none" stroke="#63b8ff" d="M53.62,-206.73C65.93,-225.52 94.76,-266.04 128.5,-289.62 129.88,-290.59 131.32,-291.51 132.8,-292.39"/>
<polygon fill="#63b8ff" stroke="#63b8ff" points="131.17,-295.49 141.66,-296.92 134.35,-289.25 131.17,-295.49"/>
</a>
</g>
</g>
<!-- Node20 -->
<g id="Node000020" class="node">
<title>Node20</title>
<g id="a_Node000020"><a xlink:href="lcd_8c.html#a486267210dfc8118e23e6b1bc6090286" target="_top" xlink:title=" ">
<polygon fill="white" stroke="#666666" points="208.62,-169.25 143.88,-169.25 143.88,-150 208.62,-150 208.62,-169.25"/>
<text text-anchor="middle" x="176.25" y="-155.75" font-family="Helvetica,sans-Serif" font-size="10.00">moveDown</text>
</a>
</g>
</g>
<!-- Node1&#45;&gt;Node20 -->
<g id="edge24_Node000001_Node000020" class="edge">
<title>Node1&#45;&gt;Node20</title>
<g id="a_edge24_Node000001_Node000020"><a xlink:title=" ">
<path fill="none" stroke="#63b8ff" d="M82.23,-186.51C97.74,-182.03 116.15,-176.71 132.47,-171.99"/>
<polygon fill="#63b8ff" stroke="#63b8ff" points="133.29,-175.4 141.93,-169.26 131.35,-168.67 133.29,-175.4"/>
</a>
</g>
</g>
<!-- Node21 -->
<g id="Node000021" class="node">
<title>Node21</title>
<g id="a_Node000021"><a xlink:href="lcd_8c.html#a75e03afeaf9e13a6399279ed36c0c59f" target="_top" xlink:title=" ">
<polygon fill="white" stroke="#666666" points="202.62,-132.25 149.88,-132.25 149.88,-113 202.62,-113 202.62,-132.25"/>
<text text-anchor="middle" x="176.25" y="-118.75" font-family="Helvetica,sans-Serif" font-size="10.00">moveUp</text>
</a>
</g>
</g>
<!-- Node1&#45;&gt;Node21 -->
<g id="edge25_Node000001_Node000021" class="edge">
<title>Node1&#45;&gt;Node21</title>
<g id="a_edge25_Node000001_Node000021"><a xlink:title=" ">
<path fill="none" stroke="#63b8ff" d="M59.88,-186.51C75.36,-174.45 102.74,-154.22 128.5,-140.62 131.81,-138.88 135.32,-137.21 138.88,-135.65"/>
<polygon fill="#63b8ff" stroke="#63b8ff" points="140.21,-138.89 148.13,-131.85 137.55,-132.41 140.21,-138.89"/>
</a>
</g>
</g>
<!-- Node22 -->
<g id="Node000022" class="node">
<title>Node22</title>
<g id="a_Node000022"><a xlink:href="lcd_8c.html#ac609e22e16c9e8ab1b73acd57e5b7664" target="_top" xlink:title=" ">
<polygon fill="white" stroke="#666666" points="207.12,-95.25 145.38,-95.25 145.38,-76 207.12,-76 207.12,-95.25"/>
<text text-anchor="middle" x="176.25" y="-81.75" font-family="Helvetica,sans-Serif" font-size="10.00">selectItem</text>
</a>
</g>
</g>
<!-- Node1&#45;&gt;Node22 -->
<g id="edge26_Node000001_Node000022" class="edge">
<title>Node1&#45;&gt;Node22</title>
<g id="a_edge26_Node000001_Node000022"><a xlink:title=" ">
<path fill="none" stroke="#63b8ff" d="M53.62,-186.52C65.93,-167.73 94.76,-127.21 128.5,-103.62 130.45,-102.26 132.52,-100.99 134.65,-99.79"/>
<polygon fill="#63b8ff" stroke="#63b8ff" points="136.13,-102.96 143.61,-95.46 133.09,-96.66 136.13,-102.96"/>
</a>
</g>
</g>
<!-- Node23 -->
<g id="Node000023" class="node">
<title>Node23</title>
<g id="a_Node000023"><a xlink:href="vcu_8c.html#aad23511a3a78342b43962d7c16820964" target="_top" xlink:title=" ">
<polygon fill="white" stroke="#666666" points="222.5,-280.25 130,-280.25 130,-261 222.5,-261 222.5,-280.25"/>
<text text-anchor="middle" x="176.25" y="-266.75" font-family="Helvetica,sans-Serif" font-size="10.00">vcu_toggle_regen</text>
</a>
</g>
</g>
<!-- Node1&#45;&gt;Node23 -->
<g id="edge28_Node000001_Node000023" class="edge">
<title>Node1&#45;&gt;Node23</title>
<g id="a_edge28_Node000001_Node000023"><a xlink:title=" ">
<path fill="none" stroke="#63b8ff" d="M59.88,-206.74C75.36,-218.8 102.74,-239.03 128.5,-252.62 130.84,-253.86 133.28,-255.05 135.76,-256.2"/>
<polygon fill="#63b8ff" stroke="#63b8ff" points="134.14,-259.31 144.71,-260.03 136.89,-252.87 134.14,-259.31"/>
</a>
</g>
</g>
<!-- Node30 -->
<g id="Node000030" class="node">
<title>Node30</title>
<g id="a_Node000030"><a xlink:href="vcu_8c.html#a151705cf194320d602ae7dc3e2e25a8e" target="_top" xlink:title=" ">
<polygon fill="white" stroke="#666666" points="223.25,-243.25 129.25,-243.25 129.25,-224 223.25,-224 223.25,-243.25"/>
<text text-anchor="middle" x="176.25" y="-229.75" font-family="Helvetica,sans-Serif" font-size="10.00">vcu_wheel_adjust</text>
</a>
</g>
</g>
<!-- Node1&#45;&gt;Node30 -->
<g id="edge44_Node000001_Node000030" class="edge">
<title>Node1&#45;&gt;Node30</title>
<g id="a_edge44_Node000001_Node000030"><a xlink:title=" ">
<path fill="none" stroke="#63b8ff" d="M82.23,-206.74C96.76,-210.94 113.83,-215.87 129.35,-220.36"/>
<polygon fill="#63b8ff" stroke="#63b8ff" points="128.28,-223.69 138.86,-223.11 130.23,-216.97 128.28,-223.69"/>
</a>
</g>
</g>
<!-- Node2&#45;&gt;Node3 -->
<g id="edge2_Node000002_Node000003" class="edge">
<title>Node2&#45;&gt;Node3</title>
<g id="a_edge2_Node000002_Node000003"><a xlink:title=" ">
<path fill="none" stroke="#63b8ff" d="M210.21,-186.7C215.08,-184.46 219.85,-181.79 224,-178.62 245.47,-162.22 241.37,-149.21 260,-129.62 271.59,-117.45 286.11,-105.49 298.12,-96.33"/>
<polygon fill="#63b8ff" stroke="#63b8ff" points="299.97,-99.31 305.9,-90.53 295.79,-93.7 299.97,-99.31"/>
</a>
</g>
</g>
<!-- Node4 -->
<g id="Node000004" class="node">
<title>Node4</title>
<g id="a_Node000004"><a xlink:href="nextion_8c.html#ac5753abcb75fb40221a51bcdec98bbd4" target="_top" xlink:title="Sets the current page on the Nextion display.">
<polygon fill="white" stroke="#666666" points="522.62,-121.25 445.12,-121.25 445.12,-102 522.62,-102 522.62,-121.25"/>
<text text-anchor="middle" x="483.88" y="-107.75" font-family="Helvetica,sans-Serif" font-size="10.00">NXT_setPage</text>
</a>
</g>
</g>
<!-- Node3&#45;&gt;Node4 -->
<g id="edge3_Node000003_Node000004" class="edge">
<title>Node3&#45;&gt;Node4</title>
<g id="a_edge3_Node000003_Node000004"><a xlink:title=" ">
<path fill="none" stroke="#63b8ff" d="M356.42,-86.26C378.74,-90.73 408.58,-96.72 433.68,-101.75"/>
<polygon fill="#63b8ff" stroke="#63b8ff" points="432.85,-105.16 443.34,-103.69 434.23,-98.29 432.85,-105.16"/>
</a>
</g>
</g>
<!-- Node5 -->
<g id="Node000005" class="node">
<title>Node5</title>
<g id="a_Node000005"><a xlink:href="strbuf_8c.html#a15380dc153a462b38a9b54f274c9c3b5" target="_top" xlink:title="Appends raw data to the buffer. If the data exceeds the buffer size, no data is appended.">
<polygon fill="white" stroke="#666666" points="689.75,-158.25 612.25,-158.25 612.25,-139 689.75,-139 689.75,-158.25"/>
<text text-anchor="middle" x="651" y="-144.75" font-family="Helvetica,sans-Serif" font-size="10.00">strbuf_append</text>
</a>
</g>
</g>
<!-- Node4&#45;&gt;Node5 -->
<g id="edge4_Node000004_Node000005" class="edge">
<title>Node4&#45;&gt;Node5</title>
<g id="a_edge4_Node000004_Node000005"><a xlink:title=" ">
<path fill="none" stroke="#63b8ff" d="M522.76,-120.11C545.96,-125.31 575.9,-132.02 600.91,-137.62"/>
<polygon fill="#63b8ff" stroke="#63b8ff" points="600.01,-141.01 610.53,-139.78 601.54,-134.18 600.01,-141.01"/>
</a>
</g>
</g>
<!-- Node6 -->
<g id="Node000006" class="node">
<title>Node6</title>
<g id="a_Node000006"><a xlink:href="strbuf_8c.html#a52ce36e86451c208f1846411e1f67dcf" target="_top" xlink:title="Appends formatted data to the buffer using printf&#45;style formatting. !">
<polygon fill="white" stroke="#666666" points="684.88,-195.25 617.12,-195.25 617.12,-176 684.88,-176 684.88,-195.25"/>
<text text-anchor="middle" x="651" y="-181.75" font-family="Helvetica,sans-Serif" font-size="10.00">strbuf_printf</text>
</a>
</g>
</g>
<!-- Node4&#45;&gt;Node6 -->
<g id="edge5_Node000004_Node000006" class="edge">
<title>Node4&#45;&gt;Node6</title>
<g id="a_edge5_Node000004_Node000006"><a xlink:title=" ">
<path fill="none" stroke="#63b8ff" d="M523.02,-119.22C531.28,-121.79 539.71,-125.18 547,-129.62 566.87,-141.73 563.02,-155.72 583,-167.62 589.96,-171.77 597.89,-174.99 605.8,-177.47"/>
<polygon fill="#63b8ff" stroke="#63b8ff" points="604.84,-180.83 615.41,-180.11 606.69,-174.08 604.84,-180.83"/>
</a>
</g>
</g>
<!-- Node7&#45;&gt;Node3 -->
<g id="edge7_Node000007_Node000003" class="edge">
<title>Node7&#45;&gt;Node3</title>
<g id="a_edge7_Node000007_Node000003"><a xlink:title=" ">
<path fill="none" stroke="#63b8ff" d="M197.9,-19.65C222.19,-31.45 262.76,-51.15 290.72,-64.74"/>
<polygon fill="#63b8ff" stroke="#63b8ff" points="288.88,-67.73 299.4,-68.95 291.94,-61.44 288.88,-67.73"/>
</a>
</g>
</g>
<!-- Node9 -->
<g id="Node000009" class="node">
<title>Node9</title>
<g id="a_Node000009"><a xlink:href="DASHBOARD_8h.html#a0da956162efe3e0016f181cee58961e6" target="_top" xlink:title=" ">
<polygon fill="white" stroke="#666666" points="719,-355.25 583,-355.25 583,-336 719,-336 719,-355.25"/>
<text text-anchor="middle" x="651" y="-341.75" font-family="Helvetica,sans-Serif" font-size="10.00">CAN_enqueue_tx_FDCAN2</text>
</a>
</g>
</g>
<!-- Node8&#45;&gt;Node9 -->
<g id="edge9_Node000008_Node000009" class="edge">
<title>Node8&#45;&gt;Node9</title>
<g id="a_edge9_Node000008_Node000009"><a xlink:title=" ">
<path fill="none" stroke="#63b8ff" d="M530.2,-409.58C536.06,-407.4 541.82,-404.78 547,-401.62 566.87,-389.52 563.02,-375.53 583,-363.62 585.14,-362.35 587.38,-361.16 589.68,-360.05"/>
<polygon fill="#63b8ff" stroke="#63b8ff" points="590.79,-363.38 598.67,-356.3 588.1,-356.92 590.79,-363.38"/>
</a>
</g>
</g>
<!-- Node10 -->
<g id="Node000010" class="node">
<title>Node10</title>
<g id="a_Node000010"><a xlink:href="can__codec_8h.html#ac4a71d75c81b7dee78d6c6b19ace0b97" target="_top" xlink:title=" ">
<polygon fill="white" stroke="#666666" points="708.5,-429.25 593.5,-429.25 593.5,-410 708.5,-410 708.5,-429.25"/>
<text text-anchor="middle" x="651" y="-415.75" font-family="Helvetica,sans-Serif" font-size="10.00">CAN_pack_raw_signal</text>
</a>
</g>
</g>
<!-- Node8&#45;&gt;Node10 -->
<g id="edge10_Node000008_Node000010" class="edge">
<title>Node8&#45;&gt;Node10</title>
<g id="a_edge10_Node000008_Node000010"><a xlink:title=" ">
<path fill="none" stroke="#63b8ff" d="M544.49,-419.62C556.65,-419.62 569.54,-419.62 581.97,-419.62"/>
<polygon fill="#63b8ff" stroke="#63b8ff" points="581.72,-423.13 591.72,-419.63 581.72,-416.13 581.72,-423.13"/>
</a>
</g>
</g>
<!-- Node12 -->
<g id="Node000012" class="node">
<title>Node12</title>
<g id="a_Node000012"><a xlink:href="can__codec_8h.html#a2ba7cd673ebc72d6164e744be452602f" target="_top" xlink:title=" ">
<polygon fill="white" stroke="#666666" points="712.62,-392.25 589.38,-392.25 589.38,-373 712.62,-373 712.62,-392.25"/>
<text text-anchor="middle" x="651" y="-378.75" font-family="Helvetica,sans-Serif" font-size="10.00">CAN_store_payload_u64</text>
</a>
</g>
</g>
<!-- Node8&#45;&gt;Node12 -->
<g id="edge12_Node000008_Node000012" class="edge">
<title>Node8&#45;&gt;Node12</title>
<g id="a_edge12_Node000008_Node000012"><a xlink:title=" ">
<path fill="none" stroke="#63b8ff" d="M530,-409.51C549.75,-405.09 573.12,-399.85 593.97,-395.18"/>
<polygon fill="#63b8ff" stroke="#63b8ff" points="594.46,-398.66 603.46,-393.05 592.93,-391.83 594.46,-398.66"/>
</a>
</g>
</g>
<!-- Node11 -->
<g id="Node000011" class="node">
<title>Node11</title>
<g id="a_Node000011"><a xlink:href="can__codec_8h.html#a1ffbd7318559fdd74ae2cb491a424bda" target="_top" xlink:title=" ">
<polygon fill="white" stroke="#666666" points="853.5,-429.25 755,-429.25 755,-410 853.5,-410 853.5,-429.25"/>
<text text-anchor="middle" x="804.25" y="-415.75" font-family="Helvetica,sans-Serif" font-size="10.00">CAN_apply_bswap</text>
</a>
</g>
</g>
<!-- Node10&#45;&gt;Node11 -->
<g id="edge11_Node000010_Node000011" class="edge">
<title>Node10&#45;&gt;Node11</title>
<g id="a_edge11_Node000010_Node000011"><a xlink:title=" ">
<path fill="none" stroke="#63b8ff" d="M708.75,-419.62C720.07,-419.62 731.99,-419.62 743.4,-419.62"/>
<polygon fill="#63b8ff" stroke="#63b8ff" points="743.1,-423.13 753.1,-419.63 743.1,-416.13 743.1,-423.13"/>
</a>
</g>
</g>
<!-- Node13&#45;&gt;Node9 -->
<g id="edge14_Node000013_Node000009" class="edge">
<title>Node13&#45;&gt;Node9</title>
<g id="a_edge14_Node000013_Node000009"><a xlink:title=" ">
<path fill="none" stroke="#63b8ff" d="M530,-372.51C549.75,-368.09 573.12,-362.85 593.97,-358.18"/>
<polygon fill="#63b8ff" stroke="#63b8ff" points="594.46,-361.66 603.46,-356.05 592.93,-354.83 594.46,-361.66"/>
</a>
</g>
</g>
<!-- Node13&#45;&gt;Node10 -->
<g id="edge15_Node000013_Node000010" class="edge">
<title>Node13&#45;&gt;Node10</title>
<g id="a_edge15_Node000013_Node000010"><a xlink:title=" ">
<path fill="none" stroke="#63b8ff" d="M530,-392.74C549.75,-397.16 573.12,-402.4 593.97,-407.07"/>
<polygon fill="#63b8ff" stroke="#63b8ff" points="592.93,-410.42 603.46,-409.2 594.46,-403.59 592.93,-410.42"/>
</a>
</g>
</g>
<!-- Node13&#45;&gt;Node12 -->
<g id="edge16_Node000013_Node000012" class="edge">
<title>Node13&#45;&gt;Node12</title>
<g id="a_edge16_Node000013_Node000012"><a xlink:title=" ">
<path fill="none" stroke="#63b8ff" d="M547.3,-382.62C557.26,-382.62 567.62,-382.62 577.78,-382.62"/>
<polygon fill="#63b8ff" stroke="#63b8ff" points="577.61,-386.13 587.61,-382.63 577.61,-379.13 577.61,-386.13"/>
</a>
</g>
</g>
<!-- Node15 -->
<g id="Node000015" class="node">
<title>Node15</title>
<g id="a_Node000015"><a xlink:href="geodetic_8h.html#affa8f558945f2f15b6ff146fcd86235f" target="_top" xlink:title="Build a coordinate from latitude and longitude already in degrees.">
<polygon fill="white" stroke="#666666" points="539.5,-355.25 428.25,-355.25 428.25,-336 539.5,-336 539.5,-355.25"/>
<text text-anchor="middle" x="483.88" y="-341.75" font-family="Helvetica,sans-Serif" font-size="10.00">geodetic_from_scaled</text>
</a>
</g>
</g>
<!-- Node14&#45;&gt;Node15 -->
<g id="edge18_Node000014_Node000015" class="edge">
<title>Node14&#45;&gt;Node15</title>
<g id="a_edge18_Node000014_Node000015"><a xlink:title=" ">
<path fill="none" stroke="#63b8ff" d="M215.76,-317.65C229.63,-320.95 245.44,-324.34 260,-326.62 312.41,-334.83 372.35,-339.69 416.86,-342.44"/>
<polygon fill="#63b8ff" stroke="#63b8ff" points="416.42,-345.92 426.61,-343.02 416.83,-338.93 416.42,-345.92"/>
</a>
</g>
</g>
<!-- Node16 -->
<g id="Node000016" class="node">
<title>Node16</title>
<g id="a_Node000016"><a xlink:href="faults__common_8h.html#a22ea5f8bc7464c7728f4f9d67a9417cf" target="_top" xlink:title=" ">
<polygon fill="white" stroke="#666666" points="347.25,-317.25 297.5,-317.25 297.5,-298 347.25,-298 347.25,-317.25"/>
<text text-anchor="middle" x="322.38" y="-303.75" font-family="Helvetica,sans-Serif" font-size="10.00">is_clear</text>
</a>
</g>
</g>
<!-- Node14&#45;&gt;Node16 -->
<g id="edge19_Node000014_Node000016" class="edge">
<title>Node14&#45;&gt;Node16</title>
<g id="a_edge19_Node000014_Node000016"><a xlink:title=" ">
<path fill="none" stroke="#63b8ff" d="M224.44,-307.62C244.38,-307.62 267.2,-307.62 285.7,-307.62"/>
<polygon fill="#63b8ff" stroke="#63b8ff" points="285.64,-311.13 295.64,-307.63 285.64,-304.13 285.64,-311.13"/>
</a>
</g>
</g>
<!-- Node17 -->
<g id="Node000017" class="node">
<title>Node17</title>
<g id="a_Node000017"><a xlink:href="lap__timer_8c.html#a922bb1fc5c4fe5ec8f82bc735890ee69" target="_top" xlink:title=" ">
<polygon fill="white" stroke="#666666" points="380.25,-280.25 264.5,-280.25 264.5,-261 380.25,-261 380.25,-280.25"/>
<text text-anchor="middle" x="322.38" y="-266.75" font-family="Helvetica,sans-Serif" font-size="10.00">lap_timer_gps_to_local</text>
</a>
</g>
</g>
<!-- Node14&#45;&gt;Node17 -->
<g id="edge20_Node000014_Node000017" class="edge">
<title>Node14&#45;&gt;Node17</title>
<g id="a_edge20_Node000014_Node000017"><a xlink:title=" ">
<path fill="none" stroke="#63b8ff" d="M216.63,-297.51C233.39,-293.21 253.15,-288.14 270.96,-283.57"/>
<polygon fill="#63b8ff" stroke="#63b8ff" points="271.76,-286.98 280.57,-281.1 270.02,-280.2 271.76,-286.98"/>
</a>
</g>
</g>
<!-- Node17&#45;&gt;Node15 -->
<g id="edge21_Node000017_Node000015" class="edge">
<title>Node17&#45;&gt;Node15</title>
<g id="a_edge21_Node000017_Node000015"><a xlink:title=" ">
<path fill="none" stroke="#63b8ff" d="M368.15,-280.72C373.95,-282.89 379.63,-285.5 384.75,-288.62 404.6,-300.76 400.97,-314.37 420.75,-326.62 423.36,-328.24 426.11,-329.73 428.95,-331.09"/>
<polygon fill="#63b8ff" stroke="#63b8ff" points="427.54,-334.29 438.11,-334.95 430.25,-327.84 427.54,-334.29"/>
</a>
</g>
</g>
<!-- Node18 -->
<g id="Node000018" class="node">
<title>Node18</title>
<g id="a_Node000018"><a xlink:href="geodetic_8h.html#a4a8aae9e5800f848ecbf3e08df43c0bd" target="_top" xlink:title="Project a coordinate onto a local east&#45;north plane about an origin.">
<polygon fill="white" stroke="#666666" points="529.75,-269.25 438,-269.25 438,-250 529.75,-250 529.75,-269.25"/>
<text text-anchor="middle" x="483.88" y="-255.75" font-family="Helvetica,sans-Serif" font-size="10.00">geodetic_to_local</text>
</a>
</g>
</g>
<!-- Node17&#45;&gt;Node18 -->
<g id="edge22_Node000017_Node000018" class="edge">
<title>Node17&#45;&gt;Node18</title>
<g id="a_edge22_Node000017_Node000018"><a xlink:title=" ">
<path fill="none" stroke="#63b8ff" d="M380.51,-266.68C395.47,-265.65 411.58,-264.54 426.5,-263.51"/>
<polygon fill="#63b8ff" stroke="#63b8ff" points="426.39,-267.03 436.13,-262.85 425.91,-260.05 426.39,-267.03"/>
</a>
</g>
</g>
<!-- Node19 -->
<g id="Node000019" class="node">
<title>Node19</title>
<g id="a_Node000019"><a xlink:href="units_8h.html#a26dfa6ea5330d6e36fffea1cc12edd00" target="_top" xlink:title=" ">
<polygon fill="white" stroke="#666666" points="687.12,-269.25 614.88,-269.25 614.88,-250 687.12,-250 687.12,-269.25"/>
<text text-anchor="middle" x="651" y="-255.75" font-family="Helvetica,sans-Serif" font-size="10.00">radians_from</text>
</a>
</g>
</g>
<!-- Node18&#45;&gt;Node19 -->
<g id="edge23_Node000018_Node000019" class="edge">
<title>Node18&#45;&gt;Node19</title>
<g id="a_edge23_Node000018_Node000019"><a xlink:title=" ">
<path fill="none" stroke="#63b8ff" d="M530,-259.62C552.79,-259.62 580.41,-259.62 603.4,-259.62"/>
<polygon fill="#63b8ff" stroke="#63b8ff" points="603.1,-263.13 613.1,-259.63 603.1,-256.13 603.1,-263.13"/>
</a>
</g>
</g>
<!-- Node24 -->
<g id="Node000024" class="node">
<title>Node24</title>
<g id="a_Node000024"><a xlink:href="vcu_8c.html#a9ed43192c6ad8509d1fdfcf32ab26a4c" target="_top" xlink:title=" ">
<polygon fill="white" stroke="#666666" points="374.25,-206.25 270.5,-206.25 270.5,-187 374.25,-187 374.25,-206.25"/>
<text text-anchor="middle" x="322.38" y="-192.75" font-family="Helvetica,sans-Serif" font-size="10.00">render_vcu_element</text>
</a>
</g>
</g>
<!-- Node23&#45;&gt;Node24 -->
<g id="edge29_Node000023_Node000024" class="edge">
<title>Node23&#45;&gt;Node24</title>
<g id="a_edge29_Node000023_Node000024"><a xlink:title=" ">
<path fill="none" stroke="#63b8ff" d="M208.89,-260.66C214.14,-258.4 219.37,-255.72 224,-252.62 243.33,-239.68 240.15,-226.76 260,-214.62 262,-213.4 264.08,-212.26 266.23,-211.19"/>
<polygon fill="#63b8ff" stroke="#63b8ff" points="267.41,-214.49 275.21,-207.32 264.64,-208.07 267.41,-214.49"/>
</a>
</g>
</g>
<!-- Node28 -->
<g id="Node000028" class="node">
<title>Node28</title>
<g id="a_Node000028"><a xlink:href="vcu_8c.html#a6caabd0f1b9de183fbb9454dd432bbc7" target="_top" xlink:title=" ">
<polygon fill="white" stroke="#666666" points="384.75,-243.25 260,-243.25 260,-224 384.75,-224 384.75,-243.25"/>
<text text-anchor="middle" x="322.38" y="-229.75" font-family="Helvetica,sans-Serif" font-size="10.00">send_vcu_driver_request</text>
</a>
</g>
</g>
<!-- Node23&#45;&gt;Node28 -->
<g id="edge39_Node000023_Node000028" class="edge">
<title>Node23&#45;&gt;Node28</title>
<g id="a_edge39_Node000023_Node000028"><a xlink:title=" ">
<path fill="none" stroke="#63b8ff" d="M216.63,-260.51C233.39,-256.21 253.15,-251.14 270.96,-246.57"/>
<polygon fill="#63b8ff" stroke="#63b8ff" points="271.76,-249.98 280.57,-244.1 270.02,-243.2 271.76,-249.98"/>
</a>
</g>
</g>
<!-- Node25 -->
<g id="Node000025" class="node">
<title>Node25</title>
<g id="a_Node000025"><a xlink:href="nextion_8c.html#ab2a89fd8e292338a6e570a41a698ad3a" target="_top" xlink:title="Sets the text of a Nextion display object.">
<polygon fill="white" stroke="#666666" points="520.75,-158.25 447,-158.25 447,-139 520.75,-139 520.75,-158.25"/>
<text text-anchor="middle" x="483.88" y="-144.75" font-family="Helvetica,sans-Serif" font-size="10.00">NXT_setText</text>
</a>
</g>
</g>
<!-- Node24&#45;&gt;Node25 -->
<g id="edge30_Node000024_Node000025" class="edge">
<title>Node24&#45;&gt;Node25</title>
<g id="a_edge30_Node000024_Node000025"><a xlink:title=" ">
<path fill="none" stroke="#63b8ff" d="M355.97,-186.52C379.26,-179.31 408.55,-170.27 420.75,-166.62 425.92,-165.08 431.35,-163.48 436.74,-161.9"/>
<polygon fill="#63b8ff" stroke="#63b8ff" points="437.62,-165.29 446.24,-159.13 435.66,-158.57 437.62,-165.29"/>
</a>
</g>
</g>
<!-- Node26 -->
<g id="Node000026" class="node">
<title>Node26</title>
<g id="a_Node000026"><a xlink:href="nextion_8c.html#a8af8629d8160abf996231ff267e43564" target="_top" xlink:title="Sets the text of a Nextion display object using printf&#45;style formatting.">
<polygon fill="white" stroke="#666666" points="542.88,-232.25 424.88,-232.25 424.88,-213 542.88,-213 542.88,-232.25"/>
<text text-anchor="middle" x="483.88" y="-218.75" font-family="Helvetica,sans-Serif" font-size="10.00">NXT_setTextFormatted</text>
</a>
</g>
</g>
<!-- Node24&#45;&gt;Node26 -->
<g id="edge33_Node000024_Node000026" class="edge">
<title>Node24&#45;&gt;Node26</title>
<g id="a_edge33_Node000024_Node000026"><a xlink:title=" ">
<path fill="none" stroke="#63b8ff" d="M374.72,-204.99C386.98,-206.99 400.26,-209.16 413.19,-211.27"/>
<polygon fill="#63b8ff" stroke="#63b8ff" points="412.49,-214.7 422.93,-212.85 413.62,-207.79 412.49,-214.7"/>
</a>
</g>
</g>
<!-- Node27 -->
<g id="Node000027" class="node">
<title>Node27</title>
<g id="a_Node000027"><a xlink:href="nextion_8c.html#ac7e3e9fc4674d17281069e97b8a5384d" target="_top" xlink:title="Sets a value to a specified object on the Nextion display.">
<polygon fill="white" stroke="#666666" points="523.75,-195.25 444,-195.25 444,-176 523.75,-176 523.75,-195.25"/>
<text text-anchor="middle" x="483.88" y="-181.75" font-family="Helvetica,sans-Serif" font-size="10.00">NXT_setValue</text>
</a>
</g>
</g>
<!-- Node24&#45;&gt;Node27 -->
<g id="edge36_Node000024_Node000027" class="edge">
<title>Node24&#45;&gt;Node27</title>
<g id="a_edge36_Node000024_Node000027"><a xlink:title=" ">
<path fill="none" stroke="#63b8ff" d="M374.72,-193.08C393.11,-191.82 413.82,-190.39 432.15,-189.12"/>
<polygon fill="#63b8ff" stroke="#63b8ff" points="432.27,-192.62 442.01,-188.44 431.79,-185.64 432.27,-192.62"/>
</a>
</g>
</g>
<!-- Node25&#45;&gt;Node5 -->
<g id="edge31_Node000025_Node000005" class="edge">
<title>Node25&#45;&gt;Node5</title>
<g id="a_edge31_Node000025_Node000005"><a xlink:title=" ">
<path fill="none" stroke="#63b8ff" d="M521.11,-148.62C544.41,-148.62 574.99,-148.62 600.51,-148.62"/>
<polygon fill="#63b8ff" stroke="#63b8ff" points="600.32,-152.13 610.32,-148.63 600.32,-145.13 600.32,-152.13"/>
</a>
</g>
</g>
<!-- Node25&#45;&gt;Node6 -->
<g id="edge32_Node000025_Node000006" class="edge">
<title>Node25&#45;&gt;Node6</title>
<g id="a_edge32_Node000025_Node000006"><a xlink:title=" ">
<path fill="none" stroke="#63b8ff" d="M521.11,-156.74C546.03,-162.33 579.28,-169.78 605.76,-175.71"/>
<polygon fill="#63b8ff" stroke="#63b8ff" points="604.66,-179.05 615.18,-177.82 606.19,-172.22 604.66,-179.05"/>
</a>
</g>
</g>
<!-- Node26&#45;&gt;Node5 -->
<g id="edge34_Node000026_Node000005" class="edge">
<title>Node26&#45;&gt;Node5</title>
<g id="a_edge34_Node000026_Node000005"><a xlink:title=" ">
<path fill="none" stroke="#63b8ff" d="M530.2,-212.58C536.06,-210.4 541.82,-207.78 547,-204.62 566.87,-192.52 563.02,-178.53 583,-166.62 588.63,-163.27 594.9,-160.52 601.28,-158.28"/>
<polygon fill="#63b8ff" stroke="#63b8ff" points="602.05,-161.71 610.58,-155.42 599.99,-155.02 602.05,-161.71"/>
</a>
</g>
</g>
<!-- Node26&#45;&gt;Node6 -->
<g id="edge35_Node000026_Node000006" class="edge">
<title>Node26&#45;&gt;Node6</title>
<g id="a_edge35_Node000026_Node000006"><a xlink:title=" ">
<path fill="none" stroke="#63b8ff" d="M530,-212.51C553.55,-207.24 582.26,-200.8 605.69,-195.55"/>
<polygon fill="#63b8ff" stroke="#63b8ff" points="606.25,-199.01 615.24,-193.41 604.72,-192.18 606.25,-199.01"/>
</a>
</g>
</g>
<!-- Node27&#45;&gt;Node5 -->
<g id="edge37_Node000027_Node000005" class="edge">
<title>Node27&#45;&gt;Node5</title>
<g id="a_edge37_Node000027_Node000005"><a xlink:title=" ">
<path fill="none" stroke="#63b8ff" d="M524.01,-176.86C547.08,-171.69 576.48,-165.1 601.08,-159.59"/>
<polygon fill="#63b8ff" stroke="#63b8ff" points="601.53,-163.07 610.53,-157.47 600,-156.24 601.53,-163.07"/>
</a>
</g>
</g>
<!-- Node27&#45;&gt;Node6 -->
<g id="edge38_Node000027_Node000006" class="edge">
<title>Node27&#45;&gt;Node6</title>
<g id="a_edge38_Node000027_Node000006"><a xlink:title=" ">
<path fill="none" stroke="#63b8ff" d="M524.01,-185.62C548.49,-185.62 580.09,-185.62 605.52,-185.62"/>
<polygon fill="#63b8ff" stroke="#63b8ff" points="605.21,-189.13 615.21,-185.63 605.21,-182.13 605.21,-189.13"/>
</a>
</g>
</g>
<!-- Node29 -->
<g id="Node000029" class="node">
<title>Node29</title>
<g id="a_Node000029"><a xlink:href="DASHBOARD_8h.html#af364a5f3bec64e720de8710595b9b01f" target="_top" xlink:title=" ">
<polygon fill="white" stroke="#666666" points="543.62,-317.88 424.12,-317.88 424.12,-287.38 543.62,-287.38 543.62,-317.88"/>
<text text-anchor="start" x="432.12" y="-304.38" font-family="Helvetica,sans-Serif" font-size="10.00">CAN_SEND_vcu_driver</text>
<text text-anchor="middle" x="483.88" y="-293.12" font-family="Helvetica,sans-Serif" font-size="10.00">_request</text>
</a>
</g>
</g>
<!-- Node28&#45;&gt;Node29 -->
<g id="edge40_Node000028_Node000029" class="edge">
<title>Node28&#45;&gt;Node29</title>
<g id="a_edge40_Node000028_Node000029"><a xlink:title=" ">
<path fill="none" stroke="#63b8ff" d="M365.09,-243.66C371.82,-245.9 378.59,-248.54 384.75,-251.62 402.63,-260.58 403.26,-268.93 420.75,-278.62 422.93,-279.83 425.18,-281.01 427.47,-282.14"/>
<polygon fill="#63b8ff" stroke="#63b8ff" points="425.83,-285.24 436.37,-286.25 428.76,-278.88 425.83,-285.24"/>
</a>
</g>
</g>
<!-- Node29&#45;&gt;Node9 -->
<g id="edge41_Node000029_Node000009" class="edge">
<title>Node29&#45;&gt;Node9</title>
<g id="a_edge41_Node000029_Node000009"><a xlink:title=" ">
<path fill="none" stroke="#63b8ff" d="M544.02,-318.03C562.48,-322.83 582.64,-328.08 600.38,-332.7"/>
<polygon fill="#63b8ff" stroke="#63b8ff" points="599.33,-336.05 609.89,-335.18 601.09,-329.27 599.33,-336.05"/>
</a>
</g>
</g>
<!-- Node29&#45;&gt;Node10 -->
<g id="edge42_Node000029_Node000010" class="edge">
<title>Node29&#45;&gt;Node10</title>
<g id="a_edge42_Node000029_Node000010"><a xlink:title=" ">
<path fill="none" stroke="#63b8ff" d="M535.67,-318.35C539.75,-320.74 543.6,-323.49 547,-326.62 574.16,-351.72 554.55,-378.01 583,-401.62 583.95,-402.41 584.93,-403.17 585.94,-403.89"/>
<polygon fill="#63b8ff" stroke="#63b8ff" points="583.93,-406.77 594.34,-408.78 587.45,-400.72 583.93,-406.77"/>
</a>
</g>
</g>
<!-- Node29&#45;&gt;Node12 -->
<g id="edge43_Node000029_Node000012" class="edge">
<title>Node29&#45;&gt;Node12</title>
<g id="a_edge43_Node000029_Node000012"><a xlink:title=" ">
<path fill="none" stroke="#63b8ff" d="M532.14,-318.29C537.32,-320.76 542.39,-323.53 547,-326.62 566.32,-339.58 563.02,-352.72 583,-364.62 585.14,-365.9 587.38,-367.09 589.68,-368.2"/>
<polygon fill="#63b8ff" stroke="#63b8ff" points="588.1,-371.33 598.67,-371.95 590.79,-364.87 588.1,-371.33"/>
</a>
</g>
</g>
<!-- Node30&#45;&gt;Node24 -->
<g id="edge46_Node000030_Node000024" class="edge">
<title>Node30&#45;&gt;Node24</title>
<g id="a_edge46_Node000030_Node000024"><a xlink:title=" ">
<path fill="none" stroke="#63b8ff" d="M216.63,-223.51C233.39,-219.21 253.15,-214.14 270.96,-209.57"/>
<polygon fill="#63b8ff" stroke="#63b8ff" points="271.76,-212.98 280.57,-207.1 270.02,-206.2 271.76,-212.98"/>
</a>
</g>
</g>
<!-- Node30&#45;&gt;Node28 -->
<g id="edge47_Node000030_Node000028" class="edge">
<title>Node30&#45;&gt;Node28</title>
<g id="a_edge47_Node000030_Node000028"><a xlink:title=" ">
<path fill="none" stroke="#63b8ff" d="M223.65,-233.62C231.51,-233.62 239.84,-233.62 248.19,-233.62"/>
<polygon fill="#63b8ff" stroke="#63b8ff" points="248.04,-237.13 258.04,-233.63 248.04,-230.13 248.04,-237.13"/>
</a>
</g>
</g>
<!-- Node31 -->
<g id="Node000031" class="node">
<title>Node31</title>
<g id="a_Node000031"><a xlink:href="vcu_8c.html#aee9c1d376f08e7b4159c70ada5b8c4ab" target="_top" xlink:title=" ">
<polygon fill="white" stroke="#666666" points="372.38,-168.88 272.38,-168.88 272.38,-138.38 372.38,-138.38 372.38,-168.88"/>
<text text-anchor="start" x="280.38" y="-155.38" font-family="Helvetica,sans-Serif" font-size="10.00">binding_to_element</text>
<text text-anchor="middle" x="322.38" y="-144.12" font-family="Helvetica,sans-Serif" font-size="10.00">_index</text>
</a>
</g>
</g>
<!-- Node30&#45;&gt;Node31 -->
<g id="edge45_Node000030_Node000031" class="edge">
<title>Node30&#45;&gt;Node31</title>
<g id="a_edge45_Node000030_Node000031"><a xlink:title=" ">
<path fill="none" stroke="#63b8ff" d="M208.89,-223.66C214.14,-221.4 219.37,-218.72 224,-215.62 243.33,-202.68 240.7,-190.62 260,-177.62 261.57,-176.57 263.18,-175.55 264.84,-174.57"/>
<polygon fill="#63b8ff" stroke="#63b8ff" points="266.16,-177.83 273.35,-170.05 262.88,-171.65 266.16,-177.83"/>
</a>
</g>
</g>
</g>
</svg>
