<?xml version="1.0" encoding="UTF-8" standalone="no"?>
<!DOCTYPE svg PUBLIC "-//W3C//DTD SVG 1.1//EN"
 "http://www.w3.org/Graphics/SVG/1.1/DTD/svg11.dtd">
<!-- Generated by graphviz version 12.2.0 (20241103.1931)
 -->
<!-- Title: firmware/source/torque_vector/sensors/imu.c Pages: 1 -->
<!--zoomable 216 -->

<svg id="main" version="1.1" xmlns="http://www.w3.org/2000/svg" xmlns:xlink="http://www.w3.org/1999/xlink" xml:space="preserve" onload="init(evt)">

<style type="text/css"><![CDATA[
.node, .edge {opacity: 0.7;}
.node.selected, .edge.selected {opacity: 1;}
.edge:hover path { stroke: red; }
.edge:hover polygon { stroke: red; fill: red; }
]]></style>

<defs>
  <circle id="rim" cx="0" cy="0" r="7"/>
  <circle id="rim2" cx="0" cy="0" r="3.5"/>
  <g id="zoomPlus">
    <use xlink:href="#rim" fill="#404040"><set attributeName="fill" to="#808080" begin="zoomplus.mouseover" end="zoomplus.mouseout"/></use>
    <path d="M-4,0h8M0,-4v8" fill="none" stroke="white" stroke-width="1.5" pointer-events="none"/>
  </g>
  <g id="zoomMin">
    <use xlink:href="#rim" fill="#404040"><set attributeName="fill" to="#808080" begin="zoomminus.mouseover" end="zoomminus.mouseout"/></use>
    <path d="M-4,0h8" fill="none" stroke="white" stroke-width="1.5" pointer-events="none"/>
  </g>
  <g id="arrowUp" transform="translate(30 24)">
    <use xlink:href="#rim"/>
    <path pointer-events="none" fill="none" stroke="white" stroke-width="1.5" d="M0,-3.0v7 M-2.5,-0.5L0,-3.0L2.5,-0.5"/>
  </g>
  <g id="arrowRight" transform="rotate(90) translate(36 -43)">
    <use xlink:href="#rim"/>
    <path pointer-events="none" fill="none" stroke="white" stroke-width="1.5" d="M0,-3.0v7 M-2.5,-0.5L0,-3.0L2.5,-0.5"/>
  </g>
  <g id="arrowDown" transform="rotate(180) translate(-30 -48)">
    <use xlink:href="#rim"/>
    <path pointer-events="none" fill="none" stroke="white" stroke-width="1.5" d="M0,-3.0v7 M-2.5,-0.5L0,-3.0L2.5,-0.5"/>
  </g>
  <g id="arrowLeft" transform="rotate(270) translate(-36 17)">
    <use xlink:href="#rim"/>
    <path pointer-events="none" fill="none" stroke="white" stroke-width="1.5" d="M0,-3.0v7 M-2.5,-0.5L0,-3.0L2.5,-0.5"/>
  </g>
  <g id="resetDef">
    <use xlink:href="#rim2" fill="#404040"><set attributeName="fill" to="#808080" begin="reset.mouseover" end="reset.mouseout"/></use>
  </g>
</defs>
<script type="application/ecmascript">
var viewWidth = 598;
var viewHeight = 216;
var sectionId = 'dynsection-0';
</script>
<script type="application/ecmascript" xlink:href="svg.min.js"/>
<svg id="graph" class="graph">
<g id="viewport">
<title>firmware/source/torque_vector/sensors/imu.c</title>
<!-- Node1 -->
<g id="Node000001" class="node">
<title>Node1</title>
<g id="a_Node000001"><a xlink:title="IMU calibration and coordinate transformations.">
<polygon fill="#999999" stroke="#666666" points="364.88,-207.5 249.88,-207.5 249.88,-177 364.88,-177 364.88,-207.5"/>
<text text-anchor="start" x="257.88" y="-194" font-family="Helvetica,sans-Serif" font-size="10.00">firmware/source/torque</text>
<text text-anchor="middle" x="307.38" y="-182.75" font-family="Helvetica,sans-Serif" font-size="10.00">_vector/sensors/imu.c</text>
</a>
</g>
</g>
<!-- Node2 -->
<g id="Node000002" class="node">
<title>Node2</title>
<g id="a_Node000002"><a xlink:title=" ">
<polygon fill="#e0e0e0" stroke="#999999" points="112.75,-141 0,-141 0,-110.5 112.75,-110.5 112.75,-141"/>
<text text-anchor="start" x="8" y="-127.5" font-family="Helvetica,sans-Serif" font-size="10.00">can_library/generated</text>
<text text-anchor="middle" x="56.38" y="-116.25" font-family="Helvetica,sans-Serif" font-size="10.00">/TORQUE_VECTOR.h</text>
</a>
</g>
</g>
<!-- Node1&#45;&gt;Node2 -->
<g id="edge1_Node000001_Node000002" class="edge">
<title>Node1&#45;&gt;Node2</title>
<g id="a_edge1_Node000001_Node000002"><a xlink:title=" ">
<path fill="none" stroke="#63b8ff" d="M250.11,-176.53C212.63,-166.9 163.48,-154.27 124.07,-144.15"/>
<polygon fill="#63b8ff" stroke="#63b8ff" points="124.99,-140.77 114.43,-141.67 123.25,-147.55 124.99,-140.77"/>
</a>
</g>
</g>
<!-- Node3 -->
<g id="Node000003" class="node">
<title>Node3</title>
<g id="a_Node000003"><a xlink:href="orientation_8h.html" target="_top" xlink:title=" ">
<polygon fill="white" stroke="#666666" points="260.38,-135.38 130.38,-135.38 130.38,-116.12 260.38,-116.12 260.38,-135.38"/>
<text text-anchor="middle" x="195.38" y="-121.88" font-family="Helvetica,sans-Serif" font-size="10.00">common/utils/orientation.h</text>
</a>
</g>
</g>
<!-- Node1&#45;&gt;Node3 -->
<g id="edge2_Node000001_Node000003" class="edge">
<title>Node1&#45;&gt;Node3</title>
<g id="a_edge2_Node000001_Node000003"><a xlink:title=" ">
<path fill="none" stroke="#63b8ff" d="M281.96,-176.61C263.72,-166.11 239.25,-152.02 220.97,-141.49"/>
<polygon fill="#63b8ff" stroke="#63b8ff" points="222.74,-138.47 212.33,-136.52 219.25,-144.54 222.74,-138.47"/>
</a>
</g>
</g>
<!-- Node6 -->
<g id="Node000006" class="node">
<title>Node6</title>
<g id="a_Node000006"><a xlink:href="sensors_8h.html" target="_top" xlink:title="TV Managed sensor header.">
<polygon fill="white" stroke="#666666" points="336.38,-135.38 278.38,-135.38 278.38,-116.12 336.38,-116.12 336.38,-135.38"/>
<text text-anchor="middle" x="307.38" y="-121.88" font-family="Helvetica,sans-Serif" font-size="10.00">sensors.h</text>
</a>
</g>
</g>
<!-- Node1&#45;&gt;Node6 -->
<g id="edge5_Node000001_Node000006" class="edge">
<title>Node1&#45;&gt;Node6</title>
<g id="a_edge5_Node000001_Node000006"><a xlink:title=" ">
<path fill="none" stroke="#63b8ff" d="M307.38,-176.61C307.38,-167.83 307.38,-156.52 307.38,-146.9"/>
<polygon fill="#63b8ff" stroke="#63b8ff" points="310.88,-147.09 307.38,-137.09 303.88,-147.09 310.88,-147.09"/>
</a>
</g>
</g>
<!-- Node11 -->
<g id="Node000011" class="node">
<title>Node11</title>
<g id="a_Node000011"><a xlink:href="units_8h.html" target="_top" xlink:title="SI and Imperial unit defs and conversion functions.">
<polygon fill="white" stroke="#666666" points="460.38,-135.38 354.38,-135.38 354.38,-116.12 460.38,-116.12 460.38,-135.38"/>
<text text-anchor="middle" x="407.38" y="-121.88" font-family="Helvetica,sans-Serif" font-size="10.00">common/utils/units.h</text>
</a>
</g>
</g>
<!-- Node1&#45;&gt;Node11 -->
<g id="edge13_Node000001_Node000011" class="edge">
<title>Node1&#45;&gt;Node11</title>
<g id="a_edge13_Node000001_Node000011"><a xlink:title=" ">
<path fill="none" stroke="#63b8ff" d="M330.07,-176.61C346.2,-166.21 367.8,-152.28 384.06,-141.79"/>
<polygon fill="#63b8ff" stroke="#63b8ff" points="385.63,-144.94 392.13,-136.58 381.83,-139.06 385.63,-144.94"/>
</a>
</g>
</g>
<!-- Node12 -->
<g id="Node000012" class="node">
<title>Node12</title>
<g id="a_Node000012"><a xlink:href="clamp_8h.html" target="_top" xlink:title="Utility header to clamp a value to a bounded range.">
<polygon fill="white" stroke="#666666" points="590,-135.38 478.75,-135.38 478.75,-116.12 590,-116.12 590,-135.38"/>
<text text-anchor="middle" x="534.38" y="-121.88" font-family="Helvetica,sans-Serif" font-size="10.00">common/utils/clamp.h</text>
</a>
</g>
</g>
<!-- Node1&#45;&gt;Node12 -->
<g id="edge14_Node000001_Node000012" class="edge">
<title>Node1&#45;&gt;Node12</title>
<g id="a_edge14_Node000001_Node000012"><a xlink:title=" ">
<path fill="none" stroke="#63b8ff" d="M359.17,-176.53C399.3,-165.13 454.23,-149.52 491.82,-138.84"/>
<polygon fill="#63b8ff" stroke="#63b8ff" points="492.3,-142.34 500.96,-136.24 490.38,-135.61 492.3,-142.34"/>
</a>
</g>
</g>
<!-- Node4 -->
<g id="Node000004" class="node">
<title>Node4</title>
<g id="a_Node000004"><a xlink:href="linear__algebra_8h.html" target="_top" xlink:title="Linear algebra functions utility header.">
<polygon fill="white" stroke="#666666" points="135.12,-74.5 51.62,-74.5 51.62,-55.25 135.12,-55.25 135.12,-74.5"/>
<text text-anchor="middle" x="93.38" y="-61" font-family="Helvetica,sans-Serif" font-size="10.00">linear_algebra.h</text>
</a>
</g>
</g>
<!-- Node3&#45;&gt;Node4 -->
<g id="edge3_Node000003_Node000004" class="edge">
<title>Node3&#45;&gt;Node4</title>
<g id="a_edge3_Node000003_Node000004"><a xlink:title=" ">
<path fill="none" stroke="#63b8ff" d="M179.88,-115.81C163.71,-106.47 138.07,-91.67 118.9,-80.61"/>
<polygon fill="#63b8ff" stroke="#63b8ff" points="120.73,-77.63 110.32,-75.66 117.23,-83.69 120.73,-77.63"/>
</a>
</g>
</g>
<!-- Node5 -->
<g id="Node000005" class="node">
<title>Node5</title>
<g id="a_Node000005"><a xlink:title=" ">
<polygon fill="#e0e0e0" stroke="#999999" points="116,-19.25 70.75,-19.25 70.75,0 116,0 116,-19.25"/>
<text text-anchor="middle" x="93.38" y="-5.75" font-family="Helvetica,sans-Serif" font-size="10.00">math.h</text>
</a>
</g>
</g>
<!-- Node4&#45;&gt;Node5 -->
<g id="edge4_Node000004_Node000005" class="edge">
<title>Node4&#45;&gt;Node5</title>
<g id="a_edge4_Node000004_Node000005"><a xlink:title=" ">
<path fill="none" stroke="#63b8ff" d="M93.38,-55.08C93.38,-48.57 93.38,-39.42 93.38,-31.12"/>
<polygon fill="#63b8ff" stroke="#63b8ff" points="96.88,-31.12 93.38,-21.12 89.88,-31.12 96.88,-31.12"/>
</a>
</g>
</g>
<!-- Node7 -->
<g id="Node000007" class="node">
<title>Node7</title>
<g id="a_Node000007"><a xlink:title=" ">
<polygon fill="#e0e0e0" stroke="#999999" points="409.12,-19.25 361.62,-19.25 361.62,0 409.12,0 409.12,-19.25"/>
<text text-anchor="middle" x="385.38" y="-5.75" font-family="Helvetica,sans-Serif" font-size="10.00">stdint.h</text>
</a>
</g>
</g>
<!-- Node6&#45;&gt;Node7 -->
<g id="edge6_Node000006_Node000007" class="edge">
<title>Node6&#45;&gt;Node7</title>
<g id="a_edge6_Node000006_Node000007"><a xlink:title=" ">
<path fill="none" stroke="#63b8ff" d="M331.03,-115.69C335.77,-113.93 340.72,-112.13 345.38,-110.5 394.33,-93.39 425.88,-116.45 456.38,-74.5 470.96,-54.43 444.24,-36 419.52,-24.15"/>
<polygon fill="#63b8ff" stroke="#63b8ff" points="421.11,-21.03 410.55,-20.11 418.23,-27.41 421.11,-21.03"/>
</a>
</g>
</g>
<!-- Node8 -->
<g id="Node000008" class="node">
<title>Node8</title>
<g id="a_Node000008"><a xlink:href="nav__pvt_8h.html" target="_top" xlink:title="UBX NAV&#45;PVT message definition and decoder function.">
<polygon fill="white" stroke="#666666" points="447.38,-74.5 323.38,-74.5 323.38,-55.25 447.38,-55.25 447.38,-74.5"/>
<text text-anchor="middle" x="385.38" y="-61" font-family="Helvetica,sans-Serif" font-size="10.00">common/ublox/nav_pvt.h</text>
</a>
</g>
</g>
<!-- Node6&#45;&gt;Node8 -->
<g id="edge7_Node000006_Node000008" class="edge">
<title>Node6&#45;&gt;Node8</title>
<g id="a_edge7_Node000006_Node000008"><a xlink:title=" ">
<path fill="none" stroke="#63b8ff" d="M319.22,-115.81C331.25,-106.73 350.11,-92.49 364.62,-81.54"/>
<polygon fill="#63b8ff" stroke="#63b8ff" points="366.34,-84.63 372.21,-75.81 362.12,-79.04 366.34,-84.63"/>
</a>
</g>
</g>
<!-- Node10 -->
<g id="Node000010" class="node">
<title>Node10</title>
<g id="a_Node000010"><a xlink:href="nav__relposned_8h.html" target="_top" xlink:title="UBX NAV&#45;RELPOSNED message definition and decoder function.">
<polygon fill="white" stroke="#666666" points="305.62,-74.5 153.12,-74.5 153.12,-55.25 305.62,-55.25 305.62,-74.5"/>
<text text-anchor="middle" x="229.38" y="-61" font-family="Helvetica,sans-Serif" font-size="10.00">common/ublox/nav_relposned.h</text>
</a>
</g>
</g>
<!-- Node6&#45;&gt;Node10 -->
<g id="edge10_Node000006_Node000010" class="edge">
<title>Node6&#45;&gt;Node10</title>
<g id="a_edge10_Node000006_Node000010"><a xlink:title=" ">
<path fill="none" stroke="#63b8ff" d="M295.53,-115.81C283.5,-106.73 264.64,-92.49 250.13,-81.54"/>
<polygon fill="#63b8ff" stroke="#63b8ff" points="252.63,-79.04 242.54,-75.81 248.41,-84.63 252.63,-79.04"/>
</a>
</g>
</g>
<!-- Node8&#45;&gt;Node7 -->
<g id="edge8_Node000008_Node000007" class="edge">
<title>Node8&#45;&gt;Node7</title>
<g id="a_edge8_Node000008_Node000007"><a xlink:title=" ">
<path fill="none" stroke="#63b8ff" d="M385.38,-55.08C385.38,-48.57 385.38,-39.42 385.38,-31.12"/>
<polygon fill="#63b8ff" stroke="#63b8ff" points="388.88,-31.12 385.38,-21.12 381.88,-31.12 388.88,-31.12"/>
</a>
</g>
</g>
<!-- Node9 -->
<g id="Node000009" class="node">
<title>Node9</title>
<g id="a_Node000009"><a xlink:title=" ">
<polygon fill="#e0e0e0" stroke="#999999" points="298.62,-19.25 248.12,-19.25 248.12,0 298.62,0 298.62,-19.25"/>
<text text-anchor="middle" x="273.38" y="-5.75" font-family="Helvetica,sans-Serif" font-size="10.00">stddef.h</text>
</a>
</g>
</g>
<!-- Node8&#45;&gt;Node9 -->
<g id="edge9_Node000008_Node000009" class="edge">
<title>Node8&#45;&gt;Node9</title>
<g id="a_edge9_Node000008_Node000009"><a xlink:title=" ">
<path fill="none" stroke="#63b8ff" d="M366.38,-54.84C348.92,-46.54 322.78,-34.11 302.65,-24.54"/>
<polygon fill="#63b8ff" stroke="#63b8ff" points="304.37,-21.49 293.83,-20.35 301.36,-27.81 304.37,-21.49"/>
</a>
</g>
</g>
<!-- Node10&#45;&gt;Node7 -->
<g id="edge11_Node000010_Node000007" class="edge">
<title>Node10&#45;&gt;Node7</title>
<g id="a_edge11_Node000010_Node000007"><a xlink:title=" ">
<path fill="none" stroke="#63b8ff" d="M255.84,-54.84C281.93,-45.94 321.95,-32.28 350.6,-22.5"/>
<polygon fill="#63b8ff" stroke="#63b8ff" points="351.58,-25.86 359.91,-19.32 349.32,-19.23 351.58,-25.86"/>
</a>
</g>
</g>
<!-- Node10&#45;&gt;Node9 -->
<g id="edge12_Node000010_Node000009" class="edge">
<title>Node10&#45;&gt;Node9</title>
<g id="a_edge12_Node000010_Node000009"><a xlink:title=" ">
<path fill="none" stroke="#63b8ff" d="M236.64,-55.08C242.66,-47.8 251.39,-37.23 258.83,-28.23"/>
<polygon fill="#63b8ff" stroke="#63b8ff" points="261.32,-30.71 264.99,-20.78 255.92,-26.26 261.32,-30.71"/>
</a>
</g>
</g>
</g>
</svg>

<g id="navigator" transform="translate(0 0)" fill="#404254">
  <rect fill="#f2f5e9" fill-opacity="0.5" stroke="#606060" stroke-width=".5" x="0" y="0" width="60" height="60"/>
  <use id="zoomplus" xlink:href="#zoomPlus" x="17" y="9" onmousedown="handleZoom(evt,'in')"/>
  <use id="zoomminus" xlink:href="#zoomMin" x="42" y="9" onmousedown="handleZoom(evt,'out')"/>
  <use id="reset" xlink:href="#resetDef" x="30" y="36" onmousedown="handleReset()"/>
   <use id="arrowup" xlink:href="#arrowUp" x="0" y="0" onmousedown="handlePan(0,-1)"/>
  <use id="arrowright" xlink:href="#arrowRight" x="0" y="0" onmousedown="handlePan(1,0)"/>
  <use id="arrowdown" xlink:href="#arrowDown" x="0" y="0" onmousedown="handlePan(0,1)"/>
  <use id="arrowleft" xlink:href="#arrowLeft" x="0" y="0" onmousedown="handlePan(-1,0)"/>
</g>
<svg viewBox="0 0 15 15" width="100%" height="30px" preserveAspectRatio="xMaxYMin meet">
 <g id="arrow_out" transform="scale(0.3 0.3)">
  <a xlink:href="imu_8c__incl_org.svg" target="_base">
   <rect id="button" ry="5" rx="5" y="6" x="6" height="38" width="38"
        fill="#f2f5e9" fill-opacity="0.5" stroke="#606060" stroke-width="1.0"/>
   <path id="arrow"
     d="M 11.500037,31.436501 C 11.940474,20.09759 22.043105,11.32322 32.158766,21.979434 L 37.068811,17.246167 C 37.068811,17.246167 37.088388,32 37.088388,32 L 22.160133,31.978069 C 22.160133,31.978069 26.997745,27.140456 26.997745,27.140456 C 18.528582,18.264221 13.291696,25.230495 11.500037,31.436501 z"
     style="fill:#404040;"/>
  </a>
 </g>
</svg>

<style type='text/css'>
<![CDATA[
[data-mouse-over-selected='false'] { opacity: 0.7; }
[data-mouse-over-selected='true']  { opacity: 1.0; }
]]>
</style>
<script type="application/ecmascript"><![CDATA[
document.addEventListener('DOMContentLoaded', (event) => {
  highlightEdges();
  highlightAdjacentNodes();
});
]]></script>
</svg>
