<?xml version="1.0" encoding="UTF-8" standalone="no"?>
<!DOCTYPE svg PUBLIC "-//W3C//DTD SVG 1.1//EN"
 "http://www.w3.org/Graphics/SVG/1.1/DTD/svg11.dtd">
<!-- Generated by graphviz version 12.2.0 (20241103.1931)
 -->
<!-- Title: CAN_SEND_INVC_SET Pages: 1 -->
<svg width="437pt" height="101pt"
 viewBox="0.00 0.00 437.00 101.25" xmlns="http://www.w3.org/2000/svg" xmlns:xlink="http://www.w3.org/1999/xlink">

<svg id="main" version="1.1" xmlns="http://www.w3.org/2000/svg" xmlns:xlink="http://www.w3.org/1999/xlink" xml:space="preserve">

<style type="text/css"><![CDATA[
.node, .edge {opacity: 0.7;}
.node.selected, .edge.selected {opacity: 1;}
.edge:hover path { stroke: red; }
.edge:hover polygon { stroke: red; fill: red; }
]]></style>
<script type="application/ecmascript" xlink:href="svg.min.js"/>
<svg id="graph" class="graph">
<g id="graph0" class="graph" transform="scale(1 1) rotate(0) translate(4 97.25)">
<title>CAN_SEND_INVC_SET</title>
<!-- Node1 -->
<g id="Node000001" class="node">
<title>Node1</title>
<g id="a_Node000001"><a xlink:title=" ">
<polygon fill="#999999" stroke="#666666" points="122.5,-56.25 0,-56.25 0,-37 122.5,-37 122.5,-56.25"/>
<text text-anchor="middle" x="61.25" y="-42.75" font-family="Helvetica,sans-Serif" font-size="10.00">CAN_SEND_INVC_SET</text>
</a>
</g>
</g>
<!-- Node2 -->
<g id="Node000002" class="node">
<title>Node2</title>
<g id="a_Node000002"><a xlink:href="MAIN__MODULE_8h.html#ae0afd2c16e8c1125c2d62d717a8fc155" target="_top" xlink:title=" ">
<polygon fill="white" stroke="#666666" points="294.5,-93.25 158.5,-93.25 158.5,-74 294.5,-74 294.5,-93.25"/>
<text text-anchor="middle" x="226.5" y="-79.75" font-family="Helvetica,sans-Serif" font-size="10.00">CAN_enqueue_tx_FDCAN3</text>
</a>
</g>
</g>
<!-- Node1&#45;&gt;Node2 -->
<g id="edge1_Node000001_Node000002" class="edge">
<title>Node1&#45;&gt;Node2</title>
<g id="a_edge1_Node000001_Node000002"><a xlink:title=" ">
<path fill="none" stroke="#63b8ff" d="M106.86,-56.74C126.29,-61.14 149.28,-66.35 169.82,-71.01"/>
<polygon fill="#63b8ff" stroke="#63b8ff" points="168.94,-74.4 179.47,-73.19 170.49,-67.57 168.94,-74.4"/>
</a>
</g>
</g>
<!-- Node3 -->
<g id="Node000003" class="node">
<title>Node3</title>
<g id="a_Node000003"><a xlink:href="can__codec_8h.html#ac4a71d75c81b7dee78d6c6b19ace0b97" target="_top" xlink:title=" ">
<polygon fill="white" stroke="#666666" points="284,-56.25 169,-56.25 169,-37 284,-37 284,-56.25"/>
<text text-anchor="middle" x="226.5" y="-42.75" font-family="Helvetica,sans-Serif" font-size="10.00">CAN_pack_raw_signal</text>
</a>
</g>
</g>
<!-- Node1&#45;&gt;Node3 -->
<g id="edge2_Node000001_Node000003" class="edge">
<title>Node1&#45;&gt;Node3</title>
<g id="a_edge2_Node000001_Node000003"><a xlink:title=" ">
<path fill="none" stroke="#63b8ff" d="M122.57,-46.62C133.88,-46.62 145.78,-46.62 157.3,-46.62"/>
<polygon fill="#63b8ff" stroke="#63b8ff" points="157.16,-50.13 167.16,-46.63 157.16,-43.13 157.16,-50.13"/>
</a>
</g>
</g>
<!-- Node5 -->
<g id="Node000005" class="node">
<title>Node5</title>
<g id="a_Node000005"><a xlink:href="can__codec_8h.html#a2ba7cd673ebc72d6164e744be452602f" target="_top" xlink:title=" ">
<polygon fill="white" stroke="#666666" points="288.12,-19.25 164.88,-19.25 164.88,0 288.12,0 288.12,-19.25"/>
<text text-anchor="middle" x="226.5" y="-5.75" font-family="Helvetica,sans-Serif" font-size="10.00">CAN_store_payload_u64</text>
</a>
</g>
</g>
<!-- Node1&#45;&gt;Node5 -->
<g id="edge4_Node000001_Node000005" class="edge">
<title>Node1&#45;&gt;Node5</title>
<g id="a_edge4_Node000001_Node000005"><a xlink:title=" ">
<path fill="none" stroke="#63b8ff" d="M106.86,-36.51C126.29,-32.11 149.28,-26.9 169.82,-22.24"/>
<polygon fill="#63b8ff" stroke="#63b8ff" points="170.49,-25.68 179.47,-20.06 168.94,-18.85 170.49,-25.68"/>
</a>
</g>
</g>
<!-- Node4 -->
<g id="Node000004" class="node">
<title>Node4</title>
<g id="a_Node000004"><a xlink:href="can__codec_8h.html#a1ffbd7318559fdd74ae2cb491a424bda" target="_top" xlink:title=" ">
<polygon fill="white" stroke="#666666" points="429,-56.25 330.5,-56.25 330.5,-37 429,-37 429,-56.25"/>
<text text-anchor="middle" x="379.75" y="-42.75" font-family="Helvetica,sans-Serif" font-size="10.00">CAN_apply_bswap</text>
</a>
</g>
</g>
<!-- Node3&#45;&gt;Node4 -->
<g id="edge3_Node000003_Node000004" class="edge">
<title>Node3&#45;&gt;Node4</title>
<g id="a_edge3_Node000003_Node000004"><a xlink:title=" ">
<path fill="none" stroke="#63b8ff" d="M284.25,-46.62C295.57,-46.62 307.49,-46.62 318.9,-46.62"/>
<polygon fill="#63b8ff" stroke="#63b8ff" points="318.6,-50.13 328.6,-46.63 318.6,-43.13 318.6,-50.13"/>
</a>
</g>
</g>
</g>
</svg>
</svg>

<style type='text/css'>
<![CDATA[
[data-mouse-over-selected='false'] { opacity: 0.7; }
[data-mouse-over-selected='true']  { opacity: 1.0; }
]]>
</style>
<script type="application/ecmascript"><![CDATA[
document.addEventListener('DOMContentLoaded', (event) => {
  highlightEdges();
  highlightAdjacentNodes();
});
]]></script>
</svg>
