<?xml version="1.0" encoding="UTF-8" standalone="no"?>
<!DOCTYPE svg PUBLIC "-//W3C//DTD SVG 1.1//EN"
 "http://www.w3.org/Graphics/SVG/1.1/DTD/svg11.dtd">
<!-- Generated by graphviz version 12.2.0 (20241103.1931)
 -->
<!-- Title: firmware/source/main_module/telemetry/telemetry.c Pages: 1 -->
<svg width="441pt" height="238pt"
 viewBox="0.00 0.00 440.60 238.00" xmlns="http://www.w3.org/2000/svg" xmlns:xlink="http://www.w3.org/1999/xlink">
<g id="graph0" class="graph" transform="scale(1 1) rotate(0) translate(4 234)">
<title>firmware/source/main_module/telemetry/telemetry.c</title>
<!-- Node1 -->
<g id="Node000001" class="node">
<title>Node1</title>
<g id="a_Node000001"><a xlink:title="MAIN MODULE telemetry task implementations.">
<polygon fill="#999999" stroke="#666666" points="267.35,-230 121.6,-230 121.6,-199.5 267.35,-199.5 267.35,-230"/>
<text text-anchor="start" x="129.6" y="-216.5" font-family="Helvetica,sans-Serif" font-size="10.00">firmware/source/main</text>
<text text-anchor="middle" x="194.47" y="-205.25" font-family="Helvetica,sans-Serif" font-size="10.00">_module/telemetry/telemetry.c</text>
</a>
</g>
</g>
<!-- Node2 -->
<g id="Node000002" class="node">
<title>Node2</title>
<g id="a_Node000002"><a xlink:href="main__module_2telemetry_2telemetry_8h.html" target="_top" xlink:title="MAIN MODULE telemetry task implementations.">
<polygon fill="white" stroke="#666666" points="81.1,-91.38 17.85,-91.38 17.85,-72.12 81.1,-72.12 81.1,-91.38"/>
<text text-anchor="middle" x="49.47" y="-77.88" font-family="Helvetica,sans-Serif" font-size="10.00">telemetry.h</text>
</a>
</g>
</g>
<!-- Node1&#45;&gt;Node2 -->
<g id="edge1_Node000001_Node000002" class="edge">
<title>Node1&#45;&gt;Node2</title>
<g id="a_edge1_Node000001_Node000002"><a xlink:title=" ">
<path fill="none" stroke="#63b8ff" d="M121.14,-203.58C74.34,-195.41 19.86,-182.21 5.47,-163.5 -10.25,-143.05 11.4,-116.25 29.51,-99.26"/>
<polygon fill="#63b8ff" stroke="#63b8ff" points="31.65,-102.04 36.81,-92.78 27,-96.81 31.65,-102.04"/>
</a>
</g>
</g>
<!-- Node4 -->
<g id="Node000004" class="node">
<title>Node4</title>
<g id="a_Node000004"><a xlink:title=" ">
<polygon fill="#e0e0e0" stroke="#999999" points="122.6,-163.5 14.35,-163.5 14.35,-133 122.6,-133 122.6,-163.5"/>
<text text-anchor="start" x="22.35" y="-150" font-family="Helvetica,sans-Serif" font-size="10.00">can_library/generated</text>
<text text-anchor="middle" x="68.47" y="-138.75" font-family="Helvetica,sans-Serif" font-size="10.00">/MAIN_MODULE.h</text>
</a>
</g>
</g>
<!-- Node1&#45;&gt;Node4 -->
<g id="edge3_Node000001_Node000004" class="edge">
<title>Node1&#45;&gt;Node4</title>
<g id="a_edge3_Node000001_Node000004"><a xlink:title=" ">
<path fill="none" stroke="#63b8ff" d="M165.88,-199.11C148.48,-190.21 126.04,-178.72 107.07,-169.01"/>
<polygon fill="#63b8ff" stroke="#63b8ff" points="108.8,-165.96 98.3,-164.52 105.61,-172.19 108.8,-165.96"/>
</a>
</g>
</g>
<!-- Node5 -->
<g id="Node000005" class="node">
<title>Node5</title>
<g id="a_Node000005"><a xlink:title=" ">
<polygon fill="#e0e0e0" stroke="#999999" points="248.6,-163.5 140.35,-163.5 140.35,-133 248.6,-133 248.6,-163.5"/>
<text text-anchor="start" x="148.35" y="-150" font-family="Helvetica,sans-Serif" font-size="10.00">can_library/generated</text>
<text text-anchor="middle" x="194.47" y="-138.75" font-family="Helvetica,sans-Serif" font-size="10.00">/can_version.h</text>
</a>
</g>
</g>
<!-- Node1&#45;&gt;Node5 -->
<g id="edge4_Node000001_Node000005" class="edge">
<title>Node1&#45;&gt;Node5</title>
<g id="a_edge4_Node000001_Node000005"><a xlink:title=" ">
<path fill="none" stroke="#63b8ff" d="M194.47,-199.11C194.47,-192.02 194.47,-183.29 194.47,-175.13"/>
<polygon fill="#63b8ff" stroke="#63b8ff" points="197.97,-175.34 194.47,-165.34 190.97,-175.34 197.97,-175.34"/>
</a>
</g>
</g>
<!-- Node6 -->
<g id="Node000006" class="node">
<title>Node6</title>
<g id="a_Node000006"><a xlink:href="bootloader__common_8h.html" target="_top" xlink:title=" ">
<polygon fill="white" stroke="#666666" points="270.22,-97 120.72,-97 120.72,-66.5 270.22,-66.5 270.22,-97"/>
<text text-anchor="start" x="128.72" y="-83.5" font-family="Helvetica,sans-Serif" font-size="10.00">common/bootloader/bootloader</text>
<text text-anchor="middle" x="195.47" y="-72.25" font-family="Helvetica,sans-Serif" font-size="10.00">_common.h</text>
</a>
</g>
</g>
<!-- Node1&#45;&gt;Node6 -->
<g id="edge5_Node000001_Node000006" class="edge">
<title>Node1&#45;&gt;Node6</title>
<g id="a_edge5_Node000001_Node000006"><a xlink:title=" ">
<path fill="none" stroke="#63b8ff" d="M222.76,-199.08C235.89,-190.61 250.19,-178.63 257.47,-163.5 263.36,-151.29 263.31,-145.24 257.47,-133 251.95,-121.41 242.31,-111.63 232.25,-103.87"/>
<polygon fill="#63b8ff" stroke="#63b8ff" points="234.41,-101.11 224.23,-98.18 230.36,-106.82 234.41,-101.11"/>
</a>
</g>
</g>
<!-- Node7 -->
<g id="Node000007" class="node">
<title>Node7</title>
<g id="a_Node000007"><a xlink:href="powertrain_8h.html" target="_top" xlink:title="Powertrain implementation.">
<polygon fill="white" stroke="#666666" points="372.72,-157.88 304.22,-157.88 304.22,-138.62 372.72,-138.62 372.72,-157.88"/>
<text text-anchor="middle" x="338.47" y="-144.38" font-family="Helvetica,sans-Serif" font-size="10.00">powertrain.h</text>
</a>
</g>
</g>
<!-- Node1&#45;&gt;Node7 -->
<g id="edge7_Node000001_Node000007" class="edge">
<title>Node1&#45;&gt;Node7</title>
<g id="a_edge7_Node000001_Node000007"><a xlink:title=" ">
<path fill="none" stroke="#63b8ff" d="M227.15,-199.11C251.47,-188.22 284.43,-173.46 308.17,-162.83"/>
<polygon fill="#63b8ff" stroke="#63b8ff" points="309.28,-166.16 316.98,-158.88 306.42,-159.77 309.28,-166.16"/>
</a>
</g>
</g>
<!-- Node3 -->
<g id="Node000003" class="node">
<title>Node3</title>
<g id="a_Node000003"><a xlink:title=" ">
<polygon fill="#e0e0e0" stroke="#999999" points="263.22,-24.88 215.72,-24.88 215.72,-5.63 263.22,-5.63 263.22,-24.88"/>
<text text-anchor="middle" x="239.47" y="-11.38" font-family="Helvetica,sans-Serif" font-size="10.00">stdint.h</text>
</a>
</g>
</g>
<!-- Node2&#45;&gt;Node3 -->
<g id="edge2_Node000002_Node000003" class="edge">
<title>Node2&#45;&gt;Node3</title>
<g id="a_edge2_Node000002_Node000003"><a xlink:title=" ">
<path fill="none" stroke="#63b8ff" d="M76.29,-71.65C109.95,-60.22 167.72,-40.61 204.72,-28.05"/>
<polygon fill="#63b8ff" stroke="#63b8ff" points="205.72,-31.41 214.06,-24.88 203.47,-24.78 205.72,-31.41"/>
</a>
</g>
</g>
<!-- Node6&#45;&gt;Node3 -->
<g id="edge6_Node000006_Node000003" class="edge">
<title>Node6&#45;&gt;Node3</title>
<g id="a_edge6_Node000006_Node000003"><a xlink:title=" ">
<path fill="none" stroke="#63b8ff" d="M205.46,-66.11C211.86,-56.73 220.21,-44.49 227.04,-34.48"/>
<polygon fill="#63b8ff" stroke="#63b8ff" points="229.86,-36.56 232.6,-26.32 224.08,-32.61 229.86,-36.56"/>
</a>
</g>
</g>
<!-- Node7&#45;&gt;Node3 -->
<g id="edge8_Node000007_Node000003" class="edge">
<title>Node7&#45;&gt;Node3</title>
<g id="a_edge8_Node000007_Node000003"><a xlink:title=" ">
<path fill="none" stroke="#63b8ff" d="M332.05,-138.2C321.33,-123.17 299.06,-92.18 279.47,-66.5 271.14,-55.58 261.57,-43.53 253.87,-33.97"/>
<polygon fill="#63b8ff" stroke="#63b8ff" points="256.63,-31.81 247.62,-26.24 251.18,-36.21 256.63,-31.81"/>
</a>
</g>
</g>
<!-- Node8 -->
<g id="Node000008" class="node">
<title>Node8</title>
<g id="a_Node000008"><a xlink:href="common_2amk_2amk_8h.html" target="_top" xlink:title="Modernized AMK driver.">
<polygon fill="white" stroke="#666666" points="430.72,-91.38 326.22,-91.38 326.22,-72.12 430.72,-72.12 430.72,-91.38"/>
<text text-anchor="middle" x="378.47" y="-77.88" font-family="Helvetica,sans-Serif" font-size="10.00">common/amk/amk.h</text>
</a>
</g>
</g>
<!-- Node7&#45;&gt;Node8 -->
<g id="edge9_Node000007_Node000008" class="edge">
<title>Node7&#45;&gt;Node8</title>
<g id="a_edge9_Node000007_Node000008"><a xlink:title=" ">
<path fill="none" stroke="#63b8ff" d="M344.04,-138.28C349.95,-128.75 359.46,-113.41 366.99,-101.27"/>
<polygon fill="#63b8ff" stroke="#63b8ff" points="369.87,-103.27 372.16,-92.93 363.92,-99.58 369.87,-103.27"/>
</a>
</g>
</g>
<!-- Node8&#45;&gt;Node3 -->
<g id="edge11_Node000008_Node000003" class="edge">
<title>Node8&#45;&gt;Node3</title>
<g id="a_edge11_Node000008_Node000003"><a xlink:title=" ">
<path fill="none" stroke="#63b8ff" d="M358.85,-71.65C335.57,-60.84 296.5,-42.71 269.43,-30.15"/>
<polygon fill="#63b8ff" stroke="#63b8ff" points="270.91,-26.98 260.37,-25.95 267.97,-33.33 270.91,-26.98"/>
</a>
</g>
</g>
<!-- Node9 -->
<g id="Node000009" class="node">
<title>Node9</title>
<g id="a_Node000009"><a xlink:title=" ">
<polygon fill="#e0e0e0" stroke="#999999" points="432.6,-30.5 324.35,-30.5 324.35,0 432.6,0 432.6,-30.5"/>
<text text-anchor="start" x="332.35" y="-17" font-family="Helvetica,sans-Serif" font-size="10.00">can_library/generated</text>
<text text-anchor="middle" x="378.47" y="-5.75" font-family="Helvetica,sans-Serif" font-size="10.00">/MCAN.h</text>
</a>
</g>
</g>
<!-- Node8&#45;&gt;Node9 -->
<g id="edge10_Node000008_Node000009" class="edge">
<title>Node8&#45;&gt;Node9</title>
<g id="a_edge10_Node000008_Node000009"><a xlink:title=" ">
<path fill="none" stroke="#63b8ff" d="M378.47,-71.78C378.47,-64.04 378.47,-52.45 378.47,-41.87"/>
<polygon fill="#63b8ff" stroke="#63b8ff" points="381.97,-42.11 378.47,-32.11 374.97,-42.11 381.97,-42.11"/>
</a>
</g>
</g>
</g>
</svg>
