<?xml version="1.0" encoding="UTF-8" standalone="no"?>
<!DOCTYPE svg PUBLIC "-//W3C//DTD SVG 1.1//EN"
 "http://www.w3.org/Graphics/SVG/1.1/DTD/svg11.dtd">
<!-- Generated by graphviz version 12.2.0 (20241103.1931)
 -->
<!-- Title: firmware/source/pdu/main.c Pages: 1 -->
<svg width="1866pt" height="349pt"
 viewBox="0.00 0.00 1865.89 348.50" xmlns="http://www.w3.org/2000/svg" xmlns:xlink="http://www.w3.org/1999/xlink">
<g id="graph0" class="graph" transform="scale(1 1) rotate(0) translate(4 344.5)">
<title>firmware/source/pdu/main.c</title>
<!-- Node1 -->
<g id="Node000001" class="node">
<title>Node1</title>
<g id="a_Node000001"><a xlink:title="&quot;PDU&quot; node source code">
<polygon fill="#999999" stroke="#666666" points="755.14,-340.5 651.39,-340.5 651.39,-310 755.14,-310 755.14,-340.5"/>
<text text-anchor="start" x="659.39" y="-327" font-family="Helvetica,sans-Serif" font-size="10.00">firmware/source/pdu</text>
<text text-anchor="middle" x="703.27" y="-315.75" font-family="Helvetica,sans-Serif" font-size="10.00">/main.c</text>
</a>
</g>
</g>
<!-- Node2 -->
<g id="Node000002" class="node">
<title>Node2</title>
<g id="a_Node000002"><a xlink:href="pdu_2main_8h.html" target="_top" xlink:title="&quot;PDU&quot; node source code">
<polygon fill="white" stroke="#666666" points="694.52,-201.88 650.02,-201.88 650.02,-182.62 694.52,-182.62 694.52,-201.88"/>
<text text-anchor="middle" x="672.27" y="-188.38" font-family="Helvetica,sans-Serif" font-size="10.00">main.h</text>
</a>
</g>
</g>
<!-- Node1&#45;&gt;Node2 -->
<g id="edge1_Node000001_Node000002" class="edge">
<title>Node1&#45;&gt;Node2</title>
<g id="a_edge1_Node000001_Node000002"><a xlink:title=" ">
<path fill="none" stroke="#63b8ff" d="M699.83,-309.73C694.28,-286.27 683.32,-239.96 677.02,-213.35"/>
<polygon fill="#63b8ff" stroke="#63b8ff" points="680.48,-212.75 674.77,-203.82 673.67,-214.36 680.48,-212.75"/>
</a>
</g>
</g>
<!-- Node4 -->
<g id="Node000004" class="node">
<title>Node4</title>
<g id="a_Node000004"><a xlink:href="phal__F4_2gpio_2gpio_8h.html" target="_top" xlink:title="GPIO Driver for STM32F4 Devices.">
<polygon fill="white" stroke="#666666" points="681.27,-141 569.27,-141 569.27,-110.5 681.27,-110.5 681.27,-141"/>
<text text-anchor="start" x="577.27" y="-127.5" font-family="Helvetica,sans-Serif" font-size="10.00">common/phal_F4/gpio</text>
<text text-anchor="middle" x="625.27" y="-116.25" font-family="Helvetica,sans-Serif" font-size="10.00">/gpio.h</text>
</a>
</g>
</g>
<!-- Node1&#45;&gt;Node4 -->
<g id="edge42_Node000001_Node000004" class="edge">
<title>Node1&#45;&gt;Node4</title>
<g id="a_edge42_Node000001_Node000004"><a xlink:title=" ">
<path fill="none" stroke="#63b8ff" d="M693.78,-309.78C680.14,-288.33 655.12,-246.42 641.27,-207.5 634.93,-189.69 630.87,-168.72 628.42,-152.62"/>
<polygon fill="#63b8ff" stroke="#63b8ff" points="631.91,-152.31 627.07,-142.89 624.98,-153.27 631.91,-152.31"/>
</a>
</g>
</g>
<!-- Node7 -->
<g id="Node000007" class="node">
<title>Node7</title>
<g id="a_Node000007"><a xlink:href="faults__common_8h.html" target="_top" xlink:title="Event&#45;based FIDR system.">
<polygon fill="white" stroke="#666666" points="1382.02,-207.5 1292.52,-207.5 1292.52,-177 1382.02,-177 1382.02,-207.5"/>
<text text-anchor="start" x="1300.52" y="-194" font-family="Helvetica,sans-Serif" font-size="10.00">can_library/faults</text>
<text text-anchor="middle" x="1337.27" y="-182.75" font-family="Helvetica,sans-Serif" font-size="10.00">_common.h</text>
</a>
</g>
</g>
<!-- Node1&#45;&gt;Node7 -->
<g id="edge7_Node000001_Node000007" class="edge">
<title>Node1&#45;&gt;Node7</title>
<g id="a_edge7_Node000001_Node000007"><a xlink:title=" ">
<path fill="none" stroke="#63b8ff" d="M755.42,-321.29C832.83,-316.11 982.36,-303.03 1106.27,-274 1172.51,-258.48 1246.28,-230.77 1292.23,-212.2"/>
<polygon fill="#63b8ff" stroke="#63b8ff" points="1293.39,-215.51 1301.33,-208.49 1290.75,-209.03 1293.39,-215.51"/>
</a>
</g>
</g>
<!-- Node9 -->
<g id="Node000009" class="node">
<title>Node9</title>
<g id="a_Node000009"><a xlink:href="PDU_8h.html" target="_top" xlink:title="Auto&#45;generated CAN driver for PDU.">
<polygon fill="white" stroke="#666666" points="1097.39,-274 989.14,-274 989.14,-243.5 1097.39,-243.5 1097.39,-274"/>
<text text-anchor="start" x="997.14" y="-260.5" font-family="Helvetica,sans-Serif" font-size="10.00">can_library/generated</text>
<text text-anchor="middle" x="1043.27" y="-249.25" font-family="Helvetica,sans-Serif" font-size="10.00">/PDU.h</text>
</a>
</g>
</g>
<!-- Node1&#45;&gt;Node9 -->
<g id="edge11_Node000001_Node000009" class="edge">
<title>Node1&#45;&gt;Node9</title>
<g id="a_edge11_Node000001_Node000009"><a xlink:title=" ">
<path fill="none" stroke="#63b8ff" d="M755.28,-314.38C814.85,-303.08 912.58,-284.54 977.42,-272.24"/>
<polygon fill="#63b8ff" stroke="#63b8ff" points="978.07,-275.68 987.24,-270.38 976.77,-268.8 978.07,-275.68"/>
</a>
</g>
</g>
<!-- Node13 -->
<g id="Node000013" class="node">
<title>Node13</title>
<g id="a_Node000013"><a xlink:href="rtos_8h.html" target="_top" xlink:title="Wrapper macros for FreeRTOS constructs (tasks, queues, semaphores) to simplify static memory allocati...">
<polygon fill="white" stroke="#666666" points="1468.27,-74.5 1368.27,-74.5 1368.27,-55.25 1468.27,-55.25 1468.27,-74.5"/>
<text text-anchor="middle" x="1418.27" y="-61" font-family="Helvetica,sans-Serif" font-size="10.00">common/rtos/rtos.h</text>
</a>
</g>
</g>
<!-- Node1&#45;&gt;Node13 -->
<g id="edge33_Node000001_Node000013" class="edge">
<title>Node1&#45;&gt;Node13</title>
<g id="a_edge33_Node000001_Node000013"><a xlink:title=" ">
<path fill="none" stroke="#63b8ff" d="M755.59,-323.4C904.1,-320.56 1326.05,-309.52 1459.27,-274 1524.28,-256.67 1559.64,-264.58 1595.27,-207.5 1633.78,-145.8 1524.44,-99.38 1460.65,-78.33"/>
<polygon fill="#63b8ff" stroke="#63b8ff" points="1462.11,-75.12 1451.52,-75.39 1459.97,-81.78 1462.11,-75.12"/>
</a>
</g>
</g>
<!-- Node22 -->
<g id="Node000022" class="node">
<title>Node22</title>
<g id="a_Node000022"><a xlink:href="heartbeat_8h.html" target="_top" xlink:title="Shared heartbeat task implementation for status LEDs.">
<polygon fill="white" stroke="#666666" points="1586.27,-201.88 1438.27,-201.88 1438.27,-182.62 1586.27,-182.62 1586.27,-201.88"/>
<text text-anchor="middle" x="1512.27" y="-188.38" font-family="Helvetica,sans-Serif" font-size="10.00">common/heartbeat/heartbeat.h</text>
</a>
</g>
</g>
<!-- Node1&#45;&gt;Node22 -->
<g id="edge34_Node000001_Node000022" class="edge">
<title>Node1&#45;&gt;Node22</title>
<g id="a_edge34_Node000001_Node000022"><a xlink:title=" ">
<path fill="none" stroke="#63b8ff" d="M755.52,-322.6C910.95,-317.41 1363.31,-300.2 1424.27,-274 1455.74,-260.47 1483.24,-230.78 1498.79,-211.41"/>
<polygon fill="#63b8ff" stroke="#63b8ff" points="1501.51,-213.62 1504.86,-203.57 1495.97,-209.33 1501.51,-213.62"/>
</a>
</g>
</g>
<!-- Node23 -->
<g id="Node000023" class="node">
<title>Node23</title>
<g id="a_Node000023"><a xlink:href="phal__F4_2adc_2adc_8h.html" target="_top" xlink:title=" ">
<polygon fill="white" stroke="#666666" points="250.14,-274 140.39,-274 140.39,-243.5 250.14,-243.5 250.14,-274"/>
<text text-anchor="start" x="148.39" y="-260.5" font-family="Helvetica,sans-Serif" font-size="10.00">common/phal_F4/adc</text>
<text text-anchor="middle" x="195.27" y="-249.25" font-family="Helvetica,sans-Serif" font-size="10.00">/adc.h</text>
</a>
</g>
</g>
<!-- Node1&#45;&gt;Node23 -->
<g id="edge36_Node000001_Node000023" class="edge">
<title>Node1&#45;&gt;Node23</title>
<g id="a_edge36_Node000001_Node000023"><a xlink:title=" ">
<path fill="none" stroke="#63b8ff" d="M651.12,-318.71C571.63,-310.12 415.44,-292.6 283.27,-274 276.33,-273.02 269.09,-271.95 261.88,-270.84"/>
<polygon fill="#63b8ff" stroke="#63b8ff" points="262.52,-267.39 252.1,-269.3 261.44,-274.31 262.52,-267.39"/>
</a>
</g>
</g>
<!-- Node24 -->
<g id="Node000024" class="node">
<title>Node24</title>
<g id="a_Node000024"><a xlink:href="can_8h.html" target="_top" xlink:title=" ">
<polygon fill="white" stroke="#666666" points="316.14,-207.5 206.39,-207.5 206.39,-177 316.14,-177 316.14,-207.5"/>
<text text-anchor="start" x="214.39" y="-194" font-family="Helvetica,sans-Serif" font-size="10.00">common/phal_F4/can</text>
<text text-anchor="middle" x="261.27" y="-182.75" font-family="Helvetica,sans-Serif" font-size="10.00">/can.h</text>
</a>
</g>
</g>
<!-- Node1&#45;&gt;Node24 -->
<g id="edge38_Node000001_Node000024" class="edge">
<title>Node1&#45;&gt;Node24</title>
<g id="a_edge38_Node000001_Node000024"><a xlink:title=" ">
<path fill="none" stroke="#63b8ff" d="M651.13,-321.8C561.96,-316.85 384.49,-303.54 330.27,-274 306.36,-260.97 287.07,-236.11 275.03,-217.4"/>
<polygon fill="#63b8ff" stroke="#63b8ff" points="278.12,-215.73 269.9,-209.04 272.15,-219.39 278.12,-215.73"/>
</a>
</g>
</g>
<!-- Node25 -->
<g id="Node000025" class="node">
<title>Node25</title>
<g id="a_Node000025"><a xlink:href="phal__F4_2dma_2dma_8h.html" target="_top" xlink:title=" ">
<polygon fill="white" stroke="#666666" points="551.64,-141 438.89,-141 438.89,-110.5 551.64,-110.5 551.64,-141"/>
<text text-anchor="start" x="446.89" y="-127.5" font-family="Helvetica,sans-Serif" font-size="10.00">common/phal_F4/dma</text>
<text text-anchor="middle" x="495.27" y="-116.25" font-family="Helvetica,sans-Serif" font-size="10.00">/dma.h</text>
</a>
</g>
</g>
<!-- Node1&#45;&gt;Node25 -->
<g id="edge40_Node000001_Node000025" class="edge">
<title>Node1&#45;&gt;Node25</title>
<g id="a_edge40_Node000001_Node000025"><a xlink:title=" ">
<path fill="none" stroke="#63b8ff" d="M651,-323.46C610.94,-319.95 557.27,-308.47 525.27,-274 494.57,-240.94 491.66,-185.36 493,-152.77"/>
<polygon fill="#63b8ff" stroke="#63b8ff" points="496.48,-153.2 493.58,-143.01 489.49,-152.78 496.48,-153.2"/>
</a>
</g>
</g>
<!-- Node26 -->
<g id="Node000026" class="node">
<title>Node26</title>
<g id="a_Node000026"><a xlink:href="phal__F4_2rcc_2rcc_8h.html" target="_top" xlink:title="RCC Configuration Driver for STM32F4 Devices.">
<polygon fill="white" stroke="#666666" points="314.02,-141 206.52,-141 206.52,-110.5 314.02,-110.5 314.02,-141"/>
<text text-anchor="start" x="214.52" y="-127.5" font-family="Helvetica,sans-Serif" font-size="10.00">common/phal_F4/rcc</text>
<text text-anchor="middle" x="260.27" y="-116.25" font-family="Helvetica,sans-Serif" font-size="10.00">/rcc.h</text>
</a>
</g>
</g>
<!-- Node1&#45;&gt;Node26 -->
<g id="edge43_Node000001_Node000026" class="edge">
<title>Node1&#45;&gt;Node26</title>
<g id="a_edge43_Node000001_Node000026"><a xlink:title=" ">
<path fill="none" stroke="#63b8ff" d="M651.05,-314.09C610.2,-305.43 552.29,-291.61 503.27,-274 438.44,-250.72 421.63,-244.08 363.27,-207.5 344.92,-196 342.28,-190.4 325.27,-177 313.27,-167.55 299.95,-157.22 288.5,-148.4"/>
<polygon fill="#63b8ff" stroke="#63b8ff" points="290.65,-145.64 280.59,-142.31 286.38,-151.19 290.65,-145.64"/>
</a>
</g>
</g>
<!-- Node27 -->
<g id="Node000027" class="node">
<title>Node27</title>
<g id="a_Node000027"><a xlink:href="countof_8h.html" target="_top" xlink:title="macro&#45;based countof implementation">
<polygon fill="white" stroke="#666666" points="1711.89,-268.38 1594.64,-268.38 1594.64,-249.12 1711.89,-249.12 1711.89,-268.38"/>
<text text-anchor="middle" x="1653.27" y="-254.88" font-family="Helvetica,sans-Serif" font-size="10.00">common/utils/countof.h</text>
</a>
</g>
</g>
<!-- Node1&#45;&gt;Node27 -->
<g id="edge45_Node000001_Node000027" class="edge">
<title>Node1&#45;&gt;Node27</title>
<g id="a_edge45_Node000001_Node000027"><a xlink:title=" ">
<path fill="none" stroke="#63b8ff" d="M755.39,-323.72C891.54,-321.82 1268.93,-313.12 1580.27,-274 1586.83,-273.17 1593.7,-272.11 1600.47,-270.93"/>
<polygon fill="#63b8ff" stroke="#63b8ff" points="1601.04,-274.39 1610.24,-269.14 1599.78,-267.5 1601.04,-274.39"/>
</a>
</g>
</g>
<!-- Node28 -->
<g id="Node000028" class="node">
<title>Node28</title>
<g id="a_Node000028"><a xlink:href="watchdog_8h.html" target="_top" xlink:title="Basic watchdog implementation.">
<polygon fill="white" stroke="#666666" points="1483.77,-135.38 1332.77,-135.38 1332.77,-116.12 1483.77,-116.12 1483.77,-135.38"/>
<text text-anchor="middle" x="1408.27" y="-121.88" font-family="Helvetica,sans-Serif" font-size="10.00">common/watchdog/watchdog.h</text>
</a>
</g>
</g>
<!-- Node1&#45;&gt;Node28 -->
<g id="edge46_Node000001_Node000028" class="edge">
<title>Node1&#45;&gt;Node28</title>
<g id="a_edge46_Node000001_Node000028"><a xlink:title=" ">
<path fill="none" stroke="#63b8ff" d="M755.34,-321.72C841.83,-316.83 1020.21,-303.82 1168.27,-274 1269.65,-253.58 1321.21,-283.58 1391.27,-207.5 1406.25,-191.22 1409.35,-165.2 1409.44,-147.11"/>
<polygon fill="#63b8ff" stroke="#63b8ff" points="1412.94,-147.24 1409.16,-137.34 1405.95,-147.44 1412.94,-147.24"/>
</a>
</g>
</g>
<!-- Node29 -->
<g id="Node000029" class="node">
<title>Node29</title>
<g id="a_Node000029"><a xlink:href="cooling__fsm_8h.html" target="_top" xlink:title=" ">
<polygon fill="white" stroke="#666666" points="851.27,-74.5 775.27,-74.5 775.27,-55.25 851.27,-55.25 851.27,-74.5"/>
<text text-anchor="middle" x="813.27" y="-61" font-family="Helvetica,sans-Serif" font-size="10.00">cooling_fsm.h</text>
</a>
</g>
</g>
<!-- Node1&#45;&gt;Node29 -->
<g id="edge49_Node000001_Node000029" class="edge">
<title>Node1&#45;&gt;Node29</title>
<g id="a_edge49_Node000001_Node000029"><a xlink:title=" ">
<path fill="none" stroke="#63b8ff" d="M705.45,-309.52C709.82,-282.41 720.99,-223.17 741.27,-177 756.75,-141.73 782.82,-105.02 798.97,-83.86"/>
<polygon fill="#63b8ff" stroke="#63b8ff" points="801.71,-86.04 805.09,-76 796.19,-81.74 801.71,-86.04"/>
</a>
</g>
</g>
<!-- Node30 -->
<g id="Node000030" class="node">
<title>Node30</title>
<g id="a_Node000030"><a xlink:title=" ">
<polygon fill="#e0e0e0" stroke="#999999" points="1777.02,-268.38 1729.52,-268.38 1729.52,-249.12 1777.02,-249.12 1777.02,-268.38"/>
<text text-anchor="middle" x="1753.27" y="-254.88" font-family="Helvetica,sans-Serif" font-size="10.00">faults.h</text>
</a>
</g>
</g>
<!-- Node1&#45;&gt;Node30 -->
<g id="edge51_Node000001_Node000030" class="edge">
<title>Node1&#45;&gt;Node30</title>
<g id="a_edge51_Node000001_Node000030"><a xlink:title=" ">
<path fill="none" stroke="#63b8ff" d="M755.5,-324.2C936.37,-323.65 1535.05,-318.41 1721.27,-274 1722.66,-273.67 1724.08,-273.27 1725.49,-272.83"/>
<polygon fill="#63b8ff" stroke="#63b8ff" points="1726.56,-276.17 1734.66,-269.34 1724.07,-269.63 1726.56,-276.17"/>
</a>
</g>
</g>
<!-- Node31 -->
<g id="Node000031" class="node">
<title>Node31</title>
<g id="a_Node000031"><a xlink:href="led_8h.html" target="_top" xlink:title=" ">
<polygon fill="white" stroke="#666666" points="570.39,-268.38 534.14,-268.38 534.14,-249.12 570.39,-249.12 570.39,-268.38"/>
<text text-anchor="middle" x="552.27" y="-254.88" font-family="Helvetica,sans-Serif" font-size="10.00">led.h</text>
</a>
</g>
</g>
<!-- Node1&#45;&gt;Node31 -->
<g id="edge52_Node000001_Node000031" class="edge">
<title>Node1&#45;&gt;Node31</title>
<g id="a_edge52_Node000001_Node000031"><a xlink:title=" ">
<path fill="none" stroke="#63b8ff" d="M669,-309.61C642.47,-298.28 606.15,-282.76 581.1,-272.06"/>
<polygon fill="#63b8ff" stroke="#63b8ff" points="582.75,-268.96 572.18,-268.25 580,-275.4 582.75,-268.96"/>
</a>
</g>
</g>
<!-- Node34 -->
<g id="Node000034" class="node">
<title>Node34</title>
<g id="a_Node000034"><a xlink:href="state_8h.html" target="_top" xlink:title=" ">
<polygon fill="white" stroke="#666666" points="73.89,-135.38 28.64,-135.38 28.64,-116.12 73.89,-116.12 73.89,-135.38"/>
<text text-anchor="middle" x="51.27" y="-121.88" font-family="Helvetica,sans-Serif" font-size="10.00">state.h</text>
</a>
</g>
</g>
<!-- Node1&#45;&gt;Node34 -->
<g id="edge62_Node000001_Node000034" class="edge">
<title>Node1&#45;&gt;Node34</title>
<g id="a_edge62_Node000001_Node000034"><a xlink:title=" ">
<path fill="none" stroke="#63b8ff" d="M651.24,-322.47C518.42,-317.53 174.2,-302.15 131.27,-274 85.75,-244.15 64.03,-179.28 55.64,-146.52"/>
<polygon fill="#63b8ff" stroke="#63b8ff" points="59.13,-146.07 53.41,-137.15 52.32,-147.69 59.13,-146.07"/>
</a>
</g>
</g>
<!-- Node35 -->
<g id="Node000035" class="node">
<title>Node35</title>
<g id="a_Node000035"><a xlink:href="switches_8h.html" target="_top" xlink:title=" ">
<polygon fill="white" stroke="#666666" points="74.52,-74.5 12.02,-74.5 12.02,-55.25 74.52,-55.25 74.52,-74.5"/>
<text text-anchor="middle" x="43.27" y="-61" font-family="Helvetica,sans-Serif" font-size="10.00">switches.h</text>
</a>
</g>
</g>
<!-- Node1&#45;&gt;Node35 -->
<g id="edge68_Node000001_Node000035" class="edge">
<title>Node1&#45;&gt;Node35</title>
<g id="a_edge68_Node000001_Node000035"><a xlink:title=" ">
<path fill="none" stroke="#63b8ff" d="M651,-322.65C512.52,-318.05 143.59,-303.14 97.27,-274 39.26,-237.51 37.23,-207.13 19.27,-141 15.71,-127.92 15.96,-123.65 19.27,-110.5 21.54,-101.46 26.05,-92.25 30.55,-84.56"/>
<polygon fill="#63b8ff" stroke="#63b8ff" points="33.47,-86.49 35.87,-76.17 27.56,-82.75 33.47,-86.49"/>
</a>
</g>
</g>
<!-- Node36 -->
<g id="Node000036" class="node">
<title>Node36</title>
<g id="a_Node000036"><a xlink:title=" ">
<polygon fill="#e0e0e0" stroke="#999999" points="1857.89,-268.38 1794.64,-268.38 1794.64,-249.12 1857.89,-249.12 1857.89,-268.38"/>
<text text-anchor="middle" x="1826.27" y="-254.88" font-family="Helvetica,sans-Serif" font-size="10.00">telemetry.h</text>
</a>
</g>
</g>
<!-- Node1&#45;&gt;Node36 -->
<g id="edge69_Node000001_Node000036" class="edge">
<title>Node1&#45;&gt;Node36</title>
<g id="a_edge69_Node000001_Node000036"><a xlink:title=" ">
<path fill="none" stroke="#63b8ff" d="M755.43,-323.87C943.37,-322.17 1585.31,-313.54 1786.27,-274 1788.73,-273.51 1791.26,-272.9 1793.77,-272.21"/>
<polygon fill="#63b8ff" stroke="#63b8ff" points="1794.67,-275.6 1803.15,-269.24 1792.56,-268.93 1794.67,-275.6"/>
</a>
</g>
</g>
<!-- Node3 -->
<g id="Node000003" class="node">
<title>Node3</title>
<g id="a_Node000003"><a xlink:title=" ">
<polygon fill="#e0e0e0" stroke="#999999" points="939.02,-19.25 891.52,-19.25 891.52,0 939.02,0 939.02,-19.25"/>
<text text-anchor="middle" x="915.27" y="-5.75" font-family="Helvetica,sans-Serif" font-size="10.00">stdint.h</text>
</a>
</g>
</g>
<!-- Node2&#45;&gt;Node3 -->
<g id="edge2_Node000002_Node000003" class="edge">
<title>Node2&#45;&gt;Node3</title>
<g id="a_edge2_Node000002_Node000003"><a xlink:title=" ">
<path fill="none" stroke="#63b8ff" d="M683.47,-182.14C694.57,-172.69 711.57,-157.08 723.27,-141 748.34,-106.52 733.62,-82.67 766.27,-55.25 798.59,-28.11 846.99,-17.47 879.78,-13.31"/>
<polygon fill="#63b8ff" stroke="#63b8ff" points="880.04,-16.8 889.59,-12.21 879.27,-9.84 880.04,-16.8"/>
</a>
</g>
</g>
<!-- Node2&#45;&gt;Node4 -->
<g id="edge3_Node000002_Node000004" class="edge">
<title>Node2&#45;&gt;Node4</title>
<g id="a_edge3_Node000002_Node000004"><a xlink:title=" ">
<path fill="none" stroke="#63b8ff" d="M665.73,-182.28C659.72,-174.04 650.55,-161.44 642.45,-150.33"/>
<polygon fill="#63b8ff" stroke="#63b8ff" points="645.33,-148.34 636.61,-142.32 639.67,-152.46 645.33,-148.34"/>
</a>
</g>
</g>
<!-- Node5 -->
<g id="Node000005" class="node">
<title>Node5</title>
<g id="a_Node000005"><a xlink:href="phal__F4_8h.html" target="_top" xlink:title=" ">
<polygon fill="white" stroke="#666666" points="369.27,-74.5 233.27,-74.5 233.27,-55.25 369.27,-55.25 369.27,-74.5"/>
<text text-anchor="middle" x="301.27" y="-61" font-family="Helvetica,sans-Serif" font-size="10.00">common/phal_F4/phal_F4.h</text>
</a>
</g>
</g>
<!-- Node4&#45;&gt;Node5 -->
<g id="edge4_Node000004_Node000005" class="edge">
<title>Node4&#45;&gt;Node5</title>
<g id="a_edge4_Node000004_Node000005"><a xlink:title=" ">
<path fill="none" stroke="#63b8ff" d="M568.93,-112.24C566,-111.64 563.1,-111.05 560.27,-110.5 495.81,-97.89 421.96,-85.35 369.65,-76.79"/>
<polygon fill="#63b8ff" stroke="#63b8ff" points="370.43,-73.37 359.99,-75.22 369.3,-80.28 370.43,-73.37"/>
</a>
</g>
</g>
<!-- Node5&#45;&gt;Node3 -->
<g id="edge6_Node000005_Node000003" class="edge">
<title>Node5&#45;&gt;Node3</title>
<g id="a_edge6_Node000005_Node000003"><a xlink:title=" ">
<path fill="none" stroke="#63b8ff" d="M369.62,-57.95C500.15,-46.63 780.72,-22.29 879.76,-13.7"/>
<polygon fill="#63b8ff" stroke="#63b8ff" points="880.01,-17.2 889.67,-12.84 879.41,-10.22 880.01,-17.2"/>
</a>
</g>
</g>
<!-- Node6 -->
<g id="Node000006" class="node">
<title>Node6</title>
<g id="a_Node000006"><a xlink:title=" ">
<polygon fill="#e0e0e0" stroke="#999999" points="99.77,-19.25 44.77,-19.25 44.77,0 99.77,0 99.77,-19.25"/>
<text text-anchor="middle" x="72.27" y="-5.75" font-family="Helvetica,sans-Serif" font-size="10.00">stdbool.h</text>
</a>
</g>
</g>
<!-- Node5&#45;&gt;Node6 -->
<g id="edge5_Node000005_Node000006" class="edge">
<title>Node5&#45;&gt;Node6</title>
<g id="a_edge5_Node000005_Node000006"><a xlink:title=" ">
<path fill="none" stroke="#63b8ff" d="M262.16,-54.78C220.01,-44.98 153.31,-29.47 111.22,-19.68"/>
<polygon fill="#63b8ff" stroke="#63b8ff" points="112.05,-16.28 101.52,-17.43 110.46,-23.1 112.05,-16.28"/>
</a>
</g>
</g>
<!-- Node7&#45;&gt;Node3 -->
<g id="edge8_Node000007_Node000003" class="edge">
<title>Node7&#45;&gt;Node3</title>
<g id="a_edge8_Node000007_Node000003"><a xlink:title=" ">
<path fill="none" stroke="#63b8ff" d="M1332.99,-176.79C1323.3,-145 1298.88,-70.66 1278.27,-55.25 1227.06,-16.97 1031.79,-11.3 950.8,-10.62"/>
<polygon fill="#63b8ff" stroke="#63b8ff" points="951.02,-7.13 941,-10.57 950.98,-14.13 951.02,-7.13"/>
</a>
</g>
</g>
<!-- Node8 -->
<g id="Node000008" class="node">
<title>Node8</title>
<g id="a_Node000008"><a xlink:href="can__types_8h.html" target="_top" xlink:title="Auto&#45;generated custom types and enums for the CAN library.">
<polygon fill="white" stroke="#666666" points="1086.39,-141 978.14,-141 978.14,-110.5 1086.39,-110.5 1086.39,-141"/>
<text text-anchor="start" x="986.14" y="-127.5" font-family="Helvetica,sans-Serif" font-size="10.00">can_library/generated</text>
<text text-anchor="middle" x="1032.27" y="-116.25" font-family="Helvetica,sans-Serif" font-size="10.00">/can_types.h</text>
</a>
</g>
</g>
<!-- Node7&#45;&gt;Node8 -->
<g id="edge9_Node000007_Node000008" class="edge">
<title>Node7&#45;&gt;Node8</title>
<g id="a_edge9_Node000007_Node000008"><a xlink:title=" ">
<path fill="none" stroke="#63b8ff" d="M1292.17,-182.13C1245.81,-172.71 1171.23,-157.39 1097.72,-141.51"/>
<polygon fill="#63b8ff" stroke="#63b8ff" points="1098.88,-138.18 1088.37,-139.49 1097.4,-145.02 1098.88,-138.18"/>
</a>
</g>
</g>
<!-- Node8&#45;&gt;Node3 -->
<g id="edge10_Node000008_Node000003" class="edge">
<title>Node8&#45;&gt;Node3</title>
<g id="a_edge10_Node000008_Node000003"><a xlink:title=" ">
<path fill="none" stroke="#63b8ff" d="M1018.44,-110.13C1004.86,-95.9 983.46,-73.77 964.27,-55.25 954.45,-45.78 943.23,-35.52 934,-27.22"/>
<polygon fill="#63b8ff" stroke="#63b8ff" points="936.48,-24.75 926.69,-20.7 931.81,-29.97 936.48,-24.75"/>
</a>
</g>
</g>
<!-- Node9&#45;&gt;Node3 -->
<g id="edge12_Node000009_Node000003" class="edge">
<title>Node9&#45;&gt;Node3</title>
<g id="a_edge12_Node000009_Node000003"><a xlink:title=" ">
<path fill="none" stroke="#63b8ff" d="M1097.59,-244.01C1149.17,-230.76 1219.54,-212.06 1224.27,-207.5 1256,-176.86 1271.55,-145.92 1245.27,-110.5 1209.55,-62.38 1027.84,-28.44 950.35,-15.93"/>
<polygon fill="#63b8ff" stroke="#63b8ff" points="951.2,-12.52 940.77,-14.41 950.1,-19.43 951.2,-12.52"/>
</a>
</g>
</g>
<!-- Node9&#45;&gt;Node8 -->
<g id="edge27_Node000009_Node000008" class="edge">
<title>Node9&#45;&gt;Node8</title>
<g id="a_edge27_Node000009_Node000008"><a xlink:title=" ">
<path fill="none" stroke="#63b8ff" d="M1042.61,-243.14C1041.83,-226.95 1040.36,-200.08 1038.27,-177 1037.55,-169.08 1036.59,-160.47 1035.65,-152.66"/>
<polygon fill="#63b8ff" stroke="#63b8ff" points="1039.12,-152.23 1034.41,-142.74 1032.17,-153.1 1039.12,-152.23"/>
</a>
</g>
</g>
<!-- Node10 -->
<g id="Node000010" class="node">
<title>Node10</title>
<g id="a_Node000010"><a xlink:title=" ">
<polygon fill="#e0e0e0" stroke="#999999" points="922.02,-135.38 874.52,-135.38 874.52,-116.12 922.02,-116.12 922.02,-135.38"/>
<text text-anchor="middle" x="898.27" y="-121.88" font-family="Helvetica,sans-Serif" font-size="10.00">string.h</text>
</a>
</g>
</g>
<!-- Node9&#45;&gt;Node10 -->
<g id="edge13_Node000009_Node000010" class="edge">
<title>Node9&#45;&gt;Node10</title>
<g id="a_edge13_Node000009_Node000010"><a xlink:title=" ">
<path fill="none" stroke="#63b8ff" d="M1039.68,-243.15C1034.67,-225.47 1024.01,-195.73 1005.27,-177 994.42,-166.16 959.79,-150.86 932.83,-139.99"/>
<polygon fill="#63b8ff" stroke="#63b8ff" points="934.19,-136.77 923.61,-136.34 931.61,-143.28 934.19,-136.77"/>
</a>
</g>
</g>
<!-- Node11 -->
<g id="Node000011" class="node">
<title>Node11</title>
<g id="a_Node000011"><a xlink:href="can__codec_8h.html" target="_top" xlink:title="Force&#45;inlined helpers for generated CAN signal packing and unpacking.">
<polygon fill="white" stroke="#666666" points="870.39,-201.88 750.14,-201.88 750.14,-182.62 870.39,-182.62 870.39,-201.88"/>
<text text-anchor="middle" x="810.27" y="-188.38" font-family="Helvetica,sans-Serif" font-size="10.00">can_library/can_codec.h</text>
</a>
</g>
</g>
<!-- Node9&#45;&gt;Node11 -->
<g id="edge14_Node000009_Node000011" class="edge">
<title>Node9&#45;&gt;Node11</title>
<g id="a_edge14_Node000009_Node000011"><a xlink:title=" ">
<path fill="none" stroke="#63b8ff" d="M990.1,-243.03C948.91,-231.63 892.53,-216.02 853.94,-205.34"/>
<polygon fill="#63b8ff" stroke="#63b8ff" points="855.1,-202.03 844.53,-202.73 853.23,-208.78 855.1,-202.03"/>
</a>
</g>
</g>
<!-- Node12 -->
<g id="Node000012" class="node">
<title>Node12</title>
<g id="a_Node000012"><a xlink:href="can__common_8h.html" target="_top" xlink:title="Common functions and data structures used in every node in the CAN library.">
<polygon fill="white" stroke="#666666" points="1236.02,-135.38 1104.52,-135.38 1104.52,-116.12 1236.02,-116.12 1236.02,-135.38"/>
<text text-anchor="middle" x="1170.27" y="-121.88" font-family="Helvetica,sans-Serif" font-size="10.00">can_library/can_common.h</text>
</a>
</g>
</g>
<!-- Node9&#45;&gt;Node12 -->
<g id="edge17_Node000009_Node000012" class="edge">
<title>Node9&#45;&gt;Node12</title>
<g id="a_edge17_Node000009_Node000012"><a xlink:title=" ">
<path fill="none" stroke="#63b8ff" d="M1097.7,-256.88C1135.09,-253.08 1182.3,-241.26 1207.27,-207.5 1222.02,-187.54 1203.6,-160.76 1187.89,-143.63"/>
<polygon fill="#63b8ff" stroke="#63b8ff" points="1190.64,-141.44 1181.16,-136.72 1185.63,-146.32 1190.64,-141.44"/>
</a>
</g>
</g>
<!-- Node20 -->
<g id="Node000020" class="node">
<title>Node20</title>
<g id="a_Node000020"><a xlink:href="can__version_8h.html" target="_top" xlink:title=" ">
<polygon fill="white" stroke="#666666" points="996.39,-207.5 888.14,-207.5 888.14,-177 996.39,-177 996.39,-207.5"/>
<text text-anchor="start" x="896.14" y="-194" font-family="Helvetica,sans-Serif" font-size="10.00">can_library/generated</text>
<text text-anchor="middle" x="942.27" y="-182.75" font-family="Helvetica,sans-Serif" font-size="10.00">/can_version.h</text>
</a>
</g>
</g>
<!-- Node9&#45;&gt;Node20 -->
<g id="edge28_Node000009_Node000020" class="edge">
<title>Node9&#45;&gt;Node20</title>
<g id="a_edge28_Node000009_Node000020"><a xlink:title=" ">
<path fill="none" stroke="#63b8ff" d="M1020.35,-243.11C1006.79,-234.45 989.4,-223.35 974.48,-213.82"/>
<polygon fill="#63b8ff" stroke="#63b8ff" points="976.68,-211.08 966.37,-208.64 972.91,-216.97 976.68,-211.08"/>
</a>
</g>
</g>
<!-- Node21 -->
<g id="Node000021" class="node">
<title>Node21</title>
<g id="a_Node000021"><a xlink:href="VCAN_8h.html" target="_top" xlink:title="Auto&#45;generated CAN bus definitions for VCAN.">
<polygon fill="white" stroke="#666666" points="1198.39,-207.5 1090.14,-207.5 1090.14,-177 1198.39,-177 1198.39,-207.5"/>
<text text-anchor="start" x="1098.14" y="-194" font-family="Helvetica,sans-Serif" font-size="10.00">can_library/generated</text>
<text text-anchor="middle" x="1144.27" y="-182.75" font-family="Helvetica,sans-Serif" font-size="10.00">/VCAN.h</text>
</a>
</g>
</g>
<!-- Node9&#45;&gt;Node21 -->
<g id="edge29_Node000009_Node000021" class="edge">
<title>Node9&#45;&gt;Node21</title>
<g id="a_edge29_Node000009_Node000021"><a xlink:title=" ">
<path fill="none" stroke="#63b8ff" d="M1066.18,-243.11C1079.74,-234.45 1097.13,-223.35 1112.05,-213.82"/>
<polygon fill="#63b8ff" stroke="#63b8ff" points="1113.62,-216.97 1120.16,-208.64 1109.85,-211.08 1113.62,-216.97"/>
</a>
</g>
</g>
<!-- Node11&#45;&gt;Node3 -->
<g id="edge15_Node000011_Node000003" class="edge">
<title>Node11&#45;&gt;Node3</title>
<g id="a_edge15_Node000011_Node000003"><a xlink:title=" ">
<path fill="none" stroke="#63b8ff" d="M815.33,-182.54C831.44,-154.83 881.74,-68.29 904.22,-29.62"/>
<polygon fill="#63b8ff" stroke="#63b8ff" points="907.25,-31.39 909.24,-20.98 901.19,-27.87 907.25,-31.39"/>
</a>
</g>
</g>
<!-- Node11&#45;&gt;Node10 -->
<g id="edge16_Node000011_Node000010" class="edge">
<title>Node11&#45;&gt;Node10</title>
<g id="a_edge16_Node000011_Node000010"><a xlink:title=" ">
<path fill="none" stroke="#63b8ff" d="M822.5,-182.28C836.48,-172.04 859.61,-155.09 876.64,-142.6"/>
<polygon fill="#63b8ff" stroke="#63b8ff" points="878.63,-145.48 884.63,-136.74 874.5,-139.83 878.63,-145.48"/>
</a>
</g>
</g>
<!-- Node12&#45;&gt;Node3 -->
<g id="edge18_Node000012_Node000003" class="edge">
<title>Node12&#45;&gt;Node3</title>
<g id="a_edge18_Node000012_Node000003"><a xlink:title=" ">
<path fill="none" stroke="#63b8ff" d="M1150.26,-115.79C1105.86,-95.93 998.88,-48.05 945.97,-24.36"/>
<polygon fill="#63b8ff" stroke="#63b8ff" points="947.47,-21.21 936.92,-20.31 944.62,-27.59 947.47,-21.21"/>
</a>
</g>
</g>
<!-- Node12&#45;&gt;Node13 -->
<g id="edge19_Node000012_Node000013" class="edge">
<title>Node12&#45;&gt;Node13</title>
<g id="a_edge19_Node000012_Node000013"><a xlink:title=" ">
<path fill="none" stroke="#63b8ff" d="M1208.47,-115.68C1251.53,-105.46 1321.65,-88.81 1368.84,-77.61"/>
<polygon fill="#63b8ff" stroke="#63b8ff" points="1369.62,-81.02 1378.54,-75.31 1368.01,-74.21 1369.62,-81.02"/>
</a>
</g>
</g>
<!-- Node13&#45;&gt;Node3 -->
<g id="edge26_Node000013_Node000003" class="edge">
<title>Node13&#45;&gt;Node3</title>
<g id="a_edge26_Node000013_Node000003"><a xlink:title=" ">
<path fill="none" stroke="#63b8ff" d="M1367.98,-56.94C1363.34,-56.35 1358.72,-55.78 1354.27,-55.25 1204.37,-37.54 1025.16,-20.65 950.55,-13.82"/>
<polygon fill="#63b8ff" stroke="#63b8ff" points="950.87,-10.33 940.6,-12.91 950.24,-17.3 950.87,-10.33"/>
</a>
</g>
</g>
<!-- Node14 -->
<g id="Node000014" class="node">
<title>Node14</title>
<g id="a_Node000014"><a xlink:title=" ">
<polygon fill="#e0e0e0" stroke="#999999" points="1563.27,-19.25 1493.27,-19.25 1493.27,0 1563.27,0 1563.27,-19.25"/>
<text text-anchor="middle" x="1528.27" y="-5.75" font-family="Helvetica,sans-Serif" font-size="10.00">FreeRTOS.h</text>
</a>
</g>
</g>
<!-- Node13&#45;&gt;Node14 -->
<g id="edge20_Node000013_Node000014" class="edge">
<title>Node13&#45;&gt;Node14</title>
<g id="a_edge20_Node000013_Node000014"><a xlink:title=" ">
<path fill="none" stroke="#63b8ff" d="M1436.93,-54.84C1453.99,-46.58 1479.51,-34.23 1499.24,-24.68"/>
<polygon fill="#63b8ff" stroke="#63b8ff" points="1500.68,-27.87 1508.15,-20.36 1497.63,-21.57 1500.68,-27.87"/>
</a>
</g>
</g>
<!-- Node15 -->
<g id="Node000015" class="node">
<title>Node15</title>
<g id="a_Node000015"><a xlink:title=" ">
<polygon fill="#e0e0e0" stroke="#999999" points="1617.39,-19.25 1581.14,-19.25 1581.14,0 1617.39,0 1617.39,-19.25"/>
<text text-anchor="middle" x="1599.27" y="-5.75" font-family="Helvetica,sans-Serif" font-size="10.00">list.h</text>
</a>
</g>
</g>
<!-- Node13&#45;&gt;Node15 -->
<g id="edge21_Node000013_Node000015" class="edge">
<title>Node13&#45;&gt;Node15</title>
<g id="a_edge21_Node000013_Node000015"><a xlink:title=" ">
<path fill="none" stroke="#63b8ff" d="M1450.49,-54.81C1479.45,-46.61 1523.39,-34.01 1569.81,-19.94"/>
<polygon fill="#63b8ff" stroke="#63b8ff" points="1570.7,-23.33 1579.25,-17.07 1568.66,-16.63 1570.7,-23.33"/>
</a>
</g>
</g>
<!-- Node16 -->
<g id="Node000016" class="node">
<title>Node16</title>
<g id="a_Node000016"><a xlink:title=" ">
<polygon fill="#e0e0e0" stroke="#999999" points="1273.14,-19.25 1223.39,-19.25 1223.39,0 1273.14,0 1273.14,-19.25"/>
<text text-anchor="middle" x="1248.27" y="-5.75" font-family="Helvetica,sans-Serif" font-size="10.00">queue.h</text>
</a>
</g>
</g>
<!-- Node13&#45;&gt;Node16 -->
<g id="edge22_Node000013_Node000016" class="edge">
<title>Node13&#45;&gt;Node16</title>
<g id="a_edge22_Node000013_Node000016"><a xlink:title=" ">
<path fill="none" stroke="#63b8ff" d="M1389.43,-54.84C1360.49,-45.78 1315.83,-31.79 1284.51,-21.98"/>
<polygon fill="#63b8ff" stroke="#63b8ff" points="1285.67,-18.67 1275.08,-19.02 1283.57,-25.35 1285.67,-18.67"/>
</a>
</g>
</g>
<!-- Node17 -->
<g id="Node000017" class="node">
<title>Node17</title>
<g id="a_Node000017"><a xlink:title=" ">
<polygon fill="#e0e0e0" stroke="#999999" points="1347.14,-19.25 1291.39,-19.25 1291.39,0 1347.14,0 1347.14,-19.25"/>
<text text-anchor="middle" x="1319.27" y="-5.75" font-family="Helvetica,sans-Serif" font-size="10.00">semphr.h</text>
</a>
</g>
</g>
<!-- Node13&#45;&gt;Node17 -->
<g id="edge23_Node000013_Node000017" class="edge">
<title>Node13&#45;&gt;Node17</title>
<g id="a_edge23_Node000013_Node000017"><a xlink:title=" ">
<path fill="none" stroke="#63b8ff" d="M1401.47,-54.84C1386.25,-46.66 1363.57,-34.46 1345.88,-24.94"/>
<polygon fill="#63b8ff" stroke="#63b8ff" points="1347.94,-22.07 1337.48,-20.42 1344.62,-28.24 1347.94,-22.07"/>
</a>
</g>
</g>
<!-- Node18 -->
<g id="Node000018" class="node">
<title>Node18</title>
<g id="a_Node000018"><a xlink:title=" ">
<polygon fill="#e0e0e0" stroke="#999999" points="1407.39,-19.25 1365.14,-19.25 1365.14,0 1407.39,0 1407.39,-19.25"/>
<text text-anchor="middle" x="1386.27" y="-5.75" font-family="Helvetica,sans-Serif" font-size="10.00">task.h</text>
</a>
</g>
</g>
<!-- Node13&#45;&gt;Node18 -->
<g id="edge24_Node000013_Node000018" class="edge">
<title>Node13&#45;&gt;Node18</title>
<g id="a_edge24_Node000013_Node000018"><a xlink:title=" ">
<path fill="none" stroke="#63b8ff" d="M1412.98,-55.08C1408.79,-48.11 1402.79,-38.12 1397.53,-29.37"/>
<polygon fill="#63b8ff" stroke="#63b8ff" points="1400.6,-27.68 1392.45,-20.91 1394.6,-31.28 1400.6,-27.68"/>
</a>
</g>
</g>
<!-- Node19 -->
<g id="Node000019" class="node">
<title>Node19</title>
<g id="a_Node000019"><a xlink:title=" ">
<polygon fill="#e0e0e0" stroke="#999999" points="1475.52,-19.25 1425.02,-19.25 1425.02,0 1475.52,0 1475.52,-19.25"/>
<text text-anchor="middle" x="1450.27" y="-5.75" font-family="Helvetica,sans-Serif" font-size="10.00">timers.h</text>
</a>
</g>
</g>
<!-- Node13&#45;&gt;Node19 -->
<g id="edge25_Node000013_Node000019" class="edge">
<title>Node13&#45;&gt;Node19</title>
<g id="a_edge25_Node000013_Node000019"><a xlink:title=" ">
<path fill="none" stroke="#63b8ff" d="M1423.55,-55.08C1427.74,-48.11 1433.75,-38.12 1439,-29.37"/>
<polygon fill="#63b8ff" stroke="#63b8ff" points="1441.94,-31.28 1444.09,-20.91 1435.94,-27.68 1441.94,-31.28"/>
</a>
</g>
</g>
<!-- Node21&#45;&gt;Node3 -->
<g id="edge30_Node000021_Node000003" class="edge">
<title>Node21&#45;&gt;Node3</title>
<g id="a_edge30_Node000021_Node000003"><a xlink:title=" ">
<path fill="none" stroke="#63b8ff" d="M1089.77,-187.86C1051.87,-182.83 1002.39,-170.58 969.27,-141 936.46,-111.71 923.11,-59.39 918.06,-30.74"/>
<polygon fill="#63b8ff" stroke="#63b8ff" points="921.53,-30.25 916.52,-20.91 914.61,-31.33 921.53,-30.25"/>
</a>
</g>
</g>
<!-- Node21&#45;&gt;Node8 -->
<g id="edge32_Node000021_Node000008" class="edge">
<title>Node21&#45;&gt;Node8</title>
<g id="a_edge32_Node000021_Node000008"><a xlink:title=" ">
<path fill="none" stroke="#63b8ff" d="M1118.85,-176.61C1103.67,-167.87 1084.17,-156.64 1067.52,-147.05"/>
<polygon fill="#63b8ff" stroke="#63b8ff" points="1069.3,-144.04 1058.89,-142.08 1065.81,-150.11 1069.3,-144.04"/>
</a>
</g>
</g>
<!-- Node21&#45;&gt;Node12 -->
<g id="edge31_Node000021_Node000012" class="edge">
<title>Node21&#45;&gt;Node12</title>
<g id="a_edge31_Node000021_Node000012"><a xlink:title=" ">
<path fill="none" stroke="#63b8ff" d="M1150.17,-176.61C1153.83,-167.53 1158.57,-155.76 1162.53,-145.93"/>
<polygon fill="#63b8ff" stroke="#63b8ff" points="1165.65,-147.56 1166.14,-136.98 1159.16,-144.94 1165.65,-147.56"/>
</a>
</g>
</g>
<!-- Node22&#45;&gt;Node13 -->
<g id="edge35_Node000022_Node000013" class="edge">
<title>Node22&#45;&gt;Node13</title>
<g id="a_edge35_Node000022_Node000013"><a xlink:title=" ">
<path fill="none" stroke="#63b8ff" d="M1512.35,-182.32C1512.07,-166.36 1509.44,-132.57 1493.27,-110.5 1483.39,-97.03 1468.11,-86.88 1453.92,-79.7"/>
<polygon fill="#63b8ff" stroke="#63b8ff" points="1455.77,-76.7 1445.23,-75.63 1452.8,-83.04 1455.77,-76.7"/>
</a>
</g>
</g>
<!-- Node23&#45;&gt;Node5 -->
<g id="edge37_Node000023_Node000005" class="edge">
<title>Node23&#45;&gt;Node5</title>
<g id="a_edge37_Node000023_Node000005"><a xlink:title=" ">
<path fill="none" stroke="#63b8ff" d="M189.32,-243.25C178.76,-214.95 160.34,-151.55 188.27,-110.5 198.63,-95.26 215.08,-85.23 232.26,-78.62"/>
<polygon fill="#63b8ff" stroke="#63b8ff" points="233.25,-81.98 241.57,-75.42 230.97,-75.36 233.25,-81.98"/>
</a>
</g>
</g>
<!-- Node24&#45;&gt;Node5 -->
<g id="edge39_Node000024_Node000005" class="edge">
<title>Node24&#45;&gt;Node5</title>
<g id="a_edge39_Node000024_Node000005"><a xlink:title=" ">
<path fill="none" stroke="#63b8ff" d="M232.55,-176.68C219.21,-168.24 204.68,-156.25 197.27,-141 191.34,-128.81 189.81,-121.82 197.27,-110.5 207.25,-95.35 223.56,-85.33 240.34,-78.7"/>
<polygon fill="#63b8ff" stroke="#63b8ff" points="241.11,-82.14 249.36,-75.5 238.77,-75.54 241.11,-82.14"/>
</a>
</g>
</g>
<!-- Node25&#45;&gt;Node5 -->
<g id="edge41_Node000025_Node000005" class="edge">
<title>Node25&#45;&gt;Node5</title>
<g id="a_edge41_Node000025_Node000005"><a xlink:title=" ">
<path fill="none" stroke="#63b8ff" d="M446.81,-110.05C414.53,-100.25 372.57,-87.52 342.01,-78.24"/>
<polygon fill="#63b8ff" stroke="#63b8ff" points="343.34,-74.99 332.75,-75.43 341.3,-81.68 343.34,-74.99"/>
</a>
</g>
</g>
<!-- Node26&#45;&gt;Node5 -->
<g id="edge44_Node000026_Node000005" class="edge">
<title>Node26&#45;&gt;Node5</title>
<g id="a_edge44_Node000026_Node000005"><a xlink:title=" ">
<path fill="none" stroke="#63b8ff" d="M270.4,-110.2C275.86,-102.35 282.66,-92.6 288.48,-84.24"/>
<polygon fill="#63b8ff" stroke="#63b8ff" points="291.24,-86.4 294.08,-76.19 285.49,-82.4 291.24,-86.4"/>
</a>
</g>
</g>
<!-- Node28&#45;&gt;Node3 -->
<g id="edge47_Node000028_Node000003" class="edge">
<title>Node28&#45;&gt;Node3</title>
<g id="a_edge47_Node000028_Node000003"><a xlink:title=" ">
<path fill="none" stroke="#63b8ff" d="M1400.12,-116.08C1385.16,-100.79 1351.6,-69.32 1316.27,-55.25 1250.06,-28.89 1035.79,-16.24 950.64,-12.16"/>
<polygon fill="#63b8ff" stroke="#63b8ff" points="950.94,-8.67 940.79,-11.7 950.61,-15.66 950.94,-8.67"/>
</a>
</g>
</g>
<!-- Node28&#45;&gt;Node13 -->
<g id="edge48_Node000028_Node000013" class="edge">
<title>Node28&#45;&gt;Node13</title>
<g id="a_edge48_Node000028_Node000013"><a xlink:title=" ">
<path fill="none" stroke="#63b8ff" d="M1409.79,-115.81C1411.12,-107.94 1413.12,-96.2 1414.84,-86.07"/>
<polygon fill="#63b8ff" stroke="#63b8ff" points="1418.26,-86.84 1416.48,-76.39 1411.35,-85.67 1418.26,-86.84"/>
</a>
</g>
</g>
<!-- Node29&#45;&gt;Node3 -->
<g id="edge50_Node000029_Node000003" class="edge">
<title>Node29&#45;&gt;Node3</title>
<g id="a_edge50_Node000029_Node000003"><a xlink:title=" ">
<path fill="none" stroke="#63b8ff" d="M830.57,-54.84C846.25,-46.66 869.62,-34.46 887.84,-24.94"/>
<polygon fill="#63b8ff" stroke="#63b8ff" points="889.29,-28.13 896.54,-20.4 886.05,-21.93 889.29,-28.13"/>
</a>
</g>
</g>
<!-- Node31&#45;&gt;Node3 -->
<g id="edge54_Node000031_Node000003" class="edge">
<title>Node31&#45;&gt;Node3</title>
<g id="a_edge54_Node000031_Node000003"><a xlink:title=" ">
<path fill="none" stroke="#63b8ff" d="M561.59,-248.69C577.49,-233.4 611.06,-201.69 641.27,-177 662.19,-159.9 671.69,-160.63 690.27,-141 721.55,-107.94 709.36,-81.89 746.27,-55.25 786.23,-26.4 843.51,-16.2 880.05,-12.59"/>
<polygon fill="#63b8ff" stroke="#63b8ff" points="879.97,-16.11 889.63,-11.77 879.37,-9.14 879.97,-16.11"/>
</a>
</g>
</g>
<!-- Node31&#45;&gt;Node4 -->
<g id="edge55_Node000031_Node000004" class="edge">
<title>Node31&#45;&gt;Node4</title>
<g id="a_edge55_Node000031_Node000004"><a xlink:title=" ">
<path fill="none" stroke="#63b8ff" d="M552.54,-248.63C553.37,-232.96 556.73,-200.37 570.27,-177 576.5,-166.23 585.83,-156.45 595.03,-148.45"/>
<polygon fill="#63b8ff" stroke="#63b8ff" points="597.02,-151.34 602.54,-142.3 592.59,-145.92 597.02,-151.34"/>
</a>
</g>
</g>
<!-- Node31&#45;&gt;Node6 -->
<g id="edge53_Node000031_Node000006" class="edge">
<title>Node31&#45;&gt;Node6</title>
<g id="a_edge53_Node000031_Node000006"><a xlink:title=" ">
<path fill="none" stroke="#63b8ff" d="M534.01,-257.16C469.63,-254.76 254.02,-244.11 197.27,-207.5 130.36,-164.34 92.48,-71.31 78.52,-30.5"/>
<polygon fill="#63b8ff" stroke="#63b8ff" points="81.86,-29.47 75.42,-21.06 75.21,-31.66 81.86,-29.47"/>
</a>
</g>
</g>
<!-- Node32 -->
<g id="Node000032" class="node">
<title>Node32</title>
<g id="a_Node000032"><a xlink:href="phal__F4_2spi_2spi_8h.html" target="_top" xlink:title=" ">
<polygon fill="white" stroke="#666666" points="478.64,-207.5 371.89,-207.5 371.89,-177 478.64,-177 478.64,-207.5"/>
<text text-anchor="start" x="379.89" y="-194" font-family="Helvetica,sans-Serif" font-size="10.00">common/phal_F4/spi</text>
<text text-anchor="middle" x="425.27" y="-182.75" font-family="Helvetica,sans-Serif" font-size="10.00">/spi.h</text>
</a>
</g>
</g>
<!-- Node31&#45;&gt;Node32 -->
<g id="edge56_Node000031_Node000032" class="edge">
<title>Node31&#45;&gt;Node32</title>
<g id="a_edge56_Node000031_Node000032"><a xlink:title=" ">
<path fill="none" stroke="#63b8ff" d="M534.34,-248.65C516.11,-239.39 487.3,-224.76 463.87,-212.85"/>
<polygon fill="#63b8ff" stroke="#63b8ff" points="465.72,-209.87 455.22,-208.46 462.55,-216.11 465.72,-209.87"/>
</a>
</g>
</g>
<!-- Node32&#45;&gt;Node4 -->
<g id="edge59_Node000032_Node000004" class="edge">
<title>Node32&#45;&gt;Node4</title>
<g id="a_edge59_Node000032_Node000004"><a xlink:title=" ">
<path fill="none" stroke="#63b8ff" d="M470.9,-176.53C500.09,-167.12 538.15,-154.85 569.17,-144.84"/>
<polygon fill="#63b8ff" stroke="#63b8ff" points="569.95,-148.27 578.39,-141.87 567.8,-141.61 569.95,-148.27"/>
</a>
</g>
</g>
<!-- Node32&#45;&gt;Node5 -->
<g id="edge60_Node000032_Node000005" class="edge">
<title>Node32&#45;&gt;Node5</title>
<g id="a_edge60_Node000032_Node000005"><a xlink:title=" ">
<path fill="none" stroke="#63b8ff" d="M404.09,-176.54C391.11,-167.08 374.51,-154.13 361.27,-141 343.18,-123.07 325.34,-99.82 313.88,-83.97"/>
<polygon fill="#63b8ff" stroke="#63b8ff" points="316.85,-82.11 308.2,-75.98 311.14,-86.16 316.85,-82.11"/>
</a>
</g>
</g>
<!-- Node32&#45;&gt;Node25 -->
<g id="edge58_Node000032_Node000025" class="edge">
<title>Node32&#45;&gt;Node25</title>
<g id="a_edge58_Node000032_Node000025"><a xlink:title=" ">
<path fill="none" stroke="#63b8ff" d="M441.15,-176.61C450.01,-168.45 461.23,-158.11 471.15,-148.97"/>
<polygon fill="#63b8ff" stroke="#63b8ff" points="473.35,-151.7 478.33,-142.35 468.61,-146.56 473.35,-151.7"/>
</a>
</g>
</g>
<!-- Node32&#45;&gt;Node26 -->
<g id="edge61_Node000032_Node000026" class="edge">
<title>Node32&#45;&gt;Node26</title>
<g id="a_edge61_Node000032_Node000026"><a xlink:title=" ">
<path fill="none" stroke="#63b8ff" d="M387.83,-176.61C364.28,-167.41 333.67,-155.45 308.34,-145.54"/>
<polygon fill="#63b8ff" stroke="#63b8ff" points="309.84,-142.37 299.25,-141.99 307.29,-148.89 309.84,-142.37"/>
</a>
</g>
</g>
<!-- Node33 -->
<g id="Node000033" class="node">
<title>Node33</title>
<g id="a_Node000033"><a xlink:title=" ">
<polygon fill="#e0e0e0" stroke="#999999" points="420.52,-135.38 370.02,-135.38 370.02,-116.12 420.52,-116.12 420.52,-135.38"/>
<text text-anchor="middle" x="395.27" y="-121.88" font-family="Helvetica,sans-Serif" font-size="10.00">stddef.h</text>
</a>
</g>
</g>
<!-- Node32&#45;&gt;Node33 -->
<g id="edge57_Node000032_Node000033" class="edge">
<title>Node32&#45;&gt;Node33</title>
<g id="a_edge57_Node000032_Node000033"><a xlink:title=" ">
<path fill="none" stroke="#63b8ff" d="M418.46,-176.61C414.23,-167.53 408.76,-155.76 404.19,-145.93"/>
<polygon fill="#63b8ff" stroke="#63b8ff" points="407.4,-144.54 400.01,-136.95 401.05,-147.49 407.4,-144.54"/>
</a>
</g>
</g>
<!-- Node34&#45;&gt;Node3 -->
<g id="edge64_Node000034_Node000003" class="edge">
<title>Node34&#45;&gt;Node3</title>
<g id="a_edge64_Node000034_Node000003"><a xlink:title=" ">
<path fill="none" stroke="#63b8ff" d="M68.35,-115.74C98.74,-100.22 164.61,-68.79 224.27,-55.25 351.05,-26.47 756.88,-14.47 879.71,-11.44"/>
<polygon fill="#63b8ff" stroke="#63b8ff" points="879.59,-14.94 889.5,-11.2 879.42,-7.94 879.59,-14.94"/>
</a>
</g>
</g>
<!-- Node34&#45;&gt;Node6 -->
<g id="edge63_Node000034_Node000006" class="edge">
<title>Node34&#45;&gt;Node6</title>
<g id="a_edge63_Node000034_Node000006"><a xlink:title=" ">
<path fill="none" stroke="#63b8ff" d="M37.14,-115.71C18.87,-102.82 -9.21,-78.18 3.27,-55.25 10.58,-41.8 23.89,-31.79 36.88,-24.69"/>
<polygon fill="#63b8ff" stroke="#63b8ff" points="38.35,-27.87 45.75,-20.29 35.24,-21.6 38.35,-27.87"/>
</a>
</g>
</g>
<!-- Node34&#45;&gt;Node35 -->
<g id="edge65_Node000034_Node000035" class="edge">
<title>Node34&#45;&gt;Node35</title>
<g id="a_edge65_Node000034_Node000035"><a xlink:title=" ">
<path fill="none" stroke="#63b8ff" d="M50.05,-115.81C48.98,-107.94 47.39,-96.2 46.01,-86.07"/>
<polygon fill="#63b8ff" stroke="#63b8ff" points="49.51,-85.84 44.7,-76.4 42.58,-86.78 49.51,-85.84"/>
</a>
</g>
</g>
<!-- Node35&#45;&gt;Node3 -->
<g id="edge67_Node000035_Node000003" class="edge">
<title>Node35&#45;&gt;Node3</title>
<g id="a_edge67_Node000035_Node000003"><a xlink:title=" ">
<path fill="none" stroke="#63b8ff" d="M74.87,-61.85C102.43,-60.08 143.49,-57.47 179.27,-55.25 448.69,-38.54 773.64,-19.08 879.83,-12.74"/>
<polygon fill="#63b8ff" stroke="#63b8ff" points="879.84,-16.24 889.61,-12.15 879.42,-9.26 879.84,-16.24"/>
</a>
</g>
</g>
<!-- Node35&#45;&gt;Node6 -->
<g id="edge66_Node000035_Node000006" class="edge">
<title>Node35&#45;&gt;Node6</title>
<g id="a_edge66_Node000035_Node000006"><a xlink:title=" ">
<path fill="none" stroke="#63b8ff" d="M48.06,-55.08C51.81,-48.19 57.17,-38.34 61.9,-29.66"/>
<polygon fill="#63b8ff" stroke="#63b8ff" points="64.94,-31.39 66.65,-20.94 58.79,-28.05 64.94,-31.39"/>
</a>
</g>
</g>
</g>
</svg>
