<?xml version="1.0" encoding="UTF-8" standalone="no"?>
<!DOCTYPE svg PUBLIC "-//W3C//DTD SVG 1.1//EN"
 "http://www.w3.org/Graphics/SVG/1.1/DTD/svg11.dtd">
<!-- Generated by graphviz version 12.2.0 (20241103.1931)
 -->
<!-- Title: PHAL_SPI_transfer_noDMA Pages: 1 -->
<svg width="284pt" height="64pt"
 viewBox="0.00 0.00 283.75 64.25" xmlns="http://www.w3.org/2000/svg" xmlns:xlink="http://www.w3.org/1999/xlink">
<g id="graph0" class="graph" transform="scale(1 1) rotate(0) translate(4 60.25)">
<title>PHAL_SPI_transfer_noDMA</title>
<!-- Node1 -->
<g id="Node000001" class="node">
<title>Node1</title>
<g id="a_Node000001"><a xlink:title="SPI handle.">
<polygon fill="#999999" stroke="#666666" points="140.5,-37.25 0,-37.25 0,-18 140.5,-18 140.5,-37.25"/>
<text text-anchor="middle" x="70.25" y="-23.75" font-family="Helvetica,sans-Serif" font-size="10.00">PHAL_SPI_transfer_noDMA</text>
</a>
</g>
</g>
<!-- Node2 -->
<g id="Node000002" class="node">
<title>Node2</title>
<g id="a_Node000002"><a xlink:href="phal__F4_2gpio_2gpio_8h.html#a95bb9df725934f94cb3a2386c467fb2f" target="_top" xlink:title="Write a logic value to an output pin.">
<polygon fill="white" stroke="#666666" points="275.75,-56.25 176.5,-56.25 176.5,-37 275.75,-37 275.75,-56.25"/>
<text text-anchor="middle" x="226.12" y="-42.75" font-family="Helvetica,sans-Serif" font-size="10.00">PHAL_GPIO_write</text>
</a>
</g>
</g>
<!-- Node1&#45;&gt;Node2 -->
<g id="edge1_Node000001_Node000002" class="edge">
<title>Node1&#45;&gt;Node2</title>
<g id="a_edge1_Node000001_Node000002"><a xlink:title=" ">
<path fill="none" stroke="#63b8ff" d="M140.98,-36.24C149,-37.23 157.12,-38.23 164.99,-39.2"/>
<polygon fill="#63b8ff" stroke="#63b8ff" points="164.45,-42.66 174.8,-40.41 165.31,-35.71 164.45,-42.66"/>
</a>
</g>
</g>
<!-- Node3 -->
<g id="Node000003" class="node">
<title>Node3</title>
<g id="a_Node000003"><a xlink:href="phal__F4_2spi_2spi_8c.html#a35fd94eb02f487e09065ddc0ecb92e53" target="_top" xlink:title="Check for current SPI transaction to complete.">
<polygon fill="white" stroke="#666666" points="271.25,-19.25 181,-19.25 181,0 271.25,0 271.25,-19.25"/>
<text text-anchor="middle" x="226.12" y="-5.75" font-family="Helvetica,sans-Serif" font-size="10.00">PHAL_SPI_busy</text>
</a>
</g>
</g>
<!-- Node1&#45;&gt;Node3 -->
<g id="edge2_Node000001_Node000003" class="edge">
<title>Node1&#45;&gt;Node3</title>
<g id="a_edge2_Node000001_Node000003"><a xlink:title=" ">
<path fill="none" stroke="#63b8ff" d="M140.98,-19.47C150.49,-18.36 160.14,-17.23 169.36,-16.15"/>
<polygon fill="#63b8ff" stroke="#63b8ff" points="169.72,-19.63 179.24,-14.99 168.9,-12.68 169.72,-19.63"/>
</a>
</g>
</g>
</g>
</svg>
