<?xml version="1.0" encoding="UTF-8" standalone="no"?>
<!DOCTYPE svg PUBLIC "-//W3C//DTD SVG 1.1//EN"
 "http://www.w3.org/Graphics/SVG/1.1/DTD/svg11.dtd">
<!-- Generated by graphviz version 12.2.0 (20241103.1931)
 -->
<!-- Title: PHAL_USART_init Pages: 1 -->
<!--zoomable 397 -->

<svg id="main" version="1.1" xmlns="http://www.w3.org/2000/svg" xmlns:xlink="http://www.w3.org/1999/xlink" xml:space="preserve" onload="init(evt)">

<style type="text/css"><![CDATA[
.node, .edge {opacity: 0.7;}
.node.selected, .edge.selected {opacity: 1;}
.edge:hover path { stroke: red; }
.edge:hover polygon { stroke: red; fill: red; }
]]></style>

<defs>
  <circle id="rim" cx="0" cy="0" r="7"/>
  <circle id="rim2" cx="0" cy="0" r="3.5"/>
  <g id="zoomPlus">
    <use xlink:href="#rim" fill="#404040"><set attributeName="fill" to="#808080" begin="zoomplus.mouseover" end="zoomplus.mouseout"/></use>
    <path d="M-4,0h8M0,-4v8" fill="none" stroke="white" stroke-width="1.5" pointer-events="none"/>
  </g>
  <g id="zoomMin">
    <use xlink:href="#rim" fill="#404040"><set attributeName="fill" to="#808080" begin="zoomminus.mouseover" end="zoomminus.mouseout"/></use>
    <path d="M-4,0h8" fill="none" stroke="white" stroke-width="1.5" pointer-events="none"/>
  </g>
  <g id="arrowUp" transform="translate(30 24)">
    <use xlink:href="#rim"/>
    <path pointer-events="none" fill="none" stroke="white" stroke-width="1.5" d="M0,-3.0v7 M-2.5,-0.5L0,-3.0L2.5,-0.5"/>
  </g>
  <g id="arrowRight" transform="rotate(90) translate(36 -43)">
    <use xlink:href="#rim"/>
    <path pointer-events="none" fill="none" stroke="white" stroke-width="1.5" d="M0,-3.0v7 M-2.5,-0.5L0,-3.0L2.5,-0.5"/>
  </g>
  <g id="arrowDown" transform="rotate(180) translate(-30 -48)">
    <use xlink:href="#rim"/>
    <path pointer-events="none" fill="none" stroke="white" stroke-width="1.5" d="M0,-3.0v7 M-2.5,-0.5L0,-3.0L2.5,-0.5"/>
  </g>
  <g id="arrowLeft" transform="rotate(270) translate(-36 17)">
    <use xlink:href="#rim"/>
    <path pointer-events="none" fill="none" stroke="white" stroke-width="1.5" d="M0,-3.0v7 M-2.5,-0.5L0,-3.0L2.5,-0.5"/>
  </g>
  <g id="resetDef">
    <use xlink:href="#rim2" fill="#404040"><set attributeName="fill" to="#808080" begin="reset.mouseover" end="reset.mouseout"/></use>
  </g>
</defs>
<script type="application/ecmascript">
var viewWidth = 600;
var viewHeight = 397;
var sectionId = 'dynsection-11';
</script>
<script type="application/ecmascript" xlink:href="svg.min.js"/>
<svg id="graph" class="graph">
<g id="viewport">
<title>PHAL_USART_init</title>
<!-- Node1 -->
<g id="Node000001" class="node">
<title>Node1</title>
<g id="a_Node000001"><a xlink:title="Initialize a USART peripheral for DMA&#45;driven communication.">
<polygon fill="#999999" stroke="#666666" points="100,-148.25 0,-148.25 0,-129 100,-129 100,-148.25"/>
<text text-anchor="middle" x="50" y="-134.75" font-family="Helvetica,sans-Serif" font-size="10.00">PHAL_USART_init</text>
</a>
</g>
</g>
<!-- Node2 -->
<g id="Node000002" class="node">
<title>Node2</title>
<g id="a_Node000002"><a xlink:href="phal__G4_2dma_2dma_8c.html#a44be3f4d5e3f90d9fa73d1b808185d53" target="_top" xlink:title="Claim a DMA channel and configure it from handle&#45;&gt;wiring and handle&#45;&gt;params.">
<polygon fill="white" stroke="#666666" points="256.62,-204.25 168.62,-204.25 168.62,-185 256.62,-185 256.62,-204.25"/>
<text text-anchor="middle" x="212.62" y="-190.75" font-family="Helvetica,sans-Serif" font-size="10.00">PHAL_DMA_init</text>
</a>
</g>
</g>
<!-- Node1&#45;&gt;Node2 -->
<g id="edge1_Node000001_Node000002" class="edge">
<title>Node1&#45;&gt;Node2</title>
<g id="a_edge1_Node000001_Node000002"><a xlink:title=" ">
<path fill="none" stroke="#63b8ff" d="M70.5,-148.6C87.47,-156.97 112.89,-168.78 136,-176.62 142.87,-178.96 150.2,-181.1 157.48,-183.04"/>
<polygon fill="#63b8ff" stroke="#63b8ff" points="156.41,-186.38 166.97,-185.44 158.13,-179.59 156.41,-186.38"/>
</a>
</g>
</g>
<!-- Node15 -->
<g id="Node000015" class="node">
<title>Node15</title>
<g id="a_Node000015"><a xlink:href="usart__priv_8c.html#ae5dde09b3f94cf11fdf68976beb8288e" target="_top" xlink:title="Fill the TX and RX DMA handles from the hardware map.">
<polygon fill="white" stroke="#666666" points="287,-167.25 138.25,-167.25 138.25,-148 287,-148 287,-167.25"/>
<text text-anchor="middle" x="212.62" y="-153.75" font-family="Helvetica,sans-Serif" font-size="10.00">PHAL_USART_priv_buildDma</text>
</a>
</g>
</g>
<!-- Node1&#45;&gt;Node15 -->
<g id="edge14_Node000001_Node000015" class="edge">
<title>Node1&#45;&gt;Node15</title>
<g id="a_edge14_Node000001_Node000015"><a xlink:title=" ">
<path fill="none" stroke="#63b8ff" d="M100.07,-144.43C108.59,-145.44 117.68,-146.51 126.84,-147.6"/>
<polygon fill="#63b8ff" stroke="#63b8ff" points="126.17,-151.04 136.52,-148.74 127,-144.09 126.17,-151.04"/>
</a>
</g>
</g>
<!-- Node16 -->
<g id="Node000016" class="node">
<title>Node16</title>
<g id="a_Node000016"><a xlink:href="usart__priv_8c.html#a6effeddfc26f53a30dace58a43fce781" target="_top" xlink:title="Enable the clock, program 8N1 + baud, and enable the USART + TX&#45;DMA interrupts.">
<polygon fill="white" stroke="#666666" points="286.25,-130.25 139,-130.25 139,-111 286.25,-111 286.25,-130.25"/>
<text text-anchor="middle" x="212.62" y="-116.75" font-family="Helvetica,sans-Serif" font-size="10.00">PHAL_USART_priv_configure</text>
</a>
</g>
</g>
<!-- Node1&#45;&gt;Node16 -->
<g id="edge15_Node000001_Node000016" class="edge">
<title>Node1&#45;&gt;Node16</title>
<g id="a_edge15_Node000001_Node000016"><a xlink:title=" ">
<path fill="none" stroke="#63b8ff" d="M100.07,-133.13C108.72,-132.16 117.96,-131.12 127.26,-130.08"/>
<polygon fill="#63b8ff" stroke="#63b8ff" points="127.56,-133.57 137.11,-128.98 126.78,-126.61 127.56,-133.57"/>
</a>
</g>
</g>
<!-- Node17 -->
<g id="Node000017" class="node">
<title>Node17</title>
<g id="a_Node000017"><a xlink:href="usart__priv_8c.html#a68a3184b6a488df3707f6060460491e9" target="_top" xlink:title=" ">
<polygon fill="white" stroke="#666666" points="289.25,-93.25 136,-93.25 136,-74 289.25,-74 289.25,-93.25"/>
<text text-anchor="middle" x="212.62" y="-79.75" font-family="Helvetica,sans-Serif" font-size="10.00">PHAL_USART_priv_enableIrqs</text>
</a>
</g>
</g>
<!-- Node1&#45;&gt;Node17 -->
<g id="edge16_Node000001_Node000017" class="edge">
<title>Node1&#45;&gt;Node17</title>
<g id="a_edge16_Node000001_Node000017"><a xlink:title=" ">
<path fill="none" stroke="#63b8ff" d="M71.21,-128.62C88.19,-120.51 113.25,-109.22 136,-101.62 141.38,-99.83 147.04,-98.14 152.73,-96.56"/>
<polygon fill="#63b8ff" stroke="#63b8ff" points="153.42,-100 162.2,-94.07 151.64,-93.23 153.42,-100"/>
</a>
</g>
</g>
<!-- Node3 -->
<g id="Node000003" class="node">
<title>Node3</title>
<g id="a_Node000003"><a xlink:href="phal__G4_2dma_2dma_8c.html#af12ff6bf938e0b8cf0882c4e64e2cdd4" target="_top" xlink:title=" ">
<polygon fill="white" stroke="#666666" points="473.62,-389.25 350.38,-389.25 350.38,-370 473.62,-370 473.62,-389.25"/>
<text text-anchor="middle" x="412" y="-375.75" font-family="Helvetica,sans-Serif" font-size="10.00">dma_channel_claim_slot</text>
</a>
</g>
</g>
<!-- Node2&#45;&gt;Node3 -->
<g id="edge2_Node000002_Node000003" class="edge">
<title>Node2&#45;&gt;Node3</title>
<g id="a_edge2_Node000002_Node000003"><a xlink:title=" ">
<path fill="none" stroke="#63b8ff" d="M217.11,-204.47C227.98,-233.69 264.28,-320.43 325.25,-361.62 329.67,-364.61 334.48,-367.11 339.5,-369.21"/>
<polygon fill="#63b8ff" stroke="#63b8ff" points="338.01,-372.4 348.6,-372.47 340.36,-365.81 338.01,-372.4"/>
</a>
</g>
</g>
<!-- Node4 -->
<g id="Node000004" class="node">
<title>Node4</title>
<g id="a_Node000004"><a xlink:href="phal__G4_2dma_2dma_8c.html#a3355394f66e080a191644b3aa05bb7e6" target="_top" xlink:title=" ">
<polygon fill="white" stroke="#666666" points="463.88,-352.25 360.12,-352.25 360.12,-333 463.88,-333 463.88,-352.25"/>
<text text-anchor="middle" x="412" y="-338.75" font-family="Helvetica,sans-Serif" font-size="10.00">dma_wiring_is_valid</text>
</a>
</g>
</g>
<!-- Node2&#45;&gt;Node4 -->
<g id="edge3_Node000002_Node000004" class="edge">
<title>Node2&#45;&gt;Node4</title>
<g id="a_edge3_Node000002_Node000004"><a xlink:title=" ">
<path fill="none" stroke="#63b8ff" d="M219.11,-204.71C233.15,-229.52 273.02,-293.73 325.25,-324.62 332.53,-328.93 340.7,-332.22 349.02,-334.72"/>
<polygon fill="#63b8ff" stroke="#63b8ff" points="347.97,-338.06 358.53,-337.2 349.73,-331.29 347.97,-338.06"/>
</a>
</g>
</g>
<!-- Node5 -->
<g id="Node000005" class="node">
<title>Node5</title>
<g id="a_Node000005"><a xlink:href="dma__priv_8c.html#af2abd80aa58bd274ede649605c608987" target="_top" xlink:title="Clear every latched status flag (global/complete/half/error) for one channel.">
<polygon fill="white" stroke="#666666" points="482.62,-315.25 341.38,-315.25 341.38,-296 482.62,-296 482.62,-315.25"/>
<text text-anchor="middle" x="412" y="-301.75" font-family="Helvetica,sans-Serif" font-size="10.00">PHAL_DMA_priv_clearFlags</text>
</a>
</g>
</g>
<!-- Node2&#45;&gt;Node5 -->
<g id="edge4_Node000002_Node000005" class="edge">
<title>Node2&#45;&gt;Node5</title>
<g id="a_edge4_Node000002_Node000005"><a xlink:title=" ">
<path fill="none" stroke="#63b8ff" d="M222.35,-204.6C239.81,-223.89 281.2,-266.31 325.25,-287.62 328.54,-289.22 331.96,-290.67 335.47,-291.99"/>
<polygon fill="#63b8ff" stroke="#63b8ff" points="334.15,-295.24 344.74,-295.1 336.38,-288.6 334.15,-295.24"/>
</a>
</g>
</g>
<!-- Node6 -->
<g id="Node000006" class="node">
<title>Node6</title>
<g id="a_Node000006"><a xlink:href="dma__priv_8c.html#a3f0c9d4036cc06c7b22d99ca7f542d2b" target="_top" xlink:title="Configure CCR (data sizes, priority, increment modes, mode, ISR enables) from wiring+params.">
<polygon fill="white" stroke="#666666" points="490.5,-278.25 333.5,-278.25 333.5,-259 490.5,-259 490.5,-278.25"/>
<text text-anchor="middle" x="412" y="-264.75" font-family="Helvetica,sans-Serif" font-size="10.00">PHAL_DMA_priv_configChannel</text>
</a>
</g>
</g>
<!-- Node2&#45;&gt;Node6 -->
<g id="edge5_Node000002_Node000006" class="edge">
<title>Node2&#45;&gt;Node6</title>
<g id="a_edge5_Node000002_Node000006"><a xlink:title=" ">
<path fill="none" stroke="#63b8ff" d="M230.05,-204.57C251.31,-217.03 289.84,-238.26 325.25,-250.62 330.59,-252.49 336.18,-254.19 341.85,-255.74"/>
<polygon fill="#63b8ff" stroke="#63b8ff" points="340.76,-259.07 351.32,-258.15 342.49,-252.29 340.76,-259.07"/>
</a>
</g>
</g>
<!-- Node8 -->
<g id="Node000008" class="node">
<title>Node8</title>
<g id="a_Node000008"><a xlink:href="dma__priv_8c.html#a8587b5521d3115d25b6bfe0bdca3848b" target="_top" xlink:title="Route wiring&#45;&gt;mux_request to (periph, channel_idx)&#39;s DMAMUX channel.">
<polygon fill="white" stroke="#666666" points="481.88,-241.25 342.12,-241.25 342.12,-222 481.88,-222 481.88,-241.25"/>
<text text-anchor="middle" x="412" y="-227.75" font-family="Helvetica,sans-Serif" font-size="10.00">PHAL_DMA_priv_configMux</text>
</a>
</g>
</g>
<!-- Node2&#45;&gt;Node8 -->
<g id="edge7_Node000002_Node000008" class="edge">
<title>Node2&#45;&gt;Node8</title>
<g id="a_edge7_Node000002_Node000008"><a xlink:title=" ">
<path fill="none" stroke="#63b8ff" d="M256.94,-202.74C283.1,-207.65 316.94,-213.99 346.24,-219.48"/>
<polygon fill="#63b8ff" stroke="#63b8ff" points="345.26,-222.86 355.73,-221.26 346.55,-215.98 345.26,-222.86"/>
</a>
</g>
</g>
<!-- Node9 -->
<g id="Node000009" class="node">
<title>Node9</title>
<g id="a_Node000009"><a xlink:href="dma__priv_8c.html#a5120208650c6c1774fe79c46127ea4c2" target="_top" xlink:title="Disable a channel and block until hardware confirms it is off.">
<polygon fill="white" stroke="#666666" points="493.12,-204.25 330.88,-204.25 330.88,-185 493.12,-185 493.12,-204.25"/>
<text text-anchor="middle" x="412" y="-190.75" font-family="Helvetica,sans-Serif" font-size="10.00">PHAL_DMA_priv_disableChannel</text>
</a>
</g>
</g>
<!-- Node2&#45;&gt;Node9 -->
<g id="edge8_Node000002_Node000009" class="edge">
<title>Node2&#45;&gt;Node9</title>
<g id="a_edge8_Node000002_Node000009"><a xlink:title=" ">
<path fill="none" stroke="#63b8ff" d="M256.94,-194.62C275.3,-194.62 297.44,-194.62 319.14,-194.62"/>
<polygon fill="#63b8ff" stroke="#63b8ff" points="318.91,-198.13 328.91,-194.63 318.91,-191.13 318.91,-198.13"/>
</a>
</g>
</g>
<!-- Node10 -->
<g id="Node000010" class="node">
<title>Node10</title>
<g id="a_Node000010"><a xlink:href="dma__priv_8c.html#a98c01cf2ce77f94763ff918f7f939e0e" target="_top" xlink:title="Enable DMAMUX1&#39;s clock plus the given DMA peripheral&#39;s clock.">
<polygon fill="white" stroke="#666666" points="486.75,-167.25 337.25,-167.25 337.25,-148 486.75,-148 486.75,-167.25"/>
<text text-anchor="middle" x="412" y="-153.75" font-family="Helvetica,sans-Serif" font-size="10.00">PHAL_DMA_priv_enableClock</text>
</a>
</g>
</g>
<!-- Node2&#45;&gt;Node10 -->
<g id="edge9_Node000002_Node000010" class="edge">
<title>Node2&#45;&gt;Node10</title>
<g id="a_edge9_Node000002_Node000010"><a xlink:title=" ">
<path fill="none" stroke="#63b8ff" d="M256.94,-186.51C283.1,-181.6 316.94,-175.26 346.24,-169.77"/>
<polygon fill="#63b8ff" stroke="#63b8ff" points="346.55,-173.27 355.73,-167.99 345.26,-166.39 346.55,-173.27"/>
</a>
</g>
</g>
<!-- Node11 -->
<g id="Node000011" class="node">
<title>Node11</title>
<g id="a_Node000011"><a xlink:href="dma__priv_8c.html#ae2f74296c8912f0000fa614d49bd1ab8" target="_top" xlink:title="Look up the channel instance for (periph, channel_idx). channel_idx must be 1&#45;8.">
<polygon fill="white" stroke="#666666" points="484.5,-130.25 339.5,-130.25 339.5,-111 484.5,-111 484.5,-130.25"/>
<text text-anchor="middle" x="412" y="-116.75" font-family="Helvetica,sans-Serif" font-size="10.00">PHAL_DMA_priv_getChannel</text>
</a>
</g>
</g>
<!-- Node2&#45;&gt;Node11 -->
<g id="edge10_Node000002_Node000011" class="edge">
<title>Node2&#45;&gt;Node11</title>
<g id="a_edge10_Node000002_Node000011"><a xlink:title=" ">
<path fill="none" stroke="#63b8ff" d="M256.87,-188.84C267.91,-186.17 279.43,-182.29 289.25,-176.62 309.4,-165 304.94,-149.98 325.25,-138.62 327.75,-137.23 330.34,-135.94 333,-134.75"/>
<polygon fill="#63b8ff" stroke="#63b8ff" points="334.09,-138.08 342.14,-131.19 331.55,-131.56 334.09,-138.08"/>
</a>
</g>
</g>
<!-- Node12 -->
<g id="Node000012" class="node">
<title>Node12</title>
<g id="a_Node000012"><a xlink:href="dma__priv_8c.html#aa6b45775bb2ff8ed4bcb8e5bb1177521" target="_top" xlink:title="Write the transfer length (CNDTR)">
<polygon fill="white" stroke="#666666" points="481.88,-93.25 342.12,-93.25 342.12,-74 481.88,-74 481.88,-93.25"/>
<text text-anchor="middle" x="412" y="-79.75" font-family="Helvetica,sans-Serif" font-size="10.00">PHAL_DMA_priv_setLength</text>
</a>
</g>
</g>
<!-- Node2&#45;&gt;Node12 -->
<g id="edge11_Node000002_Node000012" class="edge">
<title>Node2&#45;&gt;Node12</title>
<g id="a_edge11_Node000002_Node000012"><a xlink:title=" ">
<path fill="none" stroke="#63b8ff" d="M257.03,-191.08C268.45,-188.43 280.11,-183.99 289.25,-176.62 318.04,-153.42 296.16,-124.44 325.25,-101.62 327.29,-100.02 329.44,-98.56 331.68,-97.21"/>
<polygon fill="#63b8ff" stroke="#63b8ff" points="333.23,-100.35 340.6,-92.74 330.09,-94.09 333.23,-100.35"/>
</a>
</g>
</g>
<!-- Node13 -->
<g id="Node000013" class="node">
<title>Node13</title>
<g id="a_Node000013"><a xlink:href="dma__priv_8c.html#a2449fa9f613108935c398de08de96014" target="_top" xlink:title="Write the memory&#45;side address (CMAR)">
<polygon fill="white" stroke="#666666" points="495.75,-56.25 328.25,-56.25 328.25,-37 495.75,-37 495.75,-56.25"/>
<text text-anchor="middle" x="412" y="-42.75" font-family="Helvetica,sans-Serif" font-size="10.00">PHAL_DMA_priv_setMemAddress</text>
</a>
</g>
</g>
<!-- Node2&#45;&gt;Node13 -->
<g id="edge12_Node000002_Node000013" class="edge">
<title>Node2&#45;&gt;Node13</title>
<g id="a_edge12_Node000002_Node000013"><a xlink:title=" ">
<path fill="none" stroke="#63b8ff" d="M256.93,-192.05C268.61,-189.45 280.43,-184.78 289.25,-176.62 327.62,-141.11 286.4,-99.62 325.25,-64.62 325.91,-64.03 326.58,-63.46 327.26,-62.9"/>
<polygon fill="#63b8ff" stroke="#63b8ff" points="329.16,-65.85 335.57,-57.42 325.3,-60 329.16,-65.85"/>
</a>
</g>
</g>
<!-- Node14 -->
<g id="Node000014" class="node">
<title>Node14</title>
<g id="a_Node000014"><a xlink:href="dma__priv_8c.html#a2deaccb19340858592ae93d61e6847c4" target="_top" xlink:title="Write the peripheral&#45;side address (CPAR)">
<polygon fill="white" stroke="#666666" points="498.75,-19.25 325.25,-19.25 325.25,0 498.75,0 498.75,-19.25"/>
<text text-anchor="middle" x="412" y="-5.75" font-family="Helvetica,sans-Serif" font-size="10.00">PHAL_DMA_priv_setPeriphAddress</text>
</a>
</g>
</g>
<!-- Node2&#45;&gt;Node14 -->
<g id="edge13_Node000002_Node000014" class="edge">
<title>Node2&#45;&gt;Node14</title>
<g id="a_edge13_Node000002_Node000014"><a xlink:title=" ">
<path fill="none" stroke="#63b8ff" d="M256.93,-192.55C268.75,-189.97 280.65,-185.2 289.25,-176.62 337.51,-128.53 276.36,-75.07 325.25,-27.62 325.65,-27.24 326.05,-26.86 326.45,-26.49"/>
<polygon fill="#63b8ff" stroke="#63b8ff" points="328.5,-29.33 334.54,-20.63 324.39,-23.67 328.5,-29.33"/>
</a>
</g>
</g>
<!-- Node7 -->
<g id="Node000007" class="node">
<title>Node7</title>
<g id="a_Node000007"><a xlink:href="dma__priv_8c.html#a3ee5d0a2c1258bd0a664abd82aa1f60e" target="_top" xlink:title=" ">
<polygon fill="white" stroke="#666666" points="592,-278.25 534.75,-278.25 534.75,-259 592,-259 592,-278.25"/>
<text text-anchor="middle" x="563.38" y="-264.75" font-family="Helvetica,sans-Serif" font-size="10.00">modeBits</text>
</a>
</g>
</g>
<!-- Node6&#45;&gt;Node7 -->
<g id="edge6_Node000006_Node000007" class="edge">
<title>Node6&#45;&gt;Node7</title>
<g id="a_edge6_Node000006_Node000007"><a xlink:title=" ">
<path fill="none" stroke="#63b8ff" d="M490.75,-268.62C501.84,-268.62 512.84,-268.62 522.76,-268.62"/>
<polygon fill="#63b8ff" stroke="#63b8ff" points="522.76,-272.13 532.76,-268.63 522.76,-265.13 522.76,-272.13"/>
</a>
</g>
</g>
</g>
</svg>

<g id="navigator" transform="translate(0 0)" fill="#404254">
  <rect fill="#f2f5e9" fill-opacity="0.5" stroke="#606060" stroke-width=".5" x="0" y="0" width="60" height="60"/>
  <use id="zoomplus" xlink:href="#zoomPlus" x="17" y="9" onmousedown="handleZoom(evt,'in')"/>
  <use id="zoomminus" xlink:href="#zoomMin" x="42" y="9" onmousedown="handleZoom(evt,'out')"/>
  <use id="reset" xlink:href="#resetDef" x="30" y="36" onmousedown="handleReset()"/>
   <use id="arrowup" xlink:href="#arrowUp" x="0" y="0" onmousedown="handlePan(0,-1)"/>
  <use id="arrowright" xlink:href="#arrowRight" x="0" y="0" onmousedown="handlePan(1,0)"/>
  <use id="arrowdown" xlink:href="#arrowDown" x="0" y="0" onmousedown="handlePan(0,1)"/>
  <use id="arrowleft" xlink:href="#arrowLeft" x="0" y="0" onmousedown="handlePan(-1,0)"/>
</g>
<svg viewBox="0 0 15 15" width="100%" height="30px" preserveAspectRatio="xMaxYMin meet">
 <g id="arrow_out" transform="scale(0.3 0.3)">
  <a xlink:href="phal__G4_2usart_2usart_8c_a111a81e667da7f8dfcf9d39836664970_cgraph_org.svg" target="_base">
   <rect id="button" ry="5" rx="5" y="6" x="6" height="38" width="38"
        fill="#f2f5e9" fill-opacity="0.5" stroke="#606060" stroke-width="1.0"/>
   <path id="arrow"
     d="M 11.500037,31.436501 C 11.940474,20.09759 22.043105,11.32322 32.158766,21.979434 L 37.068811,17.246167 C 37.068811,17.246167 37.088388,32 37.088388,32 L 22.160133,31.978069 C 22.160133,31.978069 26.997745,27.140456 26.997745,27.140456 C 18.528582,18.264221 13.291696,25.230495 11.500037,31.436501 z"
     style="fill:#404040;"/>
  </a>
 </g>
</svg>

<style type='text/css'>
<![CDATA[
[data-mouse-over-selected='false'] { opacity: 0.7; }
[data-mouse-over-selected='true']  { opacity: 1.0; }
]]>
</style>
<script type="application/ecmascript"><![CDATA[
document.addEventListener('DOMContentLoaded', (event) => {
  highlightEdges();
  highlightAdjacentNodes();
});
]]></script>
</svg>
