<?xml version="1.0" encoding="UTF-8" standalone="no"?>
<!DOCTYPE svg PUBLIC "-//W3C//DTD SVG 1.1//EN"
 "http://www.w3.org/Graphics/SVG/1.1/DTD/svg11.dtd">
<!-- Generated by graphviz version 12.2.0 (20241103.1931)
 -->
<!-- Title: firmware/source/main_module/sdc/sdc.c Pages: 1 -->
<!--zoomable 172 -->

<svg id="main" version="1.1" xmlns="http://www.w3.org/2000/svg" xmlns:xlink="http://www.w3.org/1999/xlink" xml:space="preserve" onload="init(evt)">

<style type="text/css"><![CDATA[
.node, .edge {opacity: 0.7;}
.node.selected, .edge.selected {opacity: 1;}
.edge:hover path { stroke: red; }
.edge:hover polygon { stroke: red; fill: red; }
]]></style>

<defs>
  <circle id="rim" cx="0" cy="0" r="7"/>
  <circle id="rim2" cx="0" cy="0" r="3.5"/>
  <g id="zoomPlus">
    <use xlink:href="#rim" fill="#404040"><set attributeName="fill" to="#808080" begin="zoomplus.mouseover" end="zoomplus.mouseout"/></use>
    <path d="M-4,0h8M0,-4v8" fill="none" stroke="white" stroke-width="1.5" pointer-events="none"/>
  </g>
  <g id="zoomMin">
    <use xlink:href="#rim" fill="#404040"><set attributeName="fill" to="#808080" begin="zoomminus.mouseover" end="zoomminus.mouseout"/></use>
    <path d="M-4,0h8" fill="none" stroke="white" stroke-width="1.5" pointer-events="none"/>
  </g>
  <g id="arrowUp" transform="translate(30 24)">
    <use xlink:href="#rim"/>
    <path pointer-events="none" fill="none" stroke="white" stroke-width="1.5" d="M0,-3.0v7 M-2.5,-0.5L0,-3.0L2.5,-0.5"/>
  </g>
  <g id="arrowRight" transform="rotate(90) translate(36 -43)">
    <use xlink:href="#rim"/>
    <path pointer-events="none" fill="none" stroke="white" stroke-width="1.5" d="M0,-3.0v7 M-2.5,-0.5L0,-3.0L2.5,-0.5"/>
  </g>
  <g id="arrowDown" transform="rotate(180) translate(-30 -48)">
    <use xlink:href="#rim"/>
    <path pointer-events="none" fill="none" stroke="white" stroke-width="1.5" d="M0,-3.0v7 M-2.5,-0.5L0,-3.0L2.5,-0.5"/>
  </g>
  <g id="arrowLeft" transform="rotate(270) translate(-36 17)">
    <use xlink:href="#rim"/>
    <path pointer-events="none" fill="none" stroke="white" stroke-width="1.5" d="M0,-3.0v7 M-2.5,-0.5L0,-3.0L2.5,-0.5"/>
  </g>
  <g id="resetDef">
    <use xlink:href="#rim2" fill="#404040"><set attributeName="fill" to="#808080" begin="reset.mouseover" end="reset.mouseout"/></use>
  </g>
</defs>
<script type="application/ecmascript">
var viewWidth = 692;
var viewHeight = 172;
var sectionId = 'dynsection-0';
</script>
<script type="application/ecmascript" xlink:href="svg.min.js"/>
<svg id="graph" class="graph">
<g id="viewport">
<title>firmware/source/main_module/sdc/sdc.c</title>
<!-- Node1 -->
<g id="Node000001" class="node">
<title>Node1</title>
<g id="a_Node000001"><a xlink:title="SDC task implementation.">
<polygon fill="#999999" stroke="#666666" points="397.62,-163.5 288.62,-163.5 288.62,-133 397.62,-133 397.62,-163.5"/>
<text text-anchor="start" x="296.62" y="-150" font-family="Helvetica,sans-Serif" font-size="10.00">firmware/source/main</text>
<text text-anchor="middle" x="343.12" y="-138.75" font-family="Helvetica,sans-Serif" font-size="10.00">_module/sdc/sdc.c</text>
</a>
</g>
</g>
<!-- Node2 -->
<g id="Node000002" class="node">
<title>Node2</title>
<g id="a_Node000002"><a xlink:href="sdc_8h.html" target="_top" xlink:title="SDC task implementation.">
<polygon fill="white" stroke="#666666" points="266.75,-91.38 227.5,-91.38 227.5,-72.12 266.75,-72.12 266.75,-91.38"/>
<text text-anchor="middle" x="247.12" y="-77.88" font-family="Helvetica,sans-Serif" font-size="10.00">sdc.h</text>
</a>
</g>
</g>
<!-- Node1&#45;&gt;Node2 -->
<g id="edge1_Node000001_Node000002" class="edge">
<title>Node1&#45;&gt;Node2</title>
<g id="a_edge1_Node000001_Node000002"><a xlink:title=" ">
<path fill="none" stroke="#63b8ff" d="M321.34,-132.61C306,-122.31 285.51,-108.54 269.95,-98.08"/>
<polygon fill="#63b8ff" stroke="#63b8ff" points="272.04,-95.28 261.79,-92.6 268.14,-101.09 272.04,-95.28"/>
</a>
</g>
</g>
<!-- Node4 -->
<g id="Node000004" class="node">
<title>Node4</title>
<g id="a_Node000004"><a xlink:href="faults__common_8h.html" target="_top" xlink:title="Event&#45;based FIDR system.">
<polygon fill="white" stroke="#666666" points="194.88,-97 105.38,-97 105.38,-66.5 194.88,-66.5 194.88,-97"/>
<text text-anchor="start" x="113.38" y="-83.5" font-family="Helvetica,sans-Serif" font-size="10.00">can_library/faults</text>
<text text-anchor="middle" x="150.12" y="-72.25" font-family="Helvetica,sans-Serif" font-size="10.00">_common.h</text>
</a>
</g>
</g>
<!-- Node1&#45;&gt;Node4 -->
<g id="edge3_Node000001_Node000004" class="edge">
<title>Node1&#45;&gt;Node4</title>
<g id="a_edge3_Node000001_Node000004"><a xlink:title=" ">
<path fill="none" stroke="#63b8ff" d="M299.33,-132.61C271.3,-123.25 234.71,-111.02 204.78,-101.01"/>
<polygon fill="#63b8ff" stroke="#63b8ff" points="206.11,-97.77 195.52,-97.92 203.89,-104.41 206.11,-97.77"/>
</a>
</g>
</g>
<!-- Node6 -->
<g id="Node000006" class="node">
<title>Node6</title>
<g id="a_Node000006"><a xlink:href="rtos_8h.html" target="_top" xlink:title="Wrapper macros for FreeRTOS constructs (tasks, queues, semaphores) to simplify static memory allocati...">
<polygon fill="white" stroke="#666666" points="393.12,-91.38 293.12,-91.38 293.12,-72.12 393.12,-72.12 393.12,-91.38"/>
<text text-anchor="middle" x="343.12" y="-77.88" font-family="Helvetica,sans-Serif" font-size="10.00">common/rtos/rtos.h</text>
</a>
</g>
</g>
<!-- Node1&#45;&gt;Node6 -->
<g id="edge6_Node000001_Node000006" class="edge">
<title>Node1&#45;&gt;Node6</title>
<g id="a_edge6_Node000001_Node000006"><a xlink:title=" ">
<path fill="none" stroke="#63b8ff" d="M343.12,-132.61C343.12,-123.83 343.12,-112.52 343.12,-102.9"/>
<polygon fill="#63b8ff" stroke="#63b8ff" points="346.63,-103.09 343.13,-93.09 339.63,-103.09 346.63,-103.09"/>
</a>
</g>
</g>
<!-- Node13 -->
<g id="Node000013" class="node">
<title>Node13</title>
<g id="a_Node000013"><a xlink:href="phal__G4_2gpio_2gpio_8h.html" target="_top" xlink:title="GPIO Driver for STM32L432 Devices.">
<polygon fill="white" stroke="#666666" points="524.88,-97 411.38,-97 411.38,-66.5 524.88,-66.5 524.88,-97"/>
<text text-anchor="start" x="419.38" y="-83.5" font-family="Helvetica,sans-Serif" font-size="10.00">common/phal_G4/gpio</text>
<text text-anchor="middle" x="468.12" y="-72.25" font-family="Helvetica,sans-Serif" font-size="10.00">/gpio.h</text>
</a>
</g>
</g>
<!-- Node1&#45;&gt;Node13 -->
<g id="edge14_Node000001_Node000013" class="edge">
<title>Node1&#45;&gt;Node13</title>
<g id="a_edge14_Node000001_Node000013"><a xlink:title=" ">
<path fill="none" stroke="#63b8ff" d="M371.49,-132.61C388.75,-123.71 411.02,-112.22 429.83,-102.51"/>
<polygon fill="#63b8ff" stroke="#63b8ff" points="431.25,-105.72 438.53,-98.02 428.04,-99.5 431.25,-105.72"/>
</a>
</g>
</g>
<!-- Node15 -->
<g id="Node000015" class="node">
<title>Node15</title>
<g id="a_Node000015"><a xlink:title=" ">
<polygon fill="#e0e0e0" stroke="#999999" points="587.38,-91.38 542.88,-91.38 542.88,-72.12 587.38,-72.12 587.38,-91.38"/>
<text text-anchor="middle" x="565.12" y="-77.88" font-family="Helvetica,sans-Serif" font-size="10.00">main.h</text>
</a>
</g>
</g>
<!-- Node1&#45;&gt;Node15 -->
<g id="edge16_Node000001_Node000015" class="edge">
<title>Node1&#45;&gt;Node15</title>
<g id="a_edge16_Node000001_Node000015"><a xlink:title=" ">
<path fill="none" stroke="#63b8ff" d="M397.81,-135.53C436.43,-126.61 489.1,-113.13 534.12,-97 534.77,-96.77 535.42,-96.53 536.07,-96.28"/>
<polygon fill="#63b8ff" stroke="#63b8ff" points="537.37,-99.53 545.26,-92.46 534.68,-93.07 537.37,-99.53"/>
</a>
</g>
</g>
<!-- Node3 -->
<g id="Node000003" class="node">
<title>Node3</title>
<g id="a_Node000003"><a xlink:title=" ">
<polygon fill="#e0e0e0" stroke="#999999" points="173.88,-24.88 126.38,-24.88 126.38,-5.63 173.88,-5.63 173.88,-24.88"/>
<text text-anchor="middle" x="150.12" y="-11.38" font-family="Helvetica,sans-Serif" font-size="10.00">stdint.h</text>
</a>
</g>
</g>
<!-- Node2&#45;&gt;Node3 -->
<g id="edge2_Node000002_Node000003" class="edge">
<title>Node2&#45;&gt;Node3</title>
<g id="a_edge2_Node000002_Node000003"><a xlink:title=" ">
<path fill="none" stroke="#63b8ff" d="M233.64,-71.78C218.02,-61.39 192.02,-44.11 173.18,-31.58"/>
<polygon fill="#63b8ff" stroke="#63b8ff" points="175.34,-28.81 165.07,-26.19 171.46,-34.64 175.34,-28.81"/>
</a>
</g>
</g>
<!-- Node4&#45;&gt;Node3 -->
<g id="edge4_Node000004_Node000003" class="edge">
<title>Node4&#45;&gt;Node3</title>
<g id="a_edge4_Node000004_Node000003"><a xlink:title=" ">
<path fill="none" stroke="#63b8ff" d="M150.12,-66.11C150.12,-57.33 150.12,-46.02 150.12,-36.4"/>
<polygon fill="#63b8ff" stroke="#63b8ff" points="153.63,-36.59 150.13,-26.59 146.63,-36.59 153.63,-36.59"/>
</a>
</g>
</g>
<!-- Node5 -->
<g id="Node000005" class="node">
<title>Node5</title>
<g id="a_Node000005"><a xlink:title=" ">
<polygon fill="#e0e0e0" stroke="#999999" points="108.25,-30.5 0,-30.5 0,0 108.25,0 108.25,-30.5"/>
<text text-anchor="start" x="8" y="-17" font-family="Helvetica,sans-Serif" font-size="10.00">can_library/generated</text>
<text text-anchor="middle" x="54.12" y="-5.75" font-family="Helvetica,sans-Serif" font-size="10.00">/can_types.h</text>
</a>
</g>
</g>
<!-- Node4&#45;&gt;Node5 -->
<g id="edge5_Node000004_Node000005" class="edge">
<title>Node4&#45;&gt;Node5</title>
<g id="a_edge5_Node000004_Node000005"><a xlink:title=" ">
<path fill="none" stroke="#63b8ff" d="M128.34,-66.11C115.58,-57.54 99.24,-46.56 85.15,-37.09"/>
<polygon fill="#63b8ff" stroke="#63b8ff" points="87.33,-34.34 77.08,-31.67 83.43,-40.15 87.33,-34.34"/>
</a>
</g>
</g>
<!-- Node6&#45;&gt;Node3 -->
<g id="edge13_Node000006_Node000003" class="edge">
<title>Node6&#45;&gt;Node3</title>
<g id="a_edge13_Node000006_Node000003"><a xlink:title=" ">
<path fill="none" stroke="#63b8ff" d="M310.92,-71.7C278.37,-62.3 226.79,-46.73 183.12,-30.5 182.34,-30.21 181.54,-29.9 180.73,-29.59"/>
<polygon fill="#63b8ff" stroke="#63b8ff" points="182.22,-26.42 171.64,-25.9 179.58,-32.91 182.22,-26.42"/>
</a>
</g>
</g>
<!-- Node7 -->
<g id="Node000007" class="node">
<title>Node7</title>
<g id="a_Node000007"><a xlink:title=" ">
<polygon fill="#e0e0e0" stroke="#999999" points="464.12,-24.88 394.12,-24.88 394.12,-5.63 464.12,-5.63 464.12,-24.88"/>
<text text-anchor="middle" x="429.12" y="-11.38" font-family="Helvetica,sans-Serif" font-size="10.00">FreeRTOS.h</text>
</a>
</g>
</g>
<!-- Node6&#45;&gt;Node7 -->
<g id="edge7_Node000006_Node000007" class="edge">
<title>Node6&#45;&gt;Node7</title>
<g id="a_edge7_Node000006_Node000007"><a xlink:title=" ">
<path fill="none" stroke="#63b8ff" d="M355.08,-71.78C368.74,-61.54 391.34,-44.59 407.99,-32.1"/>
<polygon fill="#63b8ff" stroke="#63b8ff" points="409.88,-35.06 415.78,-26.26 405.68,-29.46 409.88,-35.06"/>
</a>
</g>
</g>
<!-- Node8 -->
<g id="Node000008" class="node">
<title>Node8</title>
<g id="a_Node000008"><a xlink:title=" ">
<polygon fill="#e0e0e0" stroke="#999999" points="518.25,-24.88 482,-24.88 482,-5.63 518.25,-5.63 518.25,-24.88"/>
<text text-anchor="middle" x="500.12" y="-11.38" font-family="Helvetica,sans-Serif" font-size="10.00">list.h</text>
</a>
</g>
</g>
<!-- Node6&#45;&gt;Node8 -->
<g id="edge8_Node000006_Node000008" class="edge">
<title>Node6&#45;&gt;Node8</title>
<g id="a_edge8_Node000006_Node000008"><a xlink:title=" ">
<path fill="none" stroke="#63b8ff" d="M368.9,-71.79C395.39,-62.36 437.67,-46.64 473.12,-30.5 473.23,-30.45 473.34,-30.4 473.45,-30.35"/>
<polygon fill="#63b8ff" stroke="#63b8ff" points="474.93,-33.53 482.36,-25.97 471.84,-27.24 474.93,-33.53"/>
</a>
</g>
</g>
<!-- Node9 -->
<g id="Node000009" class="node">
<title>Node9</title>
<g id="a_Node000009"><a xlink:title=" ">
<polygon fill="#e0e0e0" stroke="#999999" points="586,-24.88 536.25,-24.88 536.25,-5.63 586,-5.63 586,-24.88"/>
<text text-anchor="middle" x="561.12" y="-11.38" font-family="Helvetica,sans-Serif" font-size="10.00">queue.h</text>
</a>
</g>
</g>
<!-- Node6&#45;&gt;Node9 -->
<g id="edge9_Node000006_Node000009" class="edge">
<title>Node6&#45;&gt;Node9</title>
<g id="a_edge9_Node000006_Node000009"><a xlink:title=" ">
<path fill="none" stroke="#63b8ff" d="M378.5,-71.68C423.81,-59.95 499.73,-39.94 527.12,-30.5 528.1,-30.16 529.1,-29.81 530.09,-29.45"/>
<polygon fill="#63b8ff" stroke="#63b8ff" points="531.34,-32.72 539.39,-25.83 528.8,-26.2 531.34,-32.72"/>
</a>
</g>
</g>
<!-- Node10 -->
<g id="Node000010" class="node">
<title>Node10</title>
<g id="a_Node000010"><a xlink:title=" ">
<polygon fill="#e0e0e0" stroke="#999999" points="248,-24.88 192.25,-24.88 192.25,-5.63 248,-5.63 248,-24.88"/>
<text text-anchor="middle" x="220.12" y="-11.38" font-family="Helvetica,sans-Serif" font-size="10.00">semphr.h</text>
</a>
</g>
</g>
<!-- Node6&#45;&gt;Node10 -->
<g id="edge10_Node000006_Node000010" class="edge">
<title>Node6&#45;&gt;Node10</title>
<g id="a_edge10_Node000006_Node000010"><a xlink:title=" ">
<path fill="none" stroke="#63b8ff" d="M325.76,-71.65C305.43,-60.99 271.51,-43.19 247.6,-30.66"/>
<polygon fill="#63b8ff" stroke="#63b8ff" points="249.22,-27.56 238.74,-26.01 245.97,-33.75 249.22,-27.56"/>
</a>
</g>
</g>
<!-- Node11 -->
<g id="Node000011" class="node">
<title>Node11</title>
<g id="a_Node000011"><a xlink:title=" ">
<polygon fill="#e0e0e0" stroke="#999999" points="308.25,-24.88 266,-24.88 266,-5.63 308.25,-5.63 308.25,-24.88"/>
<text text-anchor="middle" x="287.12" y="-11.38" font-family="Helvetica,sans-Serif" font-size="10.00">task.h</text>
</a>
</g>
</g>
<!-- Node6&#45;&gt;Node11 -->
<g id="edge11_Node000006_Node000011" class="edge">
<title>Node6&#45;&gt;Node11</title>
<g id="a_edge11_Node000006_Node000011"><a xlink:title=" ">
<path fill="none" stroke="#63b8ff" d="M335.34,-71.78C326.81,-61.96 312.93,-45.98 302.25,-33.67"/>
<polygon fill="#63b8ff" stroke="#63b8ff" points="305.04,-31.54 295.84,-26.29 299.75,-36.13 305.04,-31.54"/>
</a>
</g>
</g>
<!-- Node12 -->
<g id="Node000012" class="node">
<title>Node12</title>
<g id="a_Node000012"><a xlink:title=" ">
<polygon fill="#e0e0e0" stroke="#999999" points="376.38,-24.88 325.88,-24.88 325.88,-5.63 376.38,-5.63 376.38,-24.88"/>
<text text-anchor="middle" x="351.12" y="-11.38" font-family="Helvetica,sans-Serif" font-size="10.00">timers.h</text>
</a>
</g>
</g>
<!-- Node6&#45;&gt;Node12 -->
<g id="edge12_Node000006_Node000012" class="edge">
<title>Node6&#45;&gt;Node12</title>
<g id="a_edge12_Node000006_Node000012"><a xlink:title=" ">
<path fill="none" stroke="#63b8ff" d="M344.24,-71.78C345.37,-62.64 347.17,-48.14 348.64,-36.25"/>
<polygon fill="#63b8ff" stroke="#63b8ff" points="352.08,-37 349.84,-26.64 345.13,-36.14 352.08,-37"/>
</a>
</g>
</g>
<!-- Node14 -->
<g id="Node000014" class="node">
<title>Node14</title>
<g id="a_Node000014"><a xlink:title=" ">
<polygon fill="#e0e0e0" stroke="#999999" points="684.38,-24.88 603.88,-24.88 603.88,-5.63 684.38,-5.63 684.38,-24.88"/>
<text text-anchor="middle" x="644.12" y="-11.38" font-family="Helvetica,sans-Serif" font-size="10.00">stm32g474xx.h</text>
</a>
</g>
</g>
<!-- Node13&#45;&gt;Node14 -->
<g id="edge15_Node000013_Node000014" class="edge">
<title>Node13&#45;&gt;Node14</title>
<g id="a_edge15_Node000013_Node000014"><a xlink:title=" ">
<path fill="none" stroke="#63b8ff" d="M508.06,-66.11C538.37,-55.01 579.65,-39.88 608.77,-29.21"/>
<polygon fill="#63b8ff" stroke="#63b8ff" points="609.68,-32.6 617.86,-25.87 607.27,-26.03 609.68,-32.6"/>
</a>
</g>
</g>
</g>
</svg>

<g id="navigator" transform="translate(0 0)" fill="#404254">
  <rect fill="#f2f5e9" fill-opacity="0.5" stroke="#606060" stroke-width=".5" x="0" y="0" width="60" height="60"/>
  <use id="zoomplus" xlink:href="#zoomPlus" x="17" y="9" onmousedown="handleZoom(evt,'in')"/>
  <use id="zoomminus" xlink:href="#zoomMin" x="42" y="9" onmousedown="handleZoom(evt,'out')"/>
  <use id="reset" xlink:href="#resetDef" x="30" y="36" onmousedown="handleReset()"/>
   <use id="arrowup" xlink:href="#arrowUp" x="0" y="0" onmousedown="handlePan(0,-1)"/>
  <use id="arrowright" xlink:href="#arrowRight" x="0" y="0" onmousedown="handlePan(1,0)"/>
  <use id="arrowdown" xlink:href="#arrowDown" x="0" y="0" onmousedown="handlePan(0,1)"/>
  <use id="arrowleft" xlink:href="#arrowLeft" x="0" y="0" onmousedown="handlePan(-1,0)"/>
</g>
<svg viewBox="0 0 15 15" width="100%" height="30px" preserveAspectRatio="xMaxYMin meet">
 <g id="arrow_out" transform="scale(0.3 0.3)">
  <a xlink:href="sdc_8c__incl_org.svg" target="_base">
   <rect id="button" ry="5" rx="5" y="6" x="6" height="38" width="38"
        fill="#f2f5e9" fill-opacity="0.5" stroke="#606060" stroke-width="1.0"/>
   <path id="arrow"
     d="M 11.500037,31.436501 C 11.940474,20.09759 22.043105,11.32322 32.158766,21.979434 L 37.068811,17.246167 C 37.068811,17.246167 37.088388,32 37.088388,32 L 22.160133,31.978069 C 22.160133,31.978069 26.997745,27.140456 26.997745,27.140456 C 18.528582,18.264221 13.291696,25.230495 11.500037,31.436501 z"
     style="fill:#404040;"/>
  </a>
 </g>
</svg>

<style type='text/css'>
<![CDATA[
[data-mouse-over-selected='false'] { opacity: 0.7; }
[data-mouse-over-selected='true']  { opacity: 1.0; }
]]>
</style>
<script type="application/ecmascript"><![CDATA[
document.addEventListener('DOMContentLoaded', (event) => {
  highlightEdges();
  highlightAdjacentNodes();
});
]]></script>
</svg>
