<?xml version="1.0" encoding="UTF-8" standalone="no"?>
<!DOCTYPE svg PUBLIC "-//W3C//DTD SVG 1.1//EN"
 "http://www.w3.org/Graphics/SVG/1.1/DTD/svg11.dtd">
<!-- Generated by graphviz version 12.2.0 (20241103.1931)
 -->
<!-- Title: firmware/source/daq/spmc/timestamped_frame.h Pages: 1 -->
<svg width="722pt" height="172pt"
 viewBox="0.00 0.00 721.75 171.50" xmlns="http://www.w3.org/2000/svg" xmlns:xlink="http://www.w3.org/1999/xlink">
<g id="graph0" class="graph" transform="scale(1 1) rotate(0) translate(4 167.5)">
<title>firmware/source/daq/spmc/timestamped_frame.h</title>
<!-- Node1 -->
<g id="Node000001" class="node">
<title>Node1</title>
<g id="a_Node000001"><a xlink:title="Definition for timestamped CAN frames.">
<polygon fill="#999999" stroke="#666666" points="365.75,-163.5 226,-163.5 226,-133 365.75,-133 365.75,-163.5"/>
<text text-anchor="start" x="234" y="-150" font-family="Helvetica,sans-Serif" font-size="10.00">firmware/source/daq</text>
<text text-anchor="middle" x="295.88" y="-138.75" font-family="Helvetica,sans-Serif" font-size="10.00">/spmc/timestamped_frame.h</text>
</a>
</g>
</g>
<!-- Node2 -->
<g id="Node000002" class="node">
<title>Node2</title>
<g id="a_Node000002"><a xlink:href="can__irq_8c.html" target="_top" xlink:title="Timestamped frame producers from CAN RX IRQ.">
<polygon fill="white" stroke="#666666" points="347.75,-30.5 244,-30.5 244,0 347.75,0 347.75,-30.5"/>
<text text-anchor="start" x="252" y="-17" font-family="Helvetica,sans-Serif" font-size="10.00">firmware/source/daq</text>
<text text-anchor="middle" x="295.88" y="-5.75" font-family="Helvetica,sans-Serif" font-size="10.00">/can_irq/can_irq.c</text>
</a>
</g>
</g>
<!-- Node1&#45;&gt;Node2 -->
<g id="edge1_Node000001_Node000002" class="edge">
<title>Node1&#45;&gt;Node2</title>
<g id="a_edge1_Node000001_Node000002"><a xlink:title=" ">
<path fill="none" stroke="#63b8ff" d="M295.88,-121.43C295.88,-94.34 295.88,-52.71 295.88,-30.83"/>
<polygon fill="#63b8ff" stroke="#63b8ff" points="292.38,-121.22 295.88,-131.22 299.38,-121.22 292.38,-121.22"/>
</a>
</g>
</g>
<!-- Node3 -->
<g id="Node000003" class="node">
<title>Node3</title>
<g id="a_Node000003"><a xlink:href="rtc__sync_8h.html" target="_top" xlink:title="Synchronization of the RTC peripheral with the GPS UTC time.">
<polygon fill="white" stroke="#666666" points="246.75,-97 143,-97 143,-66.5 246.75,-66.5 246.75,-97"/>
<text text-anchor="start" x="151" y="-83.5" font-family="Helvetica,sans-Serif" font-size="10.00">firmware/source/daq</text>
<text text-anchor="middle" x="194.88" y="-72.25" font-family="Helvetica,sans-Serif" font-size="10.00">/rtc_sync/rtc_sync.h</text>
</a>
</g>
</g>
<!-- Node1&#45;&gt;Node3 -->
<g id="edge2_Node000001_Node000003" class="edge">
<title>Node1&#45;&gt;Node3</title>
<g id="a_edge2_Node000001_Node000003"><a xlink:title=" ">
<path fill="none" stroke="#63b8ff" d="M263.56,-126.61C248.63,-117.08 231.24,-105.98 217.7,-97.33"/>
<polygon fill="#63b8ff" stroke="#63b8ff" points="261.37,-129.37 271.68,-131.8 265.14,-123.47 261.37,-129.37"/>
</a>
</g>
</g>
<!-- Node6 -->
<g id="Node000006" class="node">
<title>Node6</title>
<g id="a_Node000006"><a xlink:href="spmc_8h.html" target="_top" xlink:title="Custom SPMC designed for high throughput handling of CAN message streams.">
<polygon fill="white" stroke="#666666" points="448.75,-97 345,-97 345,-66.5 448.75,-66.5 448.75,-97"/>
<text text-anchor="start" x="353" y="-83.5" font-family="Helvetica,sans-Serif" font-size="10.00">firmware/source/daq</text>
<text text-anchor="middle" x="396.88" y="-72.25" font-family="Helvetica,sans-Serif" font-size="10.00">/spmc/spmc.h</text>
</a>
</g>
</g>
<!-- Node1&#45;&gt;Node6 -->
<g id="edge6_Node000001_Node000006" class="edge">
<title>Node1&#45;&gt;Node6</title>
<g id="a_edge6_Node000001_Node000006"><a xlink:title=" ">
<path fill="none" stroke="#63b8ff" d="M328.19,-126.61C343.12,-117.08 360.51,-105.98 374.05,-97.33"/>
<polygon fill="#63b8ff" stroke="#63b8ff" points="326.61,-123.47 320.07,-131.8 330.38,-129.37 326.61,-123.47"/>
</a>
</g>
</g>
<!-- Node3&#45;&gt;Node2 -->
<g id="edge3_Node000003_Node000002" class="edge">
<title>Node3&#45;&gt;Node2</title>
<g id="a_edge3_Node000003_Node000002"><a xlink:title=" ">
<path fill="none" stroke="#63b8ff" d="M227.19,-60.11C242.12,-50.58 259.51,-39.48 273.05,-30.83"/>
<polygon fill="#63b8ff" stroke="#63b8ff" points="225.61,-56.97 219.07,-65.3 229.38,-62.87 225.61,-56.97"/>
</a>
</g>
</g>
<!-- Node4 -->
<g id="Node000004" class="node">
<title>Node4</title>
<g id="a_Node000004"><a xlink:href="daq_2main_8c.html" target="_top" xlink:title="&quot;DAQ&quot; node source code">
<polygon fill="white" stroke="#666666" points="225.75,-30.5 122,-30.5 122,0 225.75,0 225.75,-30.5"/>
<text text-anchor="start" x="130" y="-17" font-family="Helvetica,sans-Serif" font-size="10.00">firmware/source/daq</text>
<text text-anchor="middle" x="173.88" y="-5.75" font-family="Helvetica,sans-Serif" font-size="10.00">/main.c</text>
</a>
</g>
</g>
<!-- Node3&#45;&gt;Node4 -->
<g id="edge4_Node000003_Node000004" class="edge">
<title>Node3&#45;&gt;Node4</title>
<g id="a_edge4_Node000003_Node000004"><a xlink:title=" ">
<path fill="none" stroke="#63b8ff" d="M186.61,-55.38C183.9,-47.05 180.98,-38.08 178.62,-30.83"/>
<polygon fill="#63b8ff" stroke="#63b8ff" points="183.22,-56.25 189.64,-64.67 189.87,-54.08 183.22,-56.25"/>
</a>
</g>
</g>
<!-- Node5 -->
<g id="Node000005" class="node">
<title>Node5</title>
<g id="a_Node000005"><a xlink:href="rtc__sync_8c.html" target="_top" xlink:title="Synchronization of the RTC peripheral with the GPS UTC time.">
<polygon fill="white" stroke="#666666" points="103.75,-30.5 0,-30.5 0,0 103.75,0 103.75,-30.5"/>
<text text-anchor="start" x="8" y="-17" font-family="Helvetica,sans-Serif" font-size="10.00">firmware/source/daq</text>
<text text-anchor="middle" x="51.88" y="-5.75" font-family="Helvetica,sans-Serif" font-size="10.00">/rtc_sync/rtc_sync.c</text>
</a>
</g>
</g>
<!-- Node3&#45;&gt;Node5 -->
<g id="edge5_Node000003_Node000005" class="edge">
<title>Node3&#45;&gt;Node5</title>
<g id="a_edge5_Node000003_Node000005"><a xlink:title=" ">
<path fill="none" stroke="#63b8ff" d="M152.12,-61.47C130.34,-51.64 104.28,-39.89 84.2,-30.83"/>
<polygon fill="#63b8ff" stroke="#63b8ff" points="150.49,-64.57 161.05,-65.49 153.37,-58.19 150.49,-64.57"/>
</a>
</g>
</g>
<!-- Node6&#45;&gt;Node2 -->
<g id="edge7_Node000006_Node000002" class="edge">
<title>Node6&#45;&gt;Node2</title>
<g id="a_edge7_Node000006_Node000002"><a xlink:title=" ">
<path fill="none" stroke="#63b8ff" d="M364.56,-60.11C349.63,-50.58 332.24,-39.48 318.7,-30.83"/>
<polygon fill="#63b8ff" stroke="#63b8ff" points="362.37,-62.87 372.68,-65.3 366.14,-56.97 362.37,-62.87"/>
</a>
</g>
</g>
<!-- Node6&#45;&gt;Node4 -->
<g id="edge9_Node000006_Node000004" class="edge">
<title>Node6&#45;&gt;Node4</title>
<g id="a_edge9_Node000006_Node000004"><a xlink:title=" ">
<path fill="none" stroke="#63b8ff" d="M335.01,-62.85C300.21,-52.79 257.32,-40.39 224.54,-30.9"/>
<polygon fill="#63b8ff" stroke="#63b8ff" points="333.96,-66.2 344.54,-65.61 335.91,-59.47 333.96,-66.2"/>
</a>
</g>
</g>
<!-- Node7 -->
<g id="Node000007" class="node">
<title>Node7</title>
<g id="a_Node000007"><a xlink:href="ethernet_8c.html" target="_top" xlink:title="Implementation of the ethernet thread for wireless data acquisition.">
<polygon fill="white" stroke="#666666" points="469.75,-30.5 366,-30.5 366,0 469.75,0 469.75,-30.5"/>
<text text-anchor="start" x="374" y="-17" font-family="Helvetica,sans-Serif" font-size="10.00">firmware/source/daq</text>
<text text-anchor="middle" x="417.88" y="-5.75" font-family="Helvetica,sans-Serif" font-size="10.00">/ethernet/ethernet.c</text>
</a>
</g>
</g>
<!-- Node6&#45;&gt;Node7 -->
<g id="edge8_Node000006_Node000007" class="edge">
<title>Node6&#45;&gt;Node7</title>
<g id="a_edge8_Node000006_Node000007"><a xlink:title=" ">
<path fill="none" stroke="#63b8ff" d="M405.14,-55.38C407.85,-47.05 410.77,-38.08 413.13,-30.83"/>
<polygon fill="#63b8ff" stroke="#63b8ff" points="401.88,-54.08 402.11,-64.67 408.53,-56.25 401.88,-54.08"/>
</a>
</g>
</g>
<!-- Node8 -->
<g id="Node000008" class="node">
<title>Node8</title>
<g id="a_Node000008"><a xlink:href="sd__card_8c.html" target="_top" xlink:title="Logging of received bus messages onto an SD card.">
<polygon fill="white" stroke="#666666" points="591.75,-30.5 488,-30.5 488,0 591.75,0 591.75,-30.5"/>
<text text-anchor="start" x="496" y="-17" font-family="Helvetica,sans-Serif" font-size="10.00">firmware/source/daq</text>
<text text-anchor="middle" x="539.88" y="-5.75" font-family="Helvetica,sans-Serif" font-size="10.00">/sd_card/sd_card.c</text>
</a>
</g>
</g>
<!-- Node6&#45;&gt;Node8 -->
<g id="edge10_Node000006_Node000008" class="edge">
<title>Node6&#45;&gt;Node8</title>
<g id="a_edge10_Node000006_Node000008"><a xlink:title=" ">
<path fill="none" stroke="#63b8ff" d="M439.63,-61.47C461.41,-51.64 487.47,-39.89 507.55,-30.83"/>
<polygon fill="#63b8ff" stroke="#63b8ff" points="438.38,-58.19 430.7,-65.49 441.26,-64.57 438.38,-58.19"/>
</a>
</g>
</g>
<!-- Node9 -->
<g id="Node000009" class="node">
<title>Node9</title>
<g id="a_Node000009"><a xlink:href="spmc_8c.html" target="_top" xlink:title="Custom SPMC designed for high throughput handling of CAN message streams.">
<polygon fill="white" stroke="#666666" points="713.75,-30.5 610,-30.5 610,0 713.75,0 713.75,-30.5"/>
<text text-anchor="start" x="618" y="-17" font-family="Helvetica,sans-Serif" font-size="10.00">firmware/source/daq</text>
<text text-anchor="middle" x="661.88" y="-5.75" font-family="Helvetica,sans-Serif" font-size="10.00">/spmc/spmc.c</text>
</a>
</g>
</g>
<!-- Node6&#45;&gt;Node9 -->
<g id="edge11_Node000006_Node000009" class="edge">
<title>Node6&#45;&gt;Node9</title>
<g id="a_edge11_Node000006_Node000009"><a xlink:title=" ">
<path fill="none" stroke="#63b8ff" d="M460.19,-65.34C505.85,-54.23 566.74,-39.41 609.63,-28.97"/>
<polygon fill="#63b8ff" stroke="#63b8ff" points="459.59,-61.88 450.7,-67.65 461.25,-68.68 459.59,-61.88"/>
</a>
</g>
</g>
</g>
</svg>
