<?xml version="1.0" encoding="UTF-8" standalone="no"?>
<!DOCTYPE svg PUBLIC "-//W3C//DTD SVG 1.1//EN"
 "http://www.w3.org/Graphics/SVG/1.1/DTD/svg11.dtd">
<!-- Generated by graphviz version 12.2.0 (20241103.1931)
 -->
<!-- Title: CAN_SEND_tv_init Pages: 1 -->
<svg width="415pt" height="101pt"
 viewBox="0.00 0.00 415.25 101.25" xmlns="http://www.w3.org/2000/svg" xmlns:xlink="http://www.w3.org/1999/xlink">
<g id="graph0" class="graph" transform="scale(1 1) rotate(0) translate(4 97.25)">
<title>CAN_SEND_tv_init</title>
<!-- Node1 -->
<g id="Node000001" class="node">
<title>Node1</title>
<g id="a_Node000001"><a xlink:title=" ">
<polygon fill="#999999" stroke="#666666" points="100.75,-56.25 0,-56.25 0,-37 100.75,-37 100.75,-56.25"/>
<text text-anchor="middle" x="50.38" y="-42.75" font-family="Helvetica,sans-Serif" font-size="10.00">CAN_SEND_tv_init</text>
</a>
</g>
</g>
<!-- Node2 -->
<g id="Node000002" class="node">
<title>Node2</title>
<g id="a_Node000002"><a xlink:href="TORQUE__VECTOR_8h.html#a0da956162efe3e0016f181cee58961e6" target="_top" xlink:title=" ">
<polygon fill="white" stroke="#666666" points="272.75,-93.25 136.75,-93.25 136.75,-74 272.75,-74 272.75,-93.25"/>
<text text-anchor="middle" x="204.75" y="-79.75" font-family="Helvetica,sans-Serif" font-size="10.00">CAN_enqueue_tx_FDCAN2</text>
</a>
</g>
</g>
<!-- Node1&#45;&gt;Node2 -->
<g id="edge1_Node000001_Node000002" class="edge">
<title>Node1&#45;&gt;Node2</title>
<g id="a_edge1_Node000001_Node000002"><a xlink:title=" ">
<path fill="none" stroke="#63b8ff" d="M93.01,-56.74C110.9,-61.08 132.01,-66.21 150.98,-70.81"/>
<polygon fill="#63b8ff" stroke="#63b8ff" points="150.15,-74.21 160.69,-73.17 151.8,-67.41 150.15,-74.21"/>
</a>
</g>
</g>
<!-- Node3 -->
<g id="Node000003" class="node">
<title>Node3</title>
<g id="a_Node000003"><a xlink:href="can__codec_8h.html#ac4a71d75c81b7dee78d6c6b19ace0b97" target="_top" xlink:title=" ">
<polygon fill="white" stroke="#666666" points="262.25,-56.25 147.25,-56.25 147.25,-37 262.25,-37 262.25,-56.25"/>
<text text-anchor="middle" x="204.75" y="-42.75" font-family="Helvetica,sans-Serif" font-size="10.00">CAN_pack_raw_signal</text>
</a>
</g>
</g>
<!-- Node1&#45;&gt;Node3 -->
<g id="edge2_Node000001_Node000003" class="edge">
<title>Node1&#45;&gt;Node3</title>
<g id="a_edge2_Node000001_Node000003"><a xlink:title=" ">
<path fill="none" stroke="#63b8ff" d="M100.85,-46.62C111.86,-46.62 123.73,-46.62 135.35,-46.62"/>
<polygon fill="#63b8ff" stroke="#63b8ff" points="135.34,-50.13 145.34,-46.63 135.34,-43.13 135.34,-50.13"/>
</a>
</g>
</g>
<!-- Node5 -->
<g id="Node000005" class="node">
<title>Node5</title>
<g id="a_Node000005"><a xlink:href="can__codec_8h.html#a2ba7cd673ebc72d6164e744be452602f" target="_top" xlink:title=" ">
<polygon fill="white" stroke="#666666" points="266.38,-19.25 143.12,-19.25 143.12,0 266.38,0 266.38,-19.25"/>
<text text-anchor="middle" x="204.75" y="-5.75" font-family="Helvetica,sans-Serif" font-size="10.00">CAN_store_payload_u64</text>
</a>
</g>
</g>
<!-- Node1&#45;&gt;Node5 -->
<g id="edge4_Node000001_Node000005" class="edge">
<title>Node1&#45;&gt;Node5</title>
<g id="a_edge4_Node000001_Node000005"><a xlink:title=" ">
<path fill="none" stroke="#63b8ff" d="M93.01,-36.51C110.9,-32.17 132.01,-27.04 150.98,-22.44"/>
<polygon fill="#63b8ff" stroke="#63b8ff" points="151.8,-25.84 160.69,-20.08 150.15,-19.04 151.8,-25.84"/>
</a>
</g>
</g>
<!-- Node4 -->
<g id="Node000004" class="node">
<title>Node4</title>
<g id="a_Node000004"><a xlink:href="can__codec_8h.html#a1ffbd7318559fdd74ae2cb491a424bda" target="_top" xlink:title=" ">
<polygon fill="white" stroke="#666666" points="407.25,-56.25 308.75,-56.25 308.75,-37 407.25,-37 407.25,-56.25"/>
<text text-anchor="middle" x="358" y="-42.75" font-family="Helvetica,sans-Serif" font-size="10.00">CAN_apply_bswap</text>
</a>
</g>
</g>
<!-- Node3&#45;&gt;Node4 -->
<g id="edge3_Node000003_Node000004" class="edge">
<title>Node3&#45;&gt;Node4</title>
<g id="a_edge3_Node000003_Node000004"><a xlink:title=" ">
<path fill="none" stroke="#63b8ff" d="M262.5,-46.62C273.82,-46.62 285.74,-46.62 297.15,-46.62"/>
<polygon fill="#63b8ff" stroke="#63b8ff" points="296.85,-50.13 306.85,-46.63 296.85,-43.13 296.85,-50.13"/>
</a>
</g>
</g>
</g>
</svg>
