<?xml version="1.0" encoding="UTF-8" standalone="no"?>
<!DOCTYPE svg PUBLIC "-//W3C//DTD SVG 1.1//EN"
 "http://www.w3.org/Graphics/SVG/1.1/DTD/svg11.dtd">
<!-- Generated by graphviz version 12.2.0 (20241103.1931)
 -->
<!-- Title: firmware/common/watchdog/watchdog.c Pages: 1 -->
<svg width="468pt" height="204pt"
 viewBox="0.00 0.00 468.00 204.25" xmlns="http://www.w3.org/2000/svg" xmlns:xlink="http://www.w3.org/1999/xlink">
<g id="graph0" class="graph" transform="scale(1 1) rotate(0) translate(4 200.25)">
<title>firmware/common/watchdog/watchdog.c</title>
<!-- Node1 -->
<g id="Node000001" class="node">
<title>Node1</title>
<g id="a_Node000001"><a xlink:title="Basic watchdog implementation.">
<polygon fill="#999999" stroke="#666666" points="196.88,-196.25 58.62,-196.25 58.62,-165.75 196.88,-165.75 196.88,-196.25"/>
<text text-anchor="start" x="66.62" y="-182.75" font-family="Helvetica,sans-Serif" font-size="10.00">firmware/common/watchdog</text>
<text text-anchor="middle" x="127.75" y="-171.5" font-family="Helvetica,sans-Serif" font-size="10.00">/watchdog.c</text>
</a>
</g>
</g>
<!-- Node2 -->
<g id="Node000002" class="node">
<title>Node2</title>
<g id="a_Node000002"><a xlink:href="watchdog_8h.html" target="_top" xlink:title="Basic watchdog implementation.">
<polygon fill="white" stroke="#666666" points="160.5,-129.75 95,-129.75 95,-110.5 160.5,-110.5 160.5,-129.75"/>
<text text-anchor="middle" x="127.75" y="-116.25" font-family="Helvetica,sans-Serif" font-size="10.00">watchdog.h</text>
</a>
</g>
</g>
<!-- Node1&#45;&gt;Node2 -->
<g id="edge1_Node000001_Node000002" class="edge">
<title>Node1&#45;&gt;Node2</title>
<g id="a_edge1_Node000001_Node000002"><a xlink:title=" ">
<path fill="none" stroke="#63b8ff" d="M127.75,-165.45C127.75,-158.21 127.75,-149.34 127.75,-141.44"/>
<polygon fill="#63b8ff" stroke="#63b8ff" points="131.25,-141.71 127.75,-131.71 124.25,-141.71 131.25,-141.71"/>
</a>
</g>
</g>
<!-- Node3 -->
<g id="Node000003" class="node">
<title>Node3</title>
<g id="a_Node000003"><a xlink:title=" ">
<polygon fill="#e0e0e0" stroke="#999999" points="47.5,-19.25 0,-19.25 0,0 47.5,0 47.5,-19.25"/>
<text text-anchor="middle" x="23.75" y="-5.75" font-family="Helvetica,sans-Serif" font-size="10.00">stdint.h</text>
</a>
</g>
</g>
<!-- Node2&#45;&gt;Node3 -->
<g id="edge2_Node000002_Node000003" class="edge">
<title>Node2&#45;&gt;Node3</title>
<g id="a_edge2_Node000002_Node000003"><a xlink:title=" ">
<path fill="none" stroke="#63b8ff" d="M119.24,-110.25C102.02,-92.28 62.8,-51.36 40.34,-27.94"/>
<polygon fill="#63b8ff" stroke="#63b8ff" points="42.87,-25.52 33.43,-20.72 37.82,-30.36 42.87,-25.52"/>
</a>
</g>
</g>
<!-- Node4 -->
<g id="Node000004" class="node">
<title>Node4</title>
<g id="a_Node000004"><a xlink:href="rtos_8h.html" target="_top" xlink:title="Wrapper macros for FreeRTOS constructs (tasks, queues, semaphores) to simplify static memory allocati...">
<polygon fill="white" stroke="#666666" points="251.75,-74.5 151.75,-74.5 151.75,-55.25 251.75,-55.25 251.75,-74.5"/>
<text text-anchor="middle" x="201.75" y="-61" font-family="Helvetica,sans-Serif" font-size="10.00">common/rtos/rtos.h</text>
</a>
</g>
</g>
<!-- Node2&#45;&gt;Node4 -->
<g id="edge3_Node000002_Node000004" class="edge">
<title>Node2&#45;&gt;Node4</title>
<g id="a_edge3_Node000002_Node000004"><a xlink:title=" ">
<path fill="none" stroke="#63b8ff" d="M140.3,-110.09C151.21,-102.24 167.25,-90.7 180.21,-81.37"/>
<polygon fill="#63b8ff" stroke="#63b8ff" points="182.08,-84.34 188.15,-75.66 177.99,-78.66 182.08,-84.34"/>
</a>
</g>
</g>
<!-- Node4&#45;&gt;Node3 -->
<g id="edge10_Node000004_Node000003" class="edge">
<title>Node4&#45;&gt;Node3</title>
<g id="a_edge10_Node000004_Node000003"><a xlink:title=" ">
<path fill="none" stroke="#63b8ff" d="M171.55,-54.84C140.32,-45.5 91.6,-30.92 58.72,-21.09"/>
<polygon fill="#63b8ff" stroke="#63b8ff" points="59.84,-17.77 49.25,-18.25 57.83,-24.47 59.84,-17.77"/>
</a>
</g>
</g>
<!-- Node5 -->
<g id="Node000005" class="node">
<title>Node5</title>
<g id="a_Node000005"><a xlink:title=" ">
<polygon fill="#e0e0e0" stroke="#999999" points="135.75,-19.25 65.75,-19.25 65.75,0 135.75,0 135.75,-19.25"/>
<text text-anchor="middle" x="100.75" y="-5.75" font-family="Helvetica,sans-Serif" font-size="10.00">FreeRTOS.h</text>
</a>
</g>
</g>
<!-- Node4&#45;&gt;Node5 -->
<g id="edge4_Node000004_Node000005" class="edge">
<title>Node4&#45;&gt;Node5</title>
<g id="a_edge4_Node000004_Node000005"><a xlink:title=" ">
<path fill="none" stroke="#63b8ff" d="M184.62,-54.84C169.09,-46.66 145.95,-34.46 127.91,-24.94"/>
<polygon fill="#63b8ff" stroke="#63b8ff" points="129.78,-21.98 119.31,-20.41 126.52,-28.17 129.78,-21.98"/>
</a>
</g>
</g>
<!-- Node6 -->
<g id="Node000006" class="node">
<title>Node6</title>
<g id="a_Node000006"><a xlink:title=" ">
<polygon fill="#e0e0e0" stroke="#999999" points="189.88,-19.25 153.62,-19.25 153.62,0 189.88,0 189.88,-19.25"/>
<text text-anchor="middle" x="171.75" y="-5.75" font-family="Helvetica,sans-Serif" font-size="10.00">list.h</text>
</a>
</g>
</g>
<!-- Node4&#45;&gt;Node6 -->
<g id="edge5_Node000004_Node000006" class="edge">
<title>Node4&#45;&gt;Node6</title>
<g id="a_edge5_Node000004_Node000006"><a xlink:title=" ">
<path fill="none" stroke="#63b8ff" d="M196.8,-55.08C192.87,-48.11 187.24,-38.12 182.31,-29.37"/>
<polygon fill="#63b8ff" stroke="#63b8ff" points="185.51,-27.92 177.55,-20.93 179.41,-31.36 185.51,-27.92"/>
</a>
</g>
</g>
<!-- Node7 -->
<g id="Node000007" class="node">
<title>Node7</title>
<g id="a_Node000007"><a xlink:title=" ">
<polygon fill="#e0e0e0" stroke="#999999" points="257.62,-19.25 207.88,-19.25 207.88,0 257.62,0 257.62,-19.25"/>
<text text-anchor="middle" x="232.75" y="-5.75" font-family="Helvetica,sans-Serif" font-size="10.00">queue.h</text>
</a>
</g>
</g>
<!-- Node4&#45;&gt;Node7 -->
<g id="edge6_Node000004_Node000007" class="edge">
<title>Node4&#45;&gt;Node7</title>
<g id="a_edge6_Node000004_Node000007"><a xlink:title=" ">
<path fill="none" stroke="#63b8ff" d="M206.87,-55.08C210.93,-48.11 216.74,-38.12 221.84,-29.37"/>
<polygon fill="#63b8ff" stroke="#63b8ff" points="224.75,-31.32 226.76,-20.92 218.7,-27.8 224.75,-31.32"/>
</a>
</g>
</g>
<!-- Node8 -->
<g id="Node000008" class="node">
<title>Node8</title>
<g id="a_Node000008"><a xlink:title=" ">
<polygon fill="#e0e0e0" stroke="#999999" points="331.62,-19.25 275.88,-19.25 275.88,0 331.62,0 331.62,-19.25"/>
<text text-anchor="middle" x="303.75" y="-5.75" font-family="Helvetica,sans-Serif" font-size="10.00">semphr.h</text>
</a>
</g>
</g>
<!-- Node4&#45;&gt;Node8 -->
<g id="edge7_Node000004_Node000008" class="edge">
<title>Node4&#45;&gt;Node8</title>
<g id="a_edge7_Node000004_Node000008"><a xlink:title=" ">
<path fill="none" stroke="#63b8ff" d="M219.05,-54.84C234.73,-46.66 258.1,-34.46 276.33,-24.94"/>
<polygon fill="#63b8ff" stroke="#63b8ff" points="277.78,-28.13 285.02,-20.4 274.54,-21.93 277.78,-28.13"/>
</a>
</g>
</g>
<!-- Node9 -->
<g id="Node000009" class="node">
<title>Node9</title>
<g id="a_Node000009"><a xlink:title=" ">
<polygon fill="#e0e0e0" stroke="#999999" points="391.88,-19.25 349.62,-19.25 349.62,0 391.88,0 391.88,-19.25"/>
<text text-anchor="middle" x="370.75" y="-5.75" font-family="Helvetica,sans-Serif" font-size="10.00">task.h</text>
</a>
</g>
</g>
<!-- Node4&#45;&gt;Node9 -->
<g id="edge8_Node000004_Node000009" class="edge">
<title>Node4&#45;&gt;Node9</title>
<g id="a_edge8_Node000004_Node000009"><a xlink:title=" ">
<path fill="none" stroke="#63b8ff" d="M230.42,-54.84C260.36,-45.41 307.23,-30.64 338.46,-20.8"/>
<polygon fill="#63b8ff" stroke="#63b8ff" points="339.27,-24.21 347.75,-17.87 337.16,-17.54 339.27,-24.21"/>
</a>
</g>
</g>
<!-- Node10 -->
<g id="Node000010" class="node">
<title>Node10</title>
<g id="a_Node000010"><a xlink:title=" ">
<polygon fill="#e0e0e0" stroke="#999999" points="460,-19.25 409.5,-19.25 409.5,0 460,0 460,-19.25"/>
<text text-anchor="middle" x="434.75" y="-5.75" font-family="Helvetica,sans-Serif" font-size="10.00">timers.h</text>
</a>
</g>
</g>
<!-- Node4&#45;&gt;Node10 -->
<g id="edge9_Node000004_Node000010" class="edge">
<title>Node4&#45;&gt;Node10</title>
<g id="a_edge9_Node000004_Node000010"><a xlink:title=" ">
<path fill="none" stroke="#63b8ff" d="M243.76,-54.81C281.72,-46.54 339.42,-33.77 398.17,-19.82"/>
<polygon fill="#63b8ff" stroke="#63b8ff" points="398.76,-23.28 407.68,-17.55 397.14,-16.47 398.76,-23.28"/>
</a>
</g>
</g>
</g>
</svg>
